<svg width="16" height="14" viewBox="0 0 16 14" fill="none" xmlns="http://www.w3.org/2000/svg">
<path d="M0.5 3.86667C0.5 3.03824 1.17157 2.36667 2 2.36667H3.56667C4.35828 2.36667 5 1.72494 5 0.933333C5 0.69401 5.19401 0.5 5.43333 0.5H6.5H8H9.5H10.0667C10.306 0.5 10.5 0.69401 10.5 0.933333C10.5 1.72494 11.1417 2.36667 11.9333 2.36667H14C14.8284 2.36667 15.5 3.03824 15.5 3.86667V12C15.5 12.8284 14.8284 13.5 14 13.5H2C1.17157 13.5 0.5 12.8284 0.5 12V3.86667Z" stroke="#939395"/>
<path d="M10.5 7.46666C10.5 8.70498 9.41376 9.76666 8 9.76666C6.58624 9.76666 5.5 8.70498 5.5 7.46666C5.5 6.22833 6.58624 5.16666 8 5.16666C9.41376 5.16666 10.5 6.22833 10.5 7.46666Z" stroke="#939395"/>
</svg>
