<svg width="30" height="29" viewBox="0 0 30 29" fill="none" xmlns="http://www.w3.org/2000/svg">
<path d="M1.38131 9.3413C1.00116 10.9143 2.19303 12.4286 3.81136 12.4286H25.3356C26.9146 12.4286 28.0981 10.9829 27.7864 9.435L26.4054 2.57786C26.1704 1.41084 25.1451 0.571416 23.9546 0.571416H5.4685C4.314 0.571416 3.30965 1.36196 3.03846 2.48416L1.38131 9.3413Z" stroke="#ED4D2D"/>
<path d="M4.5 12.8158C4.5 12.33 4.73529 11.8743 5.13135 11.5929L7.37054 10.0024C7.9546 9.58749 8.75051 9.64354 9.27066 10.1362L10.0177 10.8437C10.9819 11.7569 12.4918 11.7569 13.4559 10.8437L14.0212 10.3084C14.5997 9.76051 15.5056 9.76051 16.0841 10.3084L16.5183 10.7196C17.5468 11.6938 19.1785 11.6195 20.1143 10.5559L20.2372 10.4162C20.7692 9.81165 21.6836 9.73498 22.3088 10.2425L23.9454 11.5711C24.2963 11.856 24.5 12.2838 24.5 12.7357V24.8571C24.5 25.6856 23.8284 26.3571 23 26.3571H6C5.17157 26.3571 4.5 25.6856 4.5 24.8571V12.8158Z" fill="white" stroke="#ED4D2D"/>
<path d="M29.5 23.6428C29.5 26.3584 27.4534 28.5 25 28.5C22.5466 28.5 20.5 26.3584 20.5 23.6428C20.5 20.9273 22.5466 18.7857 25 18.7857C27.4534 18.7857 29.5 20.9273 29.5 23.6428Z" fill="white" stroke="#ED4D2D"/>
<path d="M24.5 21.5H25.5V25.7857H24.5V21.5Z" fill="#ED4C2D"/>
<path d="M23 23.1071H27V24.1786H23V23.1071Z" fill="#ED4C2D"/>
</svg>
