<svg width="62" height="70" viewBox="0 0 62 70" fill="none" xmlns="http://www.w3.org/2000/svg">
<rect x="6.5" y="0.590279" width="47" height="50.1945" rx="10.5" stroke="#C4C4C4" stroke-linejoin="round"/>
<path d="M16.5789 17.8611H45L44.2105 33.5139H15L16.5789 17.8611Z" fill="#ED4D2D"/>
<path d="M23.2754 27.5662L25.2305 27.5388C25.1439 28.2726 24.8955 28.9015 24.4854 29.4256C24.0798 29.9451 23.5693 30.3416 22.9541 30.615C22.3389 30.8839 21.6712 31.0115 20.9512 30.9978C20.2858 30.9842 19.7253 30.8429 19.2695 30.574C18.8138 30.3006 18.4561 29.936 18.1963 29.4803C17.9365 29.0245 17.7656 28.5164 17.6836 27.9558C17.6016 27.3953 17.597 26.8211 17.6699 26.2332L17.7656 25.5428C17.8568 24.923 18.0231 24.3237 18.2646 23.7449C18.5107 23.1661 18.832 22.6512 19.2285 22.2C19.625 21.7488 20.0944 21.3933 20.6367 21.1336C21.179 20.8738 21.7943 20.7508 22.4824 20.7644C23.2025 20.7781 23.8109 20.9331 24.3076 21.2293C24.8089 21.5209 25.194 21.9288 25.4629 22.4529C25.7363 22.9724 25.889 23.5808 25.9209 24.2781L23.9316 24.2713C23.9362 23.9021 23.8906 23.5786 23.7949 23.3006C23.7038 23.018 23.5443 22.7993 23.3164 22.6443C23.0885 22.4848 22.7741 22.3982 22.373 22.3846C21.9355 22.3709 21.5641 22.4575 21.2588 22.6443C20.9535 22.8312 20.7005 23.0818 20.5 23.3963C20.304 23.7107 20.1491 24.0548 20.0352 24.4285C19.9258 24.8022 19.8438 25.1691 19.7891 25.5291L19.6934 26.24C19.6569 26.5362 19.6318 26.8644 19.6182 27.2244C19.6045 27.5799 19.6341 27.9194 19.707 28.243C19.7799 28.5665 19.9212 28.8354 20.1309 29.0496C20.3405 29.2592 20.6527 29.3709 21.0674 29.3846C21.4775 29.3982 21.8307 29.3344 22.127 29.1931C22.4277 29.0519 22.6715 28.8422 22.8584 28.5642C23.0498 28.2862 23.1888 27.9536 23.2754 27.5662ZM33.9523 25.618L33.8976 26.0965C33.8065 26.7345 33.6356 27.3497 33.3849 27.9422C33.1343 28.5346 32.8061 29.0633 32.4005 29.5281C31.9949 29.9884 31.5119 30.353 30.9513 30.6219C30.3953 30.8862 29.7642 31.0115 29.0578 30.9978C28.3833 30.9842 27.8114 30.8383 27.342 30.5603C26.8771 30.2778 26.508 29.9041 26.2345 29.4392C25.9657 28.9744 25.7856 28.4571 25.6945 27.8875C25.6033 27.3133 25.5942 26.7254 25.6671 26.1238L25.7218 25.6521C25.813 25.0141 25.9839 24.4012 26.2345 23.8133C26.4897 23.2254 26.8201 22.7013 27.2257 22.241C27.6359 21.7762 28.119 21.4116 28.675 21.1472C29.2355 20.8829 29.8644 20.7576 30.5617 20.7713C31.2362 20.7804 31.8058 20.9262 32.2707 21.2088C32.7401 21.4868 33.1092 21.8582 33.3781 22.323C33.6515 22.7833 33.8338 23.3006 33.925 23.8748C34.0161 24.4444 34.0252 25.0255 33.9523 25.618ZM31.8673 26.1238L31.9357 25.6316C31.9722 25.3217 31.9904 24.9868 31.9904 24.6267C31.9949 24.2622 31.9539 23.9135 31.8673 23.5808C31.7808 23.2436 31.6258 22.9679 31.4025 22.7537C31.1838 22.5349 30.867 22.4165 30.4523 22.3982C30.0057 22.3846 29.6229 22.4734 29.3039 22.6648C28.9894 22.8562 28.7251 23.116 28.5109 23.4441C28.3013 23.7677 28.1349 24.1232 28.0119 24.5105C27.8934 24.8933 27.8068 25.2693 27.7521 25.6385L27.6906 26.1306C27.6496 26.436 27.6268 26.7732 27.6222 27.1424C27.6222 27.5069 27.6655 27.8579 27.7521 28.1951C27.8387 28.5278 27.9936 28.8035 28.217 29.0222C28.4403 29.241 28.7593 29.3595 29.174 29.3777C29.616 29.3914 29.9943 29.3002 30.3088 29.1043C30.6278 28.9083 30.8944 28.6485 31.1086 28.325C31.3227 27.9969 31.4914 27.6414 31.6144 27.2586C31.7375 26.8712 31.8218 26.493 31.8673 26.1238ZM36.6585 30.8611H34.4437L34.7308 29.2615L36.72 29.2752C37.3398 29.2752 37.8616 29.1293 38.2855 28.8377C38.7093 28.5415 39.042 28.1541 39.2835 27.6756C39.5296 27.1925 39.696 26.6707 39.7825 26.1101L39.8441 25.6248C39.8851 25.2784 39.8988 24.9275 39.8851 24.5721C39.8714 24.212 39.8053 23.8793 39.6868 23.574C39.5729 23.2687 39.3906 23.0203 39.14 22.8289C38.8893 22.6375 38.5498 22.5349 38.1214 22.5213L35.8519 22.5144L36.1321 20.908L38.1829 20.9148C38.8483 20.9285 39.4271 21.0652 39.9193 21.325C40.4114 21.5802 40.8148 21.9265 41.1292 22.364C41.4437 22.8015 41.6624 23.3028 41.7855 23.868C41.9085 24.4285 41.9336 25.0187 41.8607 25.6385L41.806 26.1238C41.7148 26.7892 41.5257 27.4112 41.2386 27.99C40.956 28.5688 40.5892 29.0747 40.138 29.5076C39.6914 29.936 39.1741 30.2709 38.5863 30.5125C37.9984 30.7495 37.3558 30.8657 36.6585 30.8611ZM37.3079 20.908L35.5784 30.8611H33.5755L35.2982 20.908H37.3079Z" fill="white"/>
<path d="M4.32359 60.6316H3.16734L3.15953 60.0261H4.23375C4.39521 60.0261 4.53844 59.9896 4.66344 59.9167C4.78844 59.8438 4.88609 59.7396 4.95641 59.6042C5.02932 59.4662 5.06578 59.3021 5.06578 59.112C5.06578 58.9037 5.03453 58.7344 4.97203 58.6042C4.91213 58.4714 4.81969 58.3751 4.69469 58.3152C4.57229 58.2527 4.41604 58.2214 4.22594 58.2214H3.31969V63.2917H2.60094V57.6042H4.22594C4.47073 57.6042 4.68948 57.6342 4.88219 57.6941C5.0749 57.7514 5.23766 57.8425 5.37047 57.9675C5.50588 58.0899 5.60875 58.2461 5.67906 58.4362C5.74937 58.6264 5.78453 58.8542 5.78453 59.1198C5.78453 59.3542 5.73115 59.5665 5.62437 59.7566C5.52021 59.9441 5.37437 60.0977 5.18687 60.2175C4.99937 60.3373 4.78323 60.4141 4.53844 60.448L4.32359 60.6316ZM4.29625 63.2917H2.87047L3.28844 62.6784H4.29625C4.48375 62.6784 4.6426 62.6368 4.77281 62.5534C4.90302 62.4701 5.00198 62.3529 5.06969 62.2019C5.14 62.0482 5.17516 61.8672 5.17516 61.6589C5.17516 61.448 5.14651 61.2657 5.08922 61.112C5.03193 60.9584 4.94078 60.8399 4.81578 60.7566C4.69078 60.6732 4.52672 60.6316 4.32359 60.6316H3.39781L3.40562 60.0261H4.65562L4.81578 60.2448C5.05016 60.2683 5.24677 60.3464 5.40562 60.4792C5.56708 60.6094 5.68818 60.7761 5.76891 60.9792C5.85224 61.1823 5.89391 61.4063 5.89391 61.6511C5.89391 62.0053 5.8275 62.3047 5.69469 62.5495C5.56448 62.7917 5.37958 62.9766 5.14 63.1042C4.90042 63.2292 4.61917 63.2917 4.29625 63.2917ZM9.42469 62.5691V60.2761C9.42469 60.1094 9.39865 59.9753 9.34656 59.8737C9.29708 59.7722 9.22156 59.698 9.12 59.6511C9.02104 59.6042 8.89604 59.5808 8.745 59.5808C8.59917 59.5808 8.47286 59.6107 8.36609 59.6706C8.26193 59.7305 8.1812 59.8099 8.12391 59.9089C8.06922 60.0079 8.04187 60.1172 8.04187 60.237H7.35047C7.35047 60.086 7.38302 59.9362 7.44812 59.7878C7.51583 59.6394 7.61219 59.5053 7.73719 59.3855C7.86219 59.2631 8.01193 59.1667 8.18641 59.0964C8.36349 59.0235 8.56141 58.987 8.78016 58.987C9.04057 58.987 9.27104 59.03 9.47156 59.1159C9.67208 59.1993 9.82963 59.336 9.94422 59.5261C10.0588 59.7162 10.1161 59.9688 10.1161 60.2839V62.3698C10.1161 62.5105 10.1265 62.6602 10.1473 62.8191C10.1708 62.9779 10.2033 63.1146 10.245 63.2292V63.2917H9.53016C9.4963 63.2084 9.47026 63.0977 9.45203 62.9597C9.4338 62.8191 9.42469 62.6889 9.42469 62.5691ZM9.53406 60.7292L9.54187 61.237H9.06141C8.89734 61.237 8.7476 61.2553 8.61219 61.2917C8.47937 61.3282 8.36479 61.3816 8.26844 61.4519C8.17208 61.5196 8.09786 61.6042 8.04578 61.7058C7.9963 61.8073 7.97156 61.9232 7.97156 62.0534C7.97156 62.2227 7.995 62.3581 8.04187 62.4597C8.08875 62.5586 8.15906 62.6303 8.25281 62.6745C8.34656 62.7188 8.46505 62.7409 8.60828 62.7409C8.78276 62.7409 8.93641 62.7006 9.06922 62.6198C9.20203 62.5391 9.3049 62.4415 9.37781 62.3269C9.45333 62.2123 9.48849 62.1055 9.48328 62.0066L9.63562 62.3308C9.62521 62.4323 9.59135 62.543 9.53406 62.6628C9.47937 62.78 9.40255 62.8933 9.30359 63.0027C9.20463 63.1094 9.08745 63.198 8.95203 63.2683C8.81922 63.336 8.66948 63.3698 8.50281 63.3698C8.25802 63.3698 8.04318 63.323 7.85828 63.2292C7.67599 63.1355 7.53406 62.9974 7.4325 62.8152C7.33094 62.6329 7.28016 62.4076 7.28016 62.1394C7.28016 61.9362 7.31531 61.7487 7.38562 61.5769C7.45594 61.405 7.5601 61.2566 7.69812 61.1316C7.83615 61.004 8.00932 60.905 8.21766 60.8347C8.42859 60.7644 8.67208 60.7292 8.94812 60.7292H9.53406ZM12.5883 62.8542L13.5297 59.0652H14.2641L12.8695 63.9441C12.8357 64.0482 12.7901 64.1602 12.7328 64.28C12.6781 64.4024 12.6078 64.5183 12.5219 64.6277C12.4359 64.737 12.3331 64.8256 12.2133 64.8933C12.0935 64.9636 11.9529 64.9987 11.7914 64.9987C11.7419 64.9987 11.6781 64.9909 11.6 64.9753C11.5245 64.9597 11.4698 64.9467 11.4359 64.9362V64.3503C11.4516 64.3529 11.4763 64.3555 11.5102 64.3581C11.544 64.3633 11.5687 64.3659 11.5844 64.3659C11.7198 64.3659 11.8344 64.3438 11.9281 64.2995C12.0245 64.2579 12.1065 64.1862 12.1742 64.0847C12.2419 63.9857 12.2992 63.849 12.3461 63.6745L12.5883 62.8542ZM11.9789 59.0652L12.8187 62.3464L12.9984 63.1081L12.5062 63.3737L11.225 59.0652H11.9789ZM17.4316 62.5691V60.2761C17.4316 60.1094 17.4055 59.9753 17.3534 59.8737C17.304 59.7722 17.2284 59.698 17.1269 59.6511C17.0279 59.6042 16.9029 59.5808 16.7519 59.5808C16.606 59.5808 16.4797 59.6107 16.373 59.6706C16.2688 59.7305 16.1881 59.8099 16.1308 59.9089C16.0761 60.0079 16.0487 60.1172 16.0487 60.237H15.3573C15.3573 60.086 15.3899 59.9362 15.455 59.7878C15.5227 59.6394 15.6191 59.5053 15.7441 59.3855C15.8691 59.2631 16.0188 59.1667 16.1933 59.0964C16.3704 59.0235 16.5683 58.987 16.787 58.987C17.0474 58.987 17.2779 59.03 17.4784 59.1159C17.679 59.1993 17.8365 59.336 17.9511 59.5261C18.0657 59.7162 18.123 59.9688 18.123 60.2839V62.3698C18.123 62.5105 18.1334 62.6602 18.1542 62.8191C18.1777 62.9779 18.2102 63.1146 18.2519 63.2292V63.2917H17.537C17.5032 63.2084 17.4771 63.0977 17.4589 62.9597C17.4407 62.8191 17.4316 62.6889 17.4316 62.5691ZM17.5409 60.7292L17.5487 61.237H17.0683C16.9042 61.237 16.7545 61.2553 16.6191 61.2917C16.4862 61.3282 16.3717 61.3816 16.2753 61.4519C16.179 61.5196 16.1047 61.6042 16.0527 61.7058C16.0032 61.8073 15.9784 61.9232 15.9784 62.0534C15.9784 62.2227 16.0019 62.3581 16.0487 62.4597C16.0956 62.5586 16.1659 62.6303 16.2597 62.6745C16.3534 62.7188 16.4719 62.7409 16.6152 62.7409C16.7896 62.7409 16.9433 62.7006 17.0761 62.6198C17.2089 62.5391 17.3118 62.4415 17.3847 62.3269C17.4602 62.2123 17.4954 62.1055 17.4902 62.0066L17.6425 62.3308C17.6321 62.4323 17.5982 62.543 17.5409 62.6628C17.4862 62.78 17.4094 62.8933 17.3105 63.0027C17.2115 63.1094 17.0943 63.198 16.9589 63.2683C16.8261 63.336 16.6764 63.3698 16.5097 63.3698C16.2649 63.3698 16.0501 63.323 15.8652 63.2292C15.6829 63.1355 15.5409 62.9974 15.4394 62.8152C15.3378 62.6329 15.287 62.4076 15.287 62.1394C15.287 61.9362 15.3222 61.7487 15.3925 61.5769C15.4628 61.405 15.567 61.2566 15.705 61.1316C15.843 61.004 16.0162 60.905 16.2245 60.8347C16.4355 60.7644 16.679 60.7292 16.955 60.7292H17.5409ZM20.3686 59.7292V63.2917H19.6772V59.0652H20.3452L20.3686 59.7292ZM21.4194 59.0417L21.4233 59.7136C21.366 59.7006 21.3139 59.6928 21.267 59.6902C21.2228 59.6849 21.1707 59.6823 21.1108 59.6823C20.9806 59.6823 20.866 59.7084 20.767 59.7605C20.6707 59.8126 20.5873 59.8855 20.517 59.9792C20.4467 60.073 20.3907 60.1849 20.3491 60.3152C20.3074 60.4428 20.2787 60.5834 20.2631 60.737L20.0834 60.8542C20.0834 60.599 20.103 60.3594 20.142 60.1355C20.1837 59.9115 20.2475 59.7136 20.3334 59.5417C20.4194 59.3672 20.5287 59.2318 20.6616 59.1355C20.797 59.0365 20.9584 58.987 21.1459 58.987C21.1876 58.987 21.2384 58.9935 21.2983 59.0066C21.3608 59.017 21.4011 59.0287 21.4194 59.0417ZM26.2934 63.2917H25.3247L25.3325 62.6784H26.2934C26.6346 62.6784 26.9119 62.6133 27.1255 62.4831C27.339 62.3503 27.4966 62.155 27.5981 61.8972C27.6997 61.6368 27.7505 61.3152 27.7505 60.9323V59.9597C27.7505 59.6576 27.7218 59.3972 27.6645 59.1784C27.6072 58.9597 27.5213 58.78 27.4067 58.6394C27.2921 58.4987 27.1476 58.3946 26.9731 58.3269C26.7986 58.2566 26.5942 58.2214 26.3598 58.2214H25.3052V57.6042H26.3598C26.6802 57.6042 26.9692 57.655 27.227 57.7566C27.4848 57.8555 27.7062 58.0053 27.8911 58.2058C28.076 58.4037 28.2166 58.6498 28.313 58.9441C28.4119 59.2383 28.4614 59.5795 28.4614 59.9675V60.9323C28.4614 61.3204 28.4119 61.6615 28.313 61.9558C28.2166 62.2501 28.0747 62.4961 27.8872 62.6941C27.6997 62.892 27.4718 63.0417 27.2036 63.1433C26.938 63.2422 26.6346 63.2917 26.2934 63.2917ZM25.7231 57.6042V63.2917H25.0044V57.6042H25.7231ZM30.7031 59.0652V63.2917H30.0156V59.0652H30.7031ZM29.9766 57.9441C29.9766 57.8269 30.0091 57.7279 30.0742 57.6472C30.1393 57.5665 30.237 57.5261 30.3672 57.5261C30.4974 57.5261 30.5951 57.5665 30.6602 57.6472C30.7279 57.7279 30.7617 57.8269 30.7617 57.9441C30.7617 58.056 30.7279 58.1524 30.6602 58.2331C30.5951 58.3112 30.4974 58.3503 30.3672 58.3503C30.237 58.3503 30.1393 58.3112 30.0742 58.2331C30.0091 58.1524 29.9766 58.056 29.9766 57.9441ZM36.3584 57.6042V63.2917H35.6475V57.6042H36.3584ZM37.8545 57.6042V58.2214H34.1553V57.6042H37.8545ZM40.2017 63.3698C39.9491 63.3698 39.7212 63.3321 39.5181 63.2566C39.315 63.181 39.1418 63.0665 38.9986 62.9128C38.8554 62.7566 38.746 62.5599 38.6705 62.323C38.5949 62.086 38.5572 61.806 38.5572 61.4831V61.0066C38.5572 60.6342 38.6002 60.3191 38.6861 60.0612C38.7746 59.8034 38.8931 59.5964 39.0416 59.4402C39.19 59.2813 39.358 59.1667 39.5455 59.0964C39.733 59.0235 39.9257 58.987 40.1236 58.987C40.3892 58.987 40.6158 59.03 40.8033 59.1159C40.9908 59.2019 41.1431 59.3295 41.2603 59.4987C41.3775 59.668 41.4634 59.8764 41.5181 60.1237C41.5754 60.3711 41.6041 60.6563 41.6041 60.9792V61.3816H38.9634V60.7917H40.9127V60.6941C40.9022 60.4753 40.8723 60.2826 40.8228 60.1159C40.7759 59.9493 40.6978 59.8191 40.5884 59.7253C40.4791 59.629 40.3241 59.5808 40.1236 59.5808C39.996 59.5808 39.8775 59.6029 39.7681 59.6472C39.6614 59.6889 39.5689 59.7631 39.4908 59.8698C39.4153 59.974 39.3554 60.1185 39.3111 60.3034C39.2694 60.4883 39.2486 60.7227 39.2486 61.0066V61.4831C39.2486 61.7097 39.2694 61.905 39.3111 62.0691C39.3554 62.2305 39.4192 62.3646 39.5025 62.4714C39.5884 62.5756 39.6926 62.6537 39.815 62.7058C39.94 62.7553 40.0819 62.78 40.2408 62.78C40.4726 62.78 40.664 62.7357 40.815 62.6472C40.966 62.556 41.0976 62.4402 41.2095 62.2995L41.5728 62.7331C41.4973 62.8399 41.3983 62.9428 41.2759 63.0417C41.1561 63.1381 41.0077 63.2175 40.8306 63.28C40.6561 63.3399 40.4465 63.3698 40.2017 63.3698ZM43.6114 59.905V63.2917H42.9239V59.0652H43.5723L43.6114 59.905ZM43.4708 61.0183L43.1505 61.0066C43.1479 60.7175 43.1765 60.4506 43.2364 60.2058C43.2963 59.9584 43.3861 59.7435 43.5059 59.5612C43.6283 59.379 43.7807 59.2383 43.963 59.1394C44.1479 59.0378 44.3627 58.987 44.6075 58.987C44.769 58.987 44.9187 59.0157 45.0567 59.073C45.1973 59.1277 45.3197 59.2149 45.4239 59.3347C45.5281 59.4545 45.6088 59.6081 45.6661 59.7956C45.726 59.9831 45.7559 60.2097 45.7559 60.4753V63.2917H45.0645V60.5105C45.0645 60.2891 45.0346 60.112 44.9747 59.9792C44.9174 59.8464 44.8354 59.7501 44.7286 59.6902C44.6218 59.6277 44.4942 59.5964 44.3458 59.5964C44.1765 59.5964 44.0346 59.6342 43.92 59.7097C43.808 59.7852 43.7182 59.8894 43.6505 60.0222C43.5854 60.155 43.5385 60.3073 43.5098 60.4792C43.4838 60.6485 43.4708 60.8282 43.4708 61.0183ZM45.7481 60.6198L45.2872 60.7683C45.2846 60.5365 45.3132 60.3139 45.3731 60.1003C45.433 59.8868 45.5216 59.6967 45.6387 59.53C45.7585 59.3633 45.907 59.2318 46.0841 59.1355C46.2611 59.0365 46.4669 58.987 46.7012 58.987C46.894 58.987 47.0645 59.017 47.213 59.0769C47.3614 59.1368 47.4864 59.2292 47.588 59.3542C47.6921 59.4766 47.7703 59.6342 47.8223 59.8269C47.8744 60.0196 47.9005 60.2487 47.9005 60.5144V63.2917H47.2091V60.5066C47.2091 60.2696 47.1791 60.086 47.1192 59.9558C47.0619 59.823 46.9799 59.7305 46.8731 59.6784C46.7664 59.6237 46.6387 59.5964 46.4903 59.5964C46.3705 59.5964 46.2637 59.6237 46.17 59.6784C46.0789 59.7331 46.002 59.8086 45.9395 59.905C45.877 59.9987 45.8289 60.1068 45.795 60.2292C45.7637 60.3516 45.7481 60.4818 45.7481 60.6198ZM50.1148 59.8777V64.9167H49.4234V59.0652H50.0523L50.1148 59.8777ZM52.4781 60.987V61.3816C52.4781 61.7149 52.4469 62.0066 52.3844 62.2566C52.3245 62.504 52.2346 62.711 52.1148 62.8777C51.9977 63.0417 51.8531 63.1654 51.6812 63.2487C51.5094 63.3295 51.3128 63.3698 51.0914 63.3698C50.87 63.3698 50.6773 63.3282 50.5133 63.2448C50.3518 63.1589 50.2151 63.0352 50.1031 62.8737C49.9937 62.7123 49.9065 62.5183 49.8414 62.2917C49.7789 62.0626 49.7359 61.806 49.7125 61.5222V60.9206C49.7359 60.6211 49.7789 60.3529 49.8414 60.1159C49.9039 59.8764 49.9898 59.6732 50.0992 59.5066C50.2112 59.3373 50.3479 59.2084 50.5094 59.1198C50.6734 59.0313 50.8648 58.987 51.0836 58.987C51.3102 58.987 51.5094 59.0261 51.6812 59.1042C51.8557 59.1823 52.0016 59.3034 52.1187 59.4675C52.2385 59.629 52.3284 59.836 52.3883 60.0886C52.4482 60.3386 52.4781 60.6381 52.4781 60.987ZM51.7867 61.3816V60.987C51.7867 60.7527 51.7685 60.5482 51.732 60.3737C51.6982 60.1993 51.6435 60.0547 51.568 59.9402C51.4924 59.8256 51.3974 59.7396 51.2828 59.6823C51.1682 59.6251 51.0302 59.5964 50.8687 59.5964C50.7307 59.5964 50.6083 59.6251 50.5016 59.6823C50.3974 59.7396 50.3075 59.8178 50.232 59.9167C50.1565 60.0131 50.094 60.1237 50.0445 60.2487C49.995 60.3711 49.9586 60.4987 49.9352 60.6316V61.8152C49.9794 61.9818 50.038 62.1394 50.1109 62.2878C50.1839 62.4336 50.2815 62.5521 50.4039 62.6433C50.5289 62.7344 50.6865 62.78 50.8766 62.78C51.0354 62.78 51.1721 62.7514 51.2867 62.6941C51.4013 62.6368 51.495 62.5508 51.568 62.4362C51.6435 62.3191 51.6982 62.1732 51.732 61.9987C51.7685 61.8217 51.7867 61.6159 51.7867 61.3816ZM55.9191 62.5691V60.2761C55.9191 60.1094 55.893 59.9753 55.8409 59.8737C55.7915 59.7722 55.7159 59.698 55.6144 59.6511C55.5154 59.6042 55.3904 59.5808 55.2394 59.5808C55.0935 59.5808 54.9672 59.6107 54.8605 59.6706C54.7563 59.7305 54.6756 59.8099 54.6183 59.9089C54.5636 60.0079 54.5363 60.1172 54.5363 60.237H53.8448C53.8448 60.086 53.8774 59.9362 53.9425 59.7878C54.0102 59.6394 54.1066 59.5053 54.2316 59.3855C54.3566 59.2631 54.5063 59.1667 54.6808 59.0964C54.8579 59.0235 55.0558 58.987 55.2745 58.987C55.5349 58.987 55.7654 59.03 55.9659 59.1159C56.1665 59.1993 56.324 59.336 56.4386 59.5261C56.5532 59.7162 56.6105 59.9688 56.6105 60.2839V62.3698C56.6105 62.5105 56.6209 62.6602 56.6417 62.8191C56.6652 62.9779 56.6977 63.1146 56.7394 63.2292V63.2917H56.0245C55.9907 63.2084 55.9646 63.0977 55.9464 62.9597C55.9282 62.8191 55.9191 62.6889 55.9191 62.5691ZM56.0284 60.7292L56.0363 61.237H55.5558C55.3917 61.237 55.242 61.2553 55.1066 61.2917C54.9738 61.3282 54.8592 61.3816 54.7628 61.4519C54.6665 61.5196 54.5922 61.6042 54.5402 61.7058C54.4907 61.8073 54.4659 61.9232 54.4659 62.0534C54.4659 62.2227 54.4894 62.3581 54.5363 62.4597C54.5831 62.5586 54.6534 62.6303 54.7472 62.6745C54.8409 62.7188 54.9594 62.7409 55.1027 62.7409C55.2771 62.7409 55.4308 62.7006 55.5636 62.6198C55.6964 62.5391 55.7993 62.4415 55.8722 62.3269C55.9477 62.2123 55.9829 62.1055 55.9777 62.0066L56.13 62.3308C56.1196 62.4323 56.0857 62.543 56.0284 62.6628C55.9738 62.78 55.8969 62.8933 55.798 63.0027C55.699 63.1094 55.5818 63.198 55.4464 63.2683C55.3136 63.336 55.1639 63.3698 54.9972 63.3698C54.7524 63.3698 54.5376 63.323 54.3527 63.2292C54.1704 63.1355 54.0284 62.9974 53.9269 62.8152C53.8253 62.6329 53.7745 62.4076 53.7745 62.1394C53.7745 61.9362 53.8097 61.7487 53.88 61.5769C53.9503 61.405 54.0545 61.2566 54.1925 61.1316C54.3305 61.004 54.5037 60.905 54.712 60.8347C54.923 60.7644 55.1665 60.7292 55.4425 60.7292H56.0284ZM59.7077 59.0652V59.6198H57.735V59.0652H59.7077ZM58.3795 58.0378H59.0709V62.2448C59.0709 62.3881 59.0879 62.4961 59.1217 62.5691C59.1582 62.642 59.2038 62.6902 59.2584 62.7136C59.3131 62.737 59.3717 62.7487 59.4342 62.7487C59.4811 62.7487 59.5332 62.7435 59.5905 62.7331C59.6478 62.7201 59.6868 62.7097 59.7077 62.7019L59.7038 63.2917C59.6569 63.3099 59.5944 63.3269 59.5163 63.3425C59.4381 63.3607 59.3392 63.3698 59.2194 63.3698C59.0709 63.3698 58.9329 63.3347 58.8053 63.2644C58.6777 63.1941 58.5748 63.0769 58.4967 62.9128C58.4186 62.7461 58.3795 62.5222 58.3795 62.2409V58.0378Z" fill="black"/>
</svg>
