<svg width="20" height="20" viewBox="0 0 20 20" fill="none" xmlns="http://www.w3.org/2000/svg">
<path d="M16.8206 2.68701C15.8406 1.773 14.6869 1.06529 13.428 0.605909C12.1691 0.146532 10.8307 -0.0551335 9.49237 0.0128926C8.15402 0.0809187 6.84299 0.417249 5.63718 1.0019C4.43136 1.58656 3.35535 2.4076 2.47308 3.41627L5.21377 5.81352C5.77479 5.17213 6.459 4.65004 7.22576 4.27827C7.99252 3.9065 8.82617 3.69263 9.67721 3.64938C10.5282 3.60612 11.3793 3.73436 12.1798 4.02647C12.9803 4.31857 13.7139 4.7686 14.3371 5.3498L16.8206 2.68701Z" fill="#E13B2B"/>
<path d="M0.515878 13.1704C1.01814 14.6729 1.87019 16.0346 3.00184 17.1432C4.13348 18.2519 5.51234 19.0758 7.02483 19.5472C8.53731 20.0185 10.1401 20.1237 11.7013 19.8542C13.2624 19.5847 14.7372 18.9481 16.004 17.997L13.8272 15.0976C13.0197 15.7039 12.0796 16.1097 11.0845 16.2815C10.0893 16.4533 9.06762 16.3862 8.1035 16.0857C7.13939 15.7853 6.26045 15.2601 5.53909 14.5534C4.81773 13.8467 4.2746 12.9787 3.95444 12.0209L0.515878 13.1704Z" fill="#35A956"/>
<path d="M2.46526 3.42522C1.29863 4.76218 0.508749 6.38549 0.176678 8.12855C-0.155394 9.8716 -0.0176934 11.6716 0.575647 13.3439L4.02997 12.1182C3.65411 11.0589 3.56688 9.91866 3.77724 8.81449C3.9876 7.71033 4.48796 6.68201 5.22699 5.83509L2.46526 3.42522Z" fill="#FDB803"/>
<path d="M15.936 18.0476C17.1936 17.12 18.2163 15.9105 18.9221 14.5163C19.6278 13.122 19.997 11.5818 20 10.0191L16.3678 10.0121C16.3659 11.0072 16.1308 11.988 15.6814 12.8759C15.232 13.7637 14.5808 14.5339 13.78 15.1246L15.936 18.0476Z" fill="#4188F0"/>
<path d="M11.1112 7.22222H20.0001V10.0311L11.1112 10V7.22222Z" fill="#4188F0"/>
</svg>
