<svg width="62" height="70" viewBox="0 0 62 70" fill="none" xmlns="http://www.w3.org/2000/svg">
<rect x="5.5" y="0.590279" width="47" height="50.1945" rx="10.5" stroke="#C4C4C4" stroke-linejoin="round"/>
<rect x="15" y="14.507" width="29" height="21.243" fill="#E39F10"/>
<path d="M44 15.625C43.4696 15.625 42.9609 15.9195 42.5858 16.4437C42.2107 16.9679 42 17.6788 42 18.4201C42 19.1615 42.2107 19.8724 42.5858 20.3966C42.9609 20.9208 43.4696 21.2153 44 21.2153L44 18.4201V15.625Z" fill="white"/>
<path d="M44 22.3333C43.4696 22.3333 42.9609 22.6278 42.5858 23.152C42.2107 23.6762 42 24.3872 42 25.1285C42 25.8698 42.2107 26.5807 42.5858 27.1049C42.9609 27.6291 43.4696 27.9236 44 27.9236L44 25.1285V22.3333Z" fill="white"/>
<path d="M44 29.0417C43.4696 29.0417 42.9609 29.3362 42.5858 29.8603C42.2107 30.3845 42 31.0955 42 31.8368C42 32.5781 42.2107 33.2891 42.5858 33.8133C42.9609 34.3375 43.4696 34.632 44 34.632L44 31.8368V29.0417Z" fill="white"/>
<rect x="20" y="15.625" width="19" height="17.8889" fill="white"/>
<path d="M21.5676 19.6719H25.2795C26.0406 19.6719 26.6945 19.7858 27.2414 20.0137C27.7928 20.2415 28.2167 20.5788 28.5129 21.0254C28.8091 21.472 28.9572 22.0212 28.9572 22.6729C28.9572 23.2061 28.8661 23.6641 28.6838 24.0469C28.5061 24.4251 28.2531 24.7419 27.925 24.9971C27.6014 25.2477 27.2209 25.4482 26.7834 25.5986L26.134 25.9404H22.9074L22.8938 24.3408H25.2932C25.6532 24.3408 25.9517 24.277 26.1887 24.1494C26.4257 24.0218 26.6034 23.8441 26.7219 23.6162C26.8449 23.3883 26.9064 23.124 26.9064 22.8232C26.9064 22.5042 26.8472 22.2285 26.7287 21.9961C26.6102 21.7637 26.4302 21.5859 26.1887 21.4629C25.9471 21.3398 25.6441 21.2783 25.2795 21.2783H23.6184V29.625H21.5676V19.6719ZM27.132 29.625L24.8625 25.1885L27.0295 25.1748L29.3264 29.5293V29.625H27.132ZM34.0623 26.0771H31.5262V24.4775H34.0623C34.4542 24.4775 34.7732 24.4137 35.0193 24.2861C35.2654 24.154 35.4454 23.9717 35.5594 23.7393C35.6733 23.5068 35.7303 23.2448 35.7303 22.9531C35.7303 22.6569 35.6733 22.3812 35.5594 22.126C35.4454 21.8708 35.2654 21.6657 35.0193 21.5107C34.7732 21.3558 34.4542 21.2783 34.0623 21.2783H32.2371V29.625H30.1863V19.6719H34.0623C34.8416 19.6719 35.5092 19.8132 36.0652 20.0957C36.6258 20.3737 37.0542 20.7588 37.3504 21.251C37.6466 21.7432 37.7947 22.306 37.7947 22.9395C37.7947 23.582 37.6466 24.138 37.3504 24.6074C37.0542 25.0768 36.6258 25.4391 36.0652 25.6943C35.5092 25.9495 34.8416 26.0771 34.0623 26.0771Z" fill="#E39F10"/>
<path d="M8.19859 55.4597V57.5808C8.13609 57.6641 8.04104 57.7683 7.91344 57.8933C7.78844 58.0183 7.61266 58.129 7.38609 58.2253C7.15953 58.3217 6.86266 58.3698 6.49547 58.3698C6.2012 58.3698 5.93167 58.3204 5.68687 58.2214C5.44469 58.1224 5.23505 57.974 5.05797 57.7761C4.88349 57.5756 4.74807 57.3269 4.65172 57.03C4.55536 56.7305 4.50719 56.3803 4.50719 55.9792V54.9128C4.50719 54.5144 4.54755 54.1654 4.62828 53.8659C4.70901 53.5665 4.8288 53.3178 4.98766 53.1198C5.14911 52.9219 5.34833 52.7735 5.58531 52.6745C5.8249 52.5756 6.10354 52.5261 6.42125 52.5261C6.78844 52.5261 7.10094 52.5951 7.35875 52.7331C7.61656 52.8711 7.81578 53.0704 7.95641 53.3308C8.09963 53.5912 8.18036 53.9037 8.19859 54.2683H7.47984C7.46161 54.0339 7.41213 53.8334 7.33141 53.6667C7.25068 53.4974 7.13609 53.3685 6.98766 53.28C6.83922 53.1889 6.65042 53.1433 6.42125 53.1433C6.2025 53.1433 6.0176 53.1797 5.86656 53.2527C5.71552 53.3256 5.59182 53.4349 5.49547 53.5808C5.40172 53.7266 5.33271 53.9102 5.28844 54.1316C5.24677 54.3529 5.22594 54.6107 5.22594 54.905V55.9792C5.22594 56.2813 5.25588 56.5443 5.31578 56.7683C5.37568 56.9922 5.46031 57.1771 5.56969 57.323C5.68167 57.4688 5.81578 57.5782 5.97203 57.6511C6.12828 57.7214 6.30406 57.7566 6.49937 57.7566C6.72073 57.7566 6.89521 57.7331 7.02281 57.6862C7.15042 57.6394 7.24807 57.586 7.31578 57.5261C7.38609 57.4662 7.44208 57.418 7.48375 57.3816V56.0691H6.44078V55.4597H8.19859ZM10.4403 54.7292V58.2917H9.74891V54.0652H10.4169L10.4403 54.7292ZM11.4911 54.0417L11.495 54.7136C11.4377 54.7006 11.3856 54.6928 11.3387 54.6902C11.2945 54.6849 11.2424 54.6823 11.1825 54.6823C11.0523 54.6823 10.9377 54.7084 10.8387 54.7605C10.7424 54.8126 10.6591 54.8855 10.5887 54.9792C10.5184 55.073 10.4624 55.1849 10.4208 55.3152C10.3791 55.4428 10.3505 55.5834 10.3348 55.737L10.1552 55.8542C10.1552 55.599 10.1747 55.3594 10.2137 55.1355C10.2554 54.9115 10.3192 54.7136 10.4052 54.5417C10.4911 54.3672 10.6005 54.2318 10.7333 54.1355C10.8687 54.0365 11.0302 53.987 11.2177 53.987C11.2593 53.987 11.3101 53.9935 11.37 54.0066C11.4325 54.017 11.4729 54.0287 11.4911 54.0417ZM14.5805 57.5691V55.2761C14.5805 55.1094 14.5544 54.9753 14.5023 54.8737C14.4529 54.7722 14.3773 54.698 14.2758 54.6511C14.1768 54.6042 14.0518 54.5808 13.9008 54.5808C13.7549 54.5808 13.6286 54.6107 13.5219 54.6706C13.4177 54.7305 13.337 54.8099 13.2797 54.9089C13.225 55.0079 13.1977 55.1172 13.1977 55.237H12.5062C12.5062 55.086 12.5388 54.9362 12.6039 54.7878C12.6716 54.6394 12.768 54.5053 12.893 54.3855C13.018 54.2631 13.1677 54.1667 13.3422 54.0964C13.5193 54.0235 13.7172 53.987 13.9359 53.987C14.1964 53.987 14.4268 54.03 14.6273 54.1159C14.8279 54.1993 14.9854 54.336 15.1 54.5261C15.2146 54.7162 15.2719 54.9688 15.2719 55.2839V57.3698C15.2719 57.5105 15.2823 57.6602 15.3031 57.8191C15.3266 57.9779 15.3591 58.1146 15.4008 58.2292V58.2917H14.6859C14.6521 58.2084 14.626 58.0977 14.6078 57.9597C14.5896 57.8191 14.5805 57.6889 14.5805 57.5691ZM14.6898 55.7292L14.6977 56.237H14.2172C14.0531 56.237 13.9034 56.2553 13.768 56.2917C13.6352 56.3282 13.5206 56.3816 13.4242 56.4519C13.3279 56.5196 13.2536 56.6042 13.2016 56.7058C13.1521 56.8073 13.1273 56.9232 13.1273 57.0534C13.1273 57.2227 13.1508 57.3581 13.1977 57.4597C13.2445 57.5586 13.3148 57.6303 13.4086 57.6745C13.5023 57.7188 13.6208 57.7409 13.7641 57.7409C13.9385 57.7409 14.0922 57.7006 14.225 57.6198C14.3578 57.5391 14.4607 57.4415 14.5336 57.3269C14.6091 57.2123 14.6443 57.1055 14.6391 57.0066L14.7914 57.3308C14.781 57.4323 14.7471 57.543 14.6898 57.6628C14.6352 57.78 14.5583 57.8933 14.4594 58.0027C14.3604 58.1094 14.2432 58.198 14.1078 58.2683C13.975 58.336 13.8253 58.3698 13.6586 58.3698C13.4138 58.3698 13.199 58.323 13.0141 58.2292C12.8318 58.1355 12.6898 57.9974 12.5883 57.8152C12.4867 57.6329 12.4359 57.4076 12.4359 57.1394C12.4359 56.9362 12.4711 56.7487 12.5414 56.5769C12.6117 56.405 12.7159 56.2566 12.8539 56.1316C12.9919 56.004 13.1651 55.905 13.3734 55.8347C13.5844 55.7644 13.8279 55.7292 14.1039 55.7292H14.6898ZM18.3691 54.0652V54.6198H16.3964V54.0652H18.3691ZM17.0409 53.0378H17.7323V57.2448C17.7323 57.3881 17.7493 57.4961 17.7831 57.5691C17.8196 57.642 17.8652 57.6902 17.9198 57.7136C17.9745 57.737 18.0331 57.7487 18.0956 57.7487C18.1425 57.7487 18.1946 57.7435 18.2519 57.7331C18.3092 57.7201 18.3482 57.7097 18.3691 57.7019L18.3652 58.2917C18.3183 58.3099 18.2558 58.3269 18.1777 58.3425C18.0995 58.3607 18.0006 58.3698 17.8808 58.3698C17.7323 58.3698 17.5943 58.3347 17.4667 58.2644C17.3391 58.1941 17.2362 58.0769 17.1581 57.9128C17.08 57.7461 17.0409 57.5222 17.0409 57.2409V53.0378ZM20.4155 54.0652V58.2917H19.728V54.0652H20.4155ZM19.6889 52.9441C19.6889 52.8269 19.7215 52.7279 19.7866 52.6472C19.8517 52.5665 19.9493 52.5261 20.0795 52.5261C20.2097 52.5261 20.3074 52.5665 20.3725 52.6472C20.4402 52.7279 20.4741 52.8269 20.4741 52.9441C20.4741 53.056 20.4402 53.1524 20.3725 53.2331C20.3074 53.3112 20.2097 53.3503 20.0795 53.3503C19.9493 53.3503 19.8517 53.3112 19.7866 53.2331C19.7215 53.1524 19.6889 53.056 19.6889 52.9441ZM24.04 57.2097C24.04 57.1029 24.014 57.0092 23.9619 56.9284C23.9098 56.8477 23.8239 56.7696 23.7041 56.6941C23.5869 56.6185 23.428 56.5378 23.2275 56.4519C23.0322 56.3711 22.8564 56.2917 22.7002 56.2136C22.5465 56.1329 22.4163 56.0456 22.3095 55.9519C22.2028 55.8581 22.1207 55.7501 22.0634 55.6277C22.0087 55.5027 21.9814 55.3555 21.9814 55.1862C21.9814 55.017 22.0127 54.8607 22.0752 54.7175C22.1403 54.5717 22.2314 54.4441 22.3486 54.3347C22.4658 54.2253 22.6064 54.1407 22.7705 54.0808C22.9345 54.0183 23.1181 53.987 23.3212 53.987C23.6103 53.987 23.8564 54.043 24.0595 54.155C24.2627 54.267 24.4176 54.4206 24.5244 54.6159C24.6337 54.8086 24.6884 55.0261 24.6884 55.2683H24.0009C24.0009 55.1511 23.9749 55.0404 23.9228 54.9362C23.8707 54.8321 23.7939 54.7474 23.6923 54.6823C23.5908 54.6146 23.4671 54.5808 23.3212 54.5808C23.1676 54.5808 23.0426 54.6081 22.9462 54.6628C22.8499 54.7175 22.7796 54.7891 22.7353 54.8777C22.6936 54.9636 22.6728 55.0586 22.6728 55.1628C22.6728 55.2409 22.6832 55.3086 22.7041 55.3659C22.7275 55.4206 22.7666 55.4727 22.8212 55.5222C22.8759 55.5691 22.9502 55.6185 23.0439 55.6706C23.1403 55.7201 23.2627 55.7774 23.4111 55.8425C23.6976 55.9545 23.9384 56.0678 24.1337 56.1823C24.3291 56.2969 24.4775 56.431 24.5791 56.5847C24.6806 56.7383 24.7314 56.9284 24.7314 57.155C24.7314 57.3399 24.6976 57.5079 24.6298 57.6589C24.5647 57.8073 24.471 57.9349 24.3486 58.0417C24.2262 58.1485 24.0791 58.2305 23.9072 58.2878C23.7379 58.3425 23.5478 58.3698 23.3369 58.3698C23.0192 58.3698 22.7496 58.3073 22.5283 58.1823C22.3095 58.0547 22.1429 57.8894 22.0283 57.6862C21.9163 57.4805 21.8603 57.2605 21.8603 57.0261H22.5517C22.5595 57.224 22.6038 57.3777 22.6845 57.487C22.7679 57.5964 22.8681 57.6719 22.9853 57.7136C23.1025 57.7553 23.2197 57.7761 23.3369 57.7761C23.4905 57.7761 23.6194 57.754 23.7236 57.7097C23.8278 57.6628 23.9059 57.5964 23.958 57.5105C24.0127 57.4245 24.04 57.3243 24.04 57.2097ZM32.2266 54.9558V55.9441C32.2266 56.3451 32.1823 56.698 32.0938 57.0027C32.0078 57.3047 31.8815 57.5573 31.7148 57.7605C31.5482 57.9636 31.3477 58.1159 31.1133 58.2175C30.8789 58.3191 30.6146 58.3698 30.3203 58.3698C30.0365 58.3698 29.7773 58.3191 29.543 58.2175C29.3086 58.1159 29.1068 57.9636 28.9375 57.7605C28.7682 57.5573 28.6367 57.3047 28.543 57.0027C28.4518 56.698 28.4062 56.3451 28.4062 55.9441V54.9558C28.4062 54.5547 28.4518 54.2032 28.543 53.9011C28.6341 53.5964 28.7643 53.3425 28.9336 53.1394C29.1029 52.9362 29.3047 52.7839 29.5391 52.6823C29.7734 52.5782 30.0326 52.5261 30.3164 52.5261C30.6107 52.5261 30.875 52.5782 31.1094 52.6823C31.3464 52.7839 31.5469 52.9362 31.7109 53.1394C31.8776 53.3425 32.0052 53.5964 32.0938 53.9011C32.1823 54.2032 32.2266 54.5547 32.2266 54.9558ZM31.5156 55.9441V54.948C31.5156 54.6355 31.4896 54.3672 31.4375 54.1433C31.3854 53.9167 31.3086 53.7318 31.207 53.5886C31.1055 53.4454 30.9805 53.3399 30.832 53.2722C30.6836 53.2019 30.5117 53.1667 30.3164 53.1667C30.1315 53.1667 29.9648 53.2019 29.8164 53.2722C29.6706 53.3399 29.5456 53.4454 29.4414 53.5886C29.3372 53.7318 29.2565 53.9167 29.1992 54.1433C29.1445 54.3672 29.1172 54.6355 29.1172 54.948V55.9441C29.1172 56.2592 29.1445 56.53 29.1992 56.7566C29.2565 56.9805 29.3372 57.1654 29.4414 57.3112C29.5482 57.4545 29.6758 57.5612 29.8242 57.6316C29.9727 57.6993 30.138 57.7331 30.3203 57.7331C30.5156 57.7331 30.6875 57.6993 30.8359 57.6316C30.987 57.5612 31.112 57.4545 31.2109 57.3112C31.3125 57.1654 31.388 56.9805 31.4375 56.7566C31.4896 56.53 31.5156 56.2592 31.5156 55.9441ZM34.4175 54.9675V58.2917H33.7261V54.0652H34.3784L34.4175 54.9675ZM34.2495 56.0183L33.9683 56.0066C33.9657 55.7175 33.9982 55.4506 34.0659 55.2058C34.1362 54.9584 34.2352 54.7435 34.3628 54.5612C34.493 54.379 34.648 54.2383 34.8277 54.1394C35.0073 54.0378 35.2066 53.987 35.4253 53.987C35.5972 53.987 35.7534 54.0157 35.8941 54.073C36.0347 54.1277 36.1545 54.2162 36.2534 54.3386C36.3524 54.461 36.4279 54.6198 36.48 54.8152C36.5347 55.0079 36.562 55.2435 36.562 55.5222V58.2917H35.8706V55.5144C35.8706 55.293 35.8459 55.1159 35.7964 54.9831C35.7495 54.8477 35.6766 54.7501 35.5777 54.6902C35.4813 54.6277 35.3589 54.5964 35.2105 54.5964C35.0751 54.5964 34.9487 54.6342 34.8316 54.7097C34.7144 54.7852 34.6115 54.8894 34.523 55.0222C34.437 55.155 34.3693 55.3073 34.3198 55.4792C34.273 55.6485 34.2495 55.8282 34.2495 56.0183ZM40.3702 54.0652H40.9912V58.3269C40.9912 58.6993 40.9261 59.0066 40.7959 59.2487C40.6683 59.4909 40.4899 59.6693 40.2608 59.7839C40.0316 59.9011 39.7673 59.9597 39.4678 59.9597C39.361 59.9597 39.2269 59.9402 39.0655 59.9011C38.904 59.862 38.7426 59.8021 38.5811 59.7214C38.4196 59.6433 38.2868 59.5443 38.1827 59.4245L38.4678 58.9441C38.6162 59.0951 38.7738 59.2032 38.9405 59.2683C39.1071 59.3334 39.266 59.3659 39.417 59.3659C39.5967 59.3659 39.753 59.3334 39.8858 59.2683C40.0186 59.2032 40.1215 59.0964 40.1944 58.948C40.2673 58.8021 40.3037 58.6068 40.3037 58.362V54.9948L40.3702 54.0652ZM37.9405 56.3816V55.987C37.9405 55.6381 37.973 55.3386 38.0381 55.0886C38.1032 54.836 38.197 54.629 38.3194 54.4675C38.4444 54.3034 38.5941 54.1823 38.7686 54.1042C38.9431 54.0261 39.1384 53.987 39.3545 53.987C39.5733 53.987 39.7621 54.0313 39.9209 54.1198C40.0798 54.2084 40.2113 54.3373 40.3155 54.5066C40.4222 54.6732 40.5056 54.8764 40.5655 55.1159C40.628 55.3529 40.6709 55.6211 40.6944 55.9206V56.448C40.6709 56.7448 40.628 57.0118 40.5655 57.2487C40.5056 57.4857 40.4209 57.6876 40.3116 57.8542C40.2048 58.0209 40.072 58.1485 39.9131 58.237C39.7543 58.3256 39.5655 58.3698 39.3467 58.3698C39.1332 58.3698 38.9405 58.3295 38.7686 58.2487C38.5967 58.1654 38.4483 58.0417 38.3233 57.8777C38.2009 57.711 38.1058 57.504 38.0381 57.2566C37.973 57.0066 37.9405 56.7149 37.9405 56.3816ZM38.6319 55.987V56.3816C38.6319 56.6159 38.6488 56.8204 38.6827 56.9948C38.7165 57.1667 38.7686 57.3099 38.8389 57.4245C38.9118 57.5365 39.0043 57.6198 39.1162 57.6745C39.2308 57.7292 39.3676 57.7566 39.5264 57.7566C39.7191 57.7566 39.8767 57.7097 39.9991 57.6159C40.1215 57.5222 40.2191 57.3985 40.292 57.2448C40.3676 57.0886 40.4274 56.9206 40.4717 56.7409V55.6316C40.4457 55.4987 40.4079 55.3711 40.3584 55.2487C40.3116 55.1237 40.2504 55.0131 40.1748 54.9167C40.0993 54.8178 40.0082 54.7396 39.9014 54.6823C39.7972 54.6251 39.6748 54.5964 39.5342 54.5964C39.3754 54.5964 39.2386 54.6251 39.1241 54.6823C39.0095 54.7396 38.9157 54.8256 38.8428 54.9402C38.7699 55.0547 38.7165 55.1993 38.6827 55.3737C38.6488 55.5482 38.6319 55.7527 38.6319 55.987ZM43.2017 52.2917V58.2917H42.5103V52.2917H43.2017ZM45.3462 54.0652L43.8423 56.0378L42.9127 57.1081L42.8658 56.3386L43.5064 55.4558L44.5142 54.0652H45.3462ZM44.7134 58.2917L43.5259 56.2761L43.8814 55.6316L45.5181 58.2917H44.7134ZM47.338 54.0652V58.2917H46.6505V54.0652H47.338ZM46.6114 52.9441C46.6114 52.8269 46.644 52.7279 46.7091 52.6472C46.7742 52.5665 46.8718 52.5261 47.002 52.5261C47.1322 52.5261 47.2299 52.5665 47.295 52.6472C47.3627 52.7279 47.3966 52.8269 47.3966 52.9441C47.3966 53.056 47.3627 53.1524 47.295 53.2331C47.2299 53.3112 47.1322 53.3503 47.002 53.3503C46.8718 53.3503 46.7742 53.3112 46.7091 53.2331C46.644 53.1524 46.6114 53.056 46.6114 52.9441ZM49.6031 54.7292V58.2917H48.9117V54.0652H49.5797L49.6031 54.7292ZM50.6539 54.0417L50.6578 54.7136C50.6005 54.7006 50.5484 54.6928 50.5016 54.6902C50.4573 54.6849 50.4052 54.6823 50.3453 54.6823C50.2151 54.6823 50.1005 54.7084 50.0016 54.7605C49.9052 54.8126 49.8219 54.8855 49.7516 54.9792C49.6812 55.073 49.6253 55.1849 49.5836 55.3152C49.5419 55.4428 49.5133 55.5834 49.4977 55.737L49.318 55.8542C49.318 55.599 49.3375 55.3594 49.3766 55.1355C49.4182 54.9115 49.482 54.7136 49.568 54.5417C49.6539 54.3672 49.7633 54.2318 49.8961 54.1355C50.0315 54.0365 50.193 53.987 50.3805 53.987C50.4221 53.987 50.4729 53.9935 50.5328 54.0066C50.5953 54.017 50.6357 54.0287 50.6539 54.0417ZM55.0709 55.1355L55.7702 54.53C55.9082 54.418 56.011 54.306 56.0788 54.1941C56.1465 54.0795 56.1803 53.9232 56.1803 53.7253C56.1803 53.5717 56.1321 53.4323 56.0358 53.3073C55.942 53.1797 55.8079 53.1159 55.6334 53.1159C55.5163 53.1159 55.4173 53.1511 55.3366 53.2214C55.2558 53.2917 55.1946 53.3855 55.153 53.5027C55.1139 53.6172 55.0944 53.7435 55.0944 53.8816C55.0944 53.9987 55.1191 54.1198 55.1686 54.2448C55.2207 54.3698 55.2897 54.5001 55.3756 54.6355C55.4616 54.7709 55.5592 54.9141 55.6686 55.0652L57.9069 58.2917H57.0827L55.2741 55.6511C55.11 55.4219 54.9616 55.2123 54.8288 55.0222C54.6985 54.8295 54.5944 54.6433 54.5163 54.4636C54.4407 54.2839 54.403 54.0977 54.403 53.905C54.403 53.6081 54.4538 53.3581 54.5553 53.155C54.6595 52.9493 54.804 52.793 54.9889 52.6862C55.1738 52.5795 55.3899 52.5261 55.6373 52.5261C55.8795 52.5261 56.0879 52.5821 56.2623 52.6941C56.4394 52.8034 56.5761 52.9493 56.6725 53.1316C56.7689 53.3112 56.817 53.5092 56.817 53.7253C56.817 53.9076 56.791 54.0717 56.7389 54.2175C56.6868 54.3607 56.6113 54.4922 56.5123 54.612C56.416 54.7318 56.3001 54.849 56.1647 54.9636L55.1881 55.8034C55.0423 55.9415 54.9355 56.073 54.8678 56.198C54.8027 56.323 54.761 56.4336 54.7428 56.53C54.7272 56.6264 54.7194 56.7032 54.7194 56.7605C54.7194 56.9454 54.7506 57.1146 54.8131 57.2683C54.8782 57.4219 54.9759 57.5456 55.1061 57.6394C55.2363 57.7305 55.4004 57.7761 55.5983 57.7761C55.7728 57.7761 55.942 57.7266 56.1061 57.6277C56.2728 57.5261 56.4225 57.3829 56.5553 57.198C56.6881 57.0105 56.7936 56.7878 56.8717 56.53C56.9524 56.2696 56.9928 55.9818 56.9928 55.6667H57.61C57.61 55.9245 57.5892 56.168 57.5475 56.3972C57.5058 56.6264 57.4394 56.8399 57.3483 57.0378C57.2597 57.2331 57.1452 57.4115 57.0045 57.573C56.9863 57.5964 56.9707 57.6237 56.9577 57.655C56.9446 57.6862 56.929 57.7136 56.9108 57.737C56.7467 57.948 56.5436 58.1068 56.3014 58.2136C56.0618 58.3178 55.8274 58.3698 55.5983 58.3698C55.2754 58.3698 54.9967 58.3008 54.7623 58.1628C54.528 58.0248 54.347 57.8347 54.2194 57.5925C54.0918 57.3503 54.028 57.073 54.028 56.7605C54.028 56.5209 54.0722 56.3099 54.1608 56.1277C54.2493 55.9454 54.3717 55.7748 54.528 55.6159C54.6868 55.4571 54.8678 55.2969 55.0709 55.1355ZM18.767 66.4284L20.1342 61.6042H20.9155L19.1498 67.2917H18.5991L18.767 66.4284ZM17.5405 61.6042L18.8959 66.4284L19.0756 67.2917H18.5248L16.7592 61.6042H17.5405ZM21.7509 65.3816V64.9792C21.7509 64.6511 21.7926 64.3633 21.8759 64.1159C21.9593 63.8659 22.0752 63.6576 22.2236 63.4909C22.372 63.3243 22.5452 63.1993 22.7431 63.1159C22.941 63.03 23.1533 62.987 23.3798 62.987C23.6116 62.987 23.8265 63.03 24.0244 63.1159C24.2223 63.1993 24.3955 63.3243 24.5439 63.4909C24.6949 63.6576 24.8121 63.8659 24.8955 64.1159C24.9788 64.3633 25.0205 64.6511 25.0205 64.9792V65.3816C25.0205 65.7097 24.9788 65.9987 24.8955 66.2487C24.8121 66.4961 24.6963 66.7032 24.5478 66.8698C24.3994 67.0365 24.2262 67.1615 24.0283 67.2448C23.8304 67.3282 23.6168 67.3698 23.3877 67.3698C23.1585 67.3698 22.9449 67.3282 22.747 67.2448C22.5491 67.1615 22.3746 67.0365 22.2236 66.8698C22.0752 66.7032 21.9593 66.4961 21.8759 66.2487C21.7926 65.9987 21.7509 65.7097 21.7509 65.3816ZM22.4423 64.9792V65.3816C22.4423 65.6133 22.4658 65.8165 22.5127 65.9909C22.5595 66.1654 22.6259 66.3112 22.7119 66.4284C22.7978 66.5456 22.8981 66.6342 23.0127 66.6941C23.1272 66.7514 23.2522 66.78 23.3877 66.78C23.5439 66.78 23.6806 66.7514 23.7978 66.6941C23.9176 66.6342 24.0166 66.5456 24.0947 66.4284C24.1728 66.3112 24.2314 66.1654 24.2705 65.9909C24.3095 65.8165 24.3291 65.6133 24.3291 65.3816V64.9792C24.3291 64.7474 24.3056 64.5456 24.2588 64.3737C24.2119 64.1993 24.1455 64.0534 24.0595 63.9362C23.9736 63.8165 23.872 63.7279 23.7548 63.6706C23.6403 63.6107 23.5153 63.5808 23.3798 63.5808C23.247 63.5808 23.1233 63.6107 23.0088 63.6706C22.8942 63.7279 22.7939 63.8165 22.708 63.9362C22.6246 64.0534 22.5595 64.1993 22.5127 64.3737C22.4658 64.5456 22.4423 64.7474 22.4423 64.9792ZM28.5278 66.3152V63.0652H29.2192V67.2917H28.563L28.5278 66.3152ZM28.6567 65.4245L28.9302 65.4167C28.9302 65.698 28.9054 65.9584 28.8559 66.198C28.8091 66.4349 28.7309 66.6407 28.6216 66.8152C28.5148 66.9896 28.3729 67.1264 28.1958 67.2253C28.0187 67.3217 27.8013 67.3698 27.5434 67.3698C27.369 67.3698 27.2101 67.3399 27.0669 67.28C26.9263 67.2201 26.8039 67.1277 26.6997 67.0027C26.5981 66.8777 26.5187 66.7149 26.4614 66.5144C26.4067 66.3139 26.3794 66.073 26.3794 65.7917V63.0652H27.0669V65.7995C27.0669 65.9896 27.0838 66.1472 27.1177 66.2722C27.1515 66.3946 27.1971 66.4922 27.2544 66.5652C27.3117 66.6355 27.3755 66.6849 27.4458 66.7136C27.5161 66.7422 27.5877 66.7566 27.6606 66.7566C27.9054 66.7566 28.1007 66.698 28.2466 66.5808C28.3924 66.461 28.4966 66.3008 28.5591 66.1003C28.6242 65.8972 28.6567 65.6719 28.6567 65.4245ZM32.2031 66.78C32.3411 66.78 32.4661 66.7527 32.5781 66.698C32.6927 66.6407 32.7865 66.5521 32.8594 66.4323C32.9323 66.3099 32.974 66.1511 32.9844 65.9558H33.6328C33.6224 66.237 33.5508 66.4844 33.418 66.698C33.2878 66.9089 33.1159 67.0743 32.9023 67.1941C32.6914 67.3112 32.4583 67.3698 32.2031 67.3698C31.9297 67.3698 31.6914 67.3256 31.4883 67.237C31.2878 67.1485 31.1211 67.0209 30.9883 66.8542C30.8581 66.6849 30.7604 66.4805 30.6953 66.2409C30.6302 65.9987 30.5977 65.724 30.5977 65.4167V64.9402C30.5977 64.6329 30.6302 64.3594 30.6953 64.1198C30.7604 63.8777 30.8581 63.6732 30.9883 63.5066C31.1211 63.3373 31.2878 63.2084 31.4883 63.1198C31.6914 63.0313 31.9297 62.987 32.2031 62.987C32.4896 62.987 32.737 63.0482 32.9453 63.1706C33.1562 63.2904 33.3203 63.4649 33.4375 63.6941C33.5573 63.9206 33.6224 64.1954 33.6328 64.5183H32.9844C32.974 64.3099 32.9362 64.1368 32.8711 63.9987C32.806 63.8581 32.7174 63.754 32.6055 63.6862C32.4935 63.6159 32.3594 63.5808 32.2031 63.5808C32.0208 63.5808 31.8698 63.6133 31.75 63.6784C31.6328 63.7409 31.5404 63.8321 31.4727 63.9519C31.4049 64.0717 31.3568 64.2149 31.3281 64.3816C31.3021 64.5482 31.2891 64.7344 31.2891 64.9402V65.4167C31.2891 65.6224 31.3021 65.8099 31.3281 65.9792C31.3568 66.1459 31.4036 66.2891 31.4688 66.4089C31.5365 66.5287 31.6302 66.6211 31.75 66.6862C31.8698 66.7487 32.0208 66.78 32.2031 66.78ZM35.605 61.2917V67.2917H34.9136V61.2917H35.605ZM35.437 65.0183L35.1558 65.0066C35.1532 64.7175 35.1857 64.4506 35.2534 64.2058C35.3238 63.9584 35.4227 63.7435 35.5503 63.5612C35.6805 63.379 35.8355 63.2383 36.0152 63.1394C36.1948 63.0378 36.3941 62.987 36.6128 62.987C36.7847 62.987 36.9409 63.0157 37.0816 63.073C37.2222 63.1277 37.342 63.2162 37.4409 63.3386C37.5399 63.461 37.6154 63.6198 37.6675 63.8152C37.7222 64.0079 37.7495 64.2435 37.7495 64.5222V67.2917H37.0581V64.5144C37.0581 64.293 37.0334 64.1159 36.9839 63.9831C36.937 63.8477 36.8641 63.7501 36.7652 63.6902C36.6688 63.6277 36.5464 63.5964 36.398 63.5964C36.2626 63.5964 36.1363 63.6342 36.0191 63.7097C35.9019 63.7852 35.799 63.8894 35.7105 64.0222C35.6245 64.155 35.5568 64.3073 35.5073 64.4792C35.4605 64.6485 35.437 64.8282 35.437 65.0183ZM40.7725 67.3698C40.5199 67.3698 40.292 67.3321 40.0889 67.2566C39.8858 67.181 39.7126 67.0665 39.5694 66.9128C39.4261 66.7566 39.3168 66.5599 39.2412 66.323C39.1657 66.086 39.128 65.806 39.128 65.4831V65.0066C39.128 64.6342 39.1709 64.3191 39.2569 64.0612C39.3454 63.8034 39.4639 63.5964 39.6123 63.4402C39.7608 63.2813 39.9287 63.1667 40.1162 63.0964C40.3037 63.0235 40.4965 62.987 40.6944 62.987C40.96 62.987 41.1866 63.03 41.3741 63.1159C41.5616 63.2019 41.7139 63.3295 41.8311 63.4987C41.9483 63.668 42.0342 63.8764 42.0889 64.1237C42.1462 64.3711 42.1748 64.6563 42.1748 64.9792V65.3816H39.5342V64.7917H41.4834V64.6941C41.473 64.4753 41.4431 64.2826 41.3936 64.1159C41.3467 63.9493 41.2686 63.8191 41.1592 63.7253C41.0498 63.629 40.8949 63.5808 40.6944 63.5808C40.5668 63.5808 40.4483 63.6029 40.3389 63.6472C40.2321 63.6889 40.1397 63.7631 40.0616 63.8698C39.986 63.974 39.9261 64.1185 39.8819 64.3034C39.8402 64.4883 39.8194 64.7227 39.8194 65.0066V65.4831C39.8194 65.7097 39.8402 65.905 39.8819 66.0691C39.9261 66.2305 39.9899 66.3646 40.0733 66.4714C40.1592 66.5756 40.2634 66.6537 40.3858 66.7058C40.5108 66.7553 40.6527 66.78 40.8116 66.78C41.0433 66.78 41.2347 66.7357 41.3858 66.6472C41.5368 66.556 41.6683 66.4402 41.7803 66.2995L42.1436 66.7331C42.0681 66.8399 41.9691 66.9428 41.8467 67.0417C41.7269 67.1381 41.5785 67.2175 41.4014 67.28C41.2269 67.3399 41.0173 67.3698 40.7725 67.3698ZM44.1822 63.7292V67.2917H43.4908V63.0652H44.1588L44.1822 63.7292ZM45.233 63.0417L45.2369 63.7136C45.1796 63.7006 45.1275 63.6928 45.0806 63.6902C45.0364 63.6849 44.9843 63.6823 44.9244 63.6823C44.7942 63.6823 44.6796 63.7084 44.5806 63.7605C44.4843 63.8126 44.4009 63.8855 44.3306 63.9792C44.2603 64.073 44.2043 64.1849 44.1627 64.3152C44.121 64.4428 44.0923 64.5834 44.0767 64.737L43.897 64.8542C43.897 64.599 43.9166 64.3594 43.9556 64.1355C43.9973 63.9115 44.0611 63.7136 44.147 63.5417C44.233 63.3672 44.3423 63.2318 44.4752 63.1355C44.6106 63.0365 44.772 62.987 44.9595 62.987C45.0012 62.987 45.052 62.9935 45.1119 63.0066C45.1744 63.017 45.2147 63.0287 45.233 63.0417Z" fill="black"/>
</svg>
