<svg width="62" height="62" viewBox="0 0 62 62" fill="none" xmlns="http://www.w3.org/2000/svg">
<rect x="6.5" y="0.5" width="47" height="45" rx="10.5" stroke="#C4C4C4" stroke-linejoin="round"/>
<path d="M27 15H37C38.1046 15 39 15.8954 39 17V19C39 20.1046 38.1046 21 37 21H27V15Z" fill="#1557A5"/>
<path d="M27 22H38V33C38 34.1046 37.1046 35 36 35H27V22Z" fill="#1557A5"/>
<path d="M13 17C13 15.8954 13.8954 15 15 15H25V21H15C13.8954 21 13 20.1046 13 19V17Z" fill="#1557A5"/>
<path d="M14 22H25V35H16C14.8954 35 14 34.1046 14 33V22Z" fill="#1557A5"/>
<path d="M15.5 11.3145C15.5 9.52212 17.5389 8.49185 18.9819 9.5551L22.5099 12.1547C23.6958 13.0285 25.3019 13.0663 26.5276 12.2492L30.9414 9.30663C32.4625 8.29256 34.5 9.38297 34.5 11.2111C34.5 12.4752 33.4752 13.5 32.2111 13.5H17.6855C16.4785 13.5 15.5 12.5215 15.5 11.3145Z" stroke="#2053A0"/>
<path d="M39.5 36.5C39.5 36.6558 39.4198 36.8604 39.1528 37.1032C38.8857 37.3461 38.4712 37.5878 37.9167 37.8011C36.811 38.2264 35.2496 38.5 33.5 38.5C31.7504 38.5 30.189 38.2264 29.0833 37.8011C28.5288 37.5878 28.1143 37.3461 27.8472 37.1032C27.5802 36.8604 27.5 36.6558 27.5 36.5C27.5 36.3442 27.5802 36.1396 27.8472 35.8968C28.1143 35.6539 28.5288 35.4122 29.0833 35.1989C30.189 34.7736 31.7504 34.5 33.5 34.5C35.2496 34.5 36.811 34.7736 37.9167 35.1989C38.4712 35.4122 38.8857 35.6539 39.1528 35.8968C39.4198 36.1396 39.5 36.3442 39.5 36.5Z" fill="#1D5AB5" stroke="white"/>
<path d="M39.5 34.5C39.5 34.6558 39.4198 34.8604 39.1528 35.1032C38.8857 35.3461 38.4712 35.5878 37.9167 35.8011C36.811 36.2264 35.2496 36.5 33.5 36.5C31.7504 36.5 30.189 36.2264 29.0833 35.8011C28.5288 35.5878 28.1143 35.3461 27.8472 35.1032C27.5802 34.8604 27.5 34.6558 27.5 34.5C27.5 34.3442 27.5802 34.1396 27.8472 33.8968C28.1143 33.6539 28.5288 33.4122 29.0833 33.1989C30.189 32.7736 31.7504 32.5 33.5 32.5C35.2496 32.5 36.811 32.7736 37.9167 33.1989C38.4712 33.4122 38.8857 33.6539 39.1528 33.8968C39.4198 34.1396 39.5 34.3442 39.5 34.5Z" fill="#1D5AB5" stroke="white"/>
<path d="M39.5 32.5C39.5 32.6558 39.4198 32.8604 39.1528 33.1032C38.8857 33.3461 38.4712 33.5878 37.9167 33.8011C36.811 34.2264 35.2496 34.5 33.5 34.5C31.7504 34.5 30.189 34.2264 29.0833 33.8011C28.5288 33.5878 28.1143 33.3461 27.8472 33.1032C27.5802 32.8604 27.5 32.6558 27.5 32.5C27.5 32.3442 27.5802 32.1396 27.8472 31.8968C28.1143 31.6539 28.5288 31.4122 29.0833 31.1989C30.189 30.7736 31.7504 30.5 33.5 30.5C35.2496 30.5 36.811 30.7736 37.9167 31.1989C38.4712 31.4122 38.8857 31.6539 39.1528 31.8968C39.4198 32.1396 39.5 32.3442 39.5 32.5Z" fill="#1D5AB5" stroke="white"/>
<path d="M39.5 30.5C39.5 30.6558 39.4198 30.8604 39.1528 31.1032C38.8857 31.3461 38.4712 31.5878 37.9167 31.8011C36.811 32.2264 35.2496 32.5 33.5 32.5C31.7504 32.5 30.189 32.2264 29.0833 31.8011C28.5288 31.5878 28.1143 31.3461 27.8472 31.1032C27.5802 30.8604 27.5 30.6558 27.5 30.5C27.5 30.3442 27.5802 30.1396 27.8472 29.8968C28.1143 29.6539 28.5288 29.4122 29.0833 29.1989C30.189 28.7736 31.7504 28.5 33.5 28.5C35.2496 28.5 36.811 28.7736 37.9167 29.1989C38.4712 29.4122 38.8857 29.6539 39.1528 29.8968C39.4198 30.1396 39.5 30.3442 39.5 30.5Z" fill="#1D5AB5" stroke="white"/>
<path d="M47.5 36.5C47.5 36.6558 47.4198 36.8604 47.1528 37.1032C46.8857 37.3461 46.4712 37.5878 45.9167 37.8011C44.811 38.2264 43.2496 38.5 41.5 38.5C39.7504 38.5 38.189 38.2264 37.0833 37.8011C36.5288 37.5878 36.1143 37.3461 35.8472 37.1032C35.5802 36.8604 35.5 36.6558 35.5 36.5C35.5 36.3442 35.5802 36.1396 35.8472 35.8968C36.1143 35.6539 36.5288 35.4122 37.0833 35.1989C38.189 34.7736 39.7504 34.5 41.5 34.5C43.2496 34.5 44.811 34.7736 45.9167 35.1989C46.4712 35.4122 46.8857 35.6539 47.1528 35.8968C47.4198 36.1396 47.5 36.3442 47.5 36.5Z" fill="#1D5AB5" stroke="white"/>
<path d="M47.5 34.5C47.5 34.6558 47.4198 34.8604 47.1528 35.1032C46.8857 35.3461 46.4712 35.5878 45.9167 35.8011C44.811 36.2264 43.2496 36.5 41.5 36.5C39.7504 36.5 38.189 36.2264 37.0833 35.8011C36.5288 35.5878 36.1143 35.3461 35.8472 35.1032C35.5802 34.8604 35.5 34.6558 35.5 34.5C35.5 34.3442 35.5802 34.1396 35.8472 33.8968C36.1143 33.6539 36.5288 33.4122 37.0833 33.1989C38.189 32.7736 39.7504 32.5 41.5 32.5C43.2496 32.5 44.811 32.7736 45.9167 33.1989C46.4712 33.4122 46.8857 33.6539 47.1528 33.8968C47.4198 34.1396 47.5 34.3442 47.5 34.5Z" fill="#1D5AB5" stroke="white"/>
<path d="M47.5 32.5C47.5 32.6558 47.4198 32.8604 47.1528 33.1032C46.8857 33.3461 46.4712 33.5878 45.9167 33.8011C44.811 34.2264 43.2496 34.5 41.5 34.5C39.7504 34.5 38.189 34.2264 37.0833 33.8011C36.5288 33.5878 36.1143 33.3461 35.8472 33.1032C35.5802 32.8604 35.5 32.6558 35.5 32.5C35.5 32.3442 35.5802 32.1396 35.8472 31.8968C36.1143 31.6539 36.5288 31.4122 37.0833 31.1989C38.189 30.7736 39.7504 30.5 41.5 30.5C43.2496 30.5 44.811 30.7736 45.9167 31.1989C46.4712 31.4122 46.8857 31.6539 47.1528 31.8968C47.4198 32.1396 47.5 32.3442 47.5 32.5Z" fill="#1D5AB5" stroke="white"/>
<path d="M47.5 30.5C47.5 30.6558 47.4198 30.8604 47.1528 31.1032C46.8857 31.3461 46.4712 31.5878 45.9167 31.8011C44.811 32.2264 43.2496 32.5 41.5 32.5C39.7504 32.5 38.189 32.2264 37.0833 31.8011C36.5288 31.5878 36.1143 31.3461 35.8472 31.1032C35.5802 30.8604 35.5 30.6558 35.5 30.5C35.5 30.3442 35.5802 30.1396 35.8472 29.8968C36.1143 29.6539 36.5288 29.4122 37.0833 29.1989C38.189 28.7736 39.7504 28.5 41.5 28.5C43.2496 28.5 44.811 28.7736 45.9167 29.1989C46.4712 29.4122 46.8857 29.6539 47.1528 29.8968C47.4198 30.1396 47.5 30.3442 47.5 30.5Z" fill="#1D5AB5" stroke="white"/>
<path d="M47.5 28.5C47.5 28.6558 47.4198 28.8604 47.1528 29.1032C46.8857 29.3461 46.4712 29.5878 45.9167 29.8011C44.811 30.2264 43.2496 30.5 41.5 30.5C39.7504 30.5 38.189 30.2264 37.0833 29.8011C36.5288 29.5878 36.1143 29.3461 35.8472 29.1032C35.5802 28.8604 35.5 28.6558 35.5 28.5C35.5 28.3442 35.5802 28.1396 35.8472 27.8968C36.1143 27.6539 36.5288 27.4122 37.0833 27.1989C38.189 26.7736 39.7504 26.5 41.5 26.5C43.2496 26.5 44.811 26.7736 45.9167 27.1989C46.4712 27.4122 46.8857 27.6539 47.1528 27.8968C47.4198 28.1396 47.5 28.3442 47.5 28.5Z" fill="#1D5AB5" stroke="white"/>
<path d="M47.5 26.5C47.5 26.6558 47.4198 26.8604 47.1528 27.1032C46.8857 27.3461 46.4712 27.5878 45.9167 27.8011C44.811 28.2264 43.2496 28.5 41.5 28.5C39.7504 28.5 38.189 28.2264 37.0833 27.8011C36.5288 27.5878 36.1143 27.3461 35.8472 27.1032C35.5802 26.8604 35.5 26.6558 35.5 26.5C35.5 26.3442 35.5802 26.1396 35.8472 25.8968C36.1143 25.6539 36.5288 25.4122 37.0833 25.1989C38.189 24.7736 39.7504 24.5 41.5 24.5C43.2496 24.5 44.811 24.7736 45.9167 25.1989C46.4712 25.4122 46.8857 25.6539 47.1528 25.8968C47.4198 26.1396 47.5 26.3442 47.5 26.5Z" fill="#1D5AB5" stroke="white"/>
<path d="M47.5 24.5C47.5 24.6558 47.4198 24.8604 47.1528 25.1032C46.8857 25.3461 46.4712 25.5878 45.9167 25.8011C44.811 26.2264 43.2496 26.5 41.5 26.5C39.7504 26.5 38.189 26.2264 37.0833 25.8011C36.5288 25.5878 36.1143 25.3461 35.8472 25.1032C35.5802 24.8604 35.5 24.6558 35.5 24.5C35.5 24.3442 35.5802 24.1396 35.8472 23.8968C36.1143 23.6539 36.5288 23.4122 37.0833 23.1989C38.189 22.7736 39.7504 22.5 41.5 22.5C43.2496 22.5 44.811 22.7736 45.9167 23.1989C46.4712 23.4122 46.8857 23.6539 47.1528 23.8968C47.4198 24.1396 47.5 24.3442 47.5 24.5Z" fill="#1D5AB5" stroke="white"/>
<path d="M8.01063 53.6584V54.2717H5.54578V53.6584H8.01063ZM5.64344 51.2131V56.9006H4.92469V51.2131H5.64344ZM8.64734 51.2131V56.9006H7.92859V51.2131H8.64734ZM12.3422 56.178V53.885C12.3422 53.7183 12.3161 53.5842 12.2641 53.4827C12.2146 53.3811 12.1391 53.3069 12.0375 53.26C11.9385 53.2131 11.8135 53.1897 11.6625 53.1897C11.5167 53.1897 11.3904 53.2196 11.2836 53.2795C11.1794 53.3394 11.0987 53.4189 11.0414 53.5178C10.9867 53.6168 10.9594 53.7262 10.9594 53.8459H10.268C10.268 53.6949 10.3005 53.5452 10.3656 53.3967C10.4333 53.2483 10.5297 53.1142 10.6547 52.9944C10.7797 52.872 10.9294 52.7756 11.1039 52.7053C11.281 52.6324 11.4789 52.5959 11.6977 52.5959C11.9581 52.5959 12.1885 52.6389 12.3891 52.7249C12.5896 52.8082 12.7471 52.9449 12.8617 53.135C12.9763 53.3251 13.0336 53.5777 13.0336 53.8928V55.9788C13.0336 56.1194 13.044 56.2691 13.0648 56.428C13.0883 56.5868 13.1208 56.7236 13.1625 56.8381V56.9006H12.4477C12.4138 56.8173 12.3878 56.7066 12.3695 56.5686C12.3513 56.428 12.3422 56.2978 12.3422 56.178ZM12.4516 54.3381L12.4594 54.8459H11.9789C11.8148 54.8459 11.6651 54.8642 11.5297 54.9006C11.3969 54.9371 11.2823 54.9905 11.1859 55.0608C11.0896 55.1285 11.0154 55.2131 10.9633 55.3147C10.9138 55.4163 10.8891 55.5321 10.8891 55.6624C10.8891 55.8316 10.9125 55.967 10.9594 56.0686C11.0063 56.1676 11.0766 56.2392 11.1703 56.2834C11.2641 56.3277 11.3826 56.3499 11.5258 56.3499C11.7003 56.3499 11.8539 56.3095 11.9867 56.2288C12.1195 56.148 12.2224 56.0504 12.2953 55.9358C12.3708 55.8212 12.406 55.7144 12.4008 55.6155L12.5531 55.9397C12.5427 56.0413 12.5089 56.1519 12.4516 56.2717C12.3969 56.3889 12.3201 56.5022 12.2211 56.6116C12.1221 56.7183 12.0049 56.8069 11.8695 56.8772C11.7367 56.9449 11.587 56.9788 11.4203 56.9788C11.1755 56.9788 10.9607 56.9319 10.7758 56.8381C10.5935 56.7444 10.4516 56.6064 10.35 56.4241C10.2484 56.2418 10.1977 56.0165 10.1977 55.7483C10.1977 55.5452 10.2328 55.3577 10.3031 55.1858C10.3734 55.0139 10.4776 54.8655 10.6156 54.7405C10.7536 54.6129 10.9268 54.5139 11.1352 54.4436C11.3461 54.3733 11.5896 54.3381 11.8656 54.3381H12.4516ZM16.8027 56.0803V50.9006H17.4902V56.9006H16.8613L16.8027 56.0803ZM14.4394 54.9905V54.5959C14.4394 54.247 14.4732 53.9475 14.5409 53.6975C14.6086 53.4449 14.705 53.2379 14.83 53.0764C14.955 52.9124 15.1047 52.7913 15.2792 52.7131C15.4537 52.635 15.6464 52.5959 15.8573 52.5959C16.0761 52.5959 16.2636 52.6402 16.4198 52.7288C16.5787 52.8173 16.7115 52.9462 16.8183 53.1155C16.9251 53.2821 17.0084 53.4853 17.0683 53.7249C17.1308 53.9618 17.1724 54.2301 17.1933 54.5295V55.0569C17.1698 55.3538 17.1269 55.6207 17.0644 55.8577C17.0045 56.0946 16.9211 56.2965 16.8144 56.4631C16.7076 56.6298 16.5748 56.7574 16.4159 56.8459C16.2571 56.9345 16.0683 56.9788 15.8495 56.9788C15.6412 56.9788 15.4511 56.9384 15.2792 56.8577C15.1073 56.7743 14.9576 56.6506 14.83 56.4866C14.705 56.3199 14.6086 56.1129 14.5409 55.8655C14.4732 55.6155 14.4394 55.3238 14.4394 54.9905ZM15.1308 54.5959V54.9905C15.1308 55.2249 15.1477 55.4293 15.1816 55.6038C15.2154 55.7756 15.2688 55.9189 15.3417 56.0334C15.4146 56.1454 15.5071 56.2288 15.6191 56.2834C15.7336 56.3381 15.8704 56.3655 16.0292 56.3655C16.2219 56.3655 16.3795 56.3186 16.5019 56.2249C16.6243 56.1311 16.7219 56.0074 16.7948 55.8538C16.8704 55.6975 16.9303 55.5295 16.9745 55.3499V54.2405C16.9485 54.1077 16.9107 53.9801 16.8613 53.8577C16.8118 53.7327 16.7493 53.622 16.6738 53.5256C16.6008 53.4267 16.511 53.3486 16.4042 53.2913C16.3001 53.234 16.1777 53.2053 16.037 53.2053C15.8782 53.2053 15.7402 53.234 15.623 53.2913C15.5084 53.3486 15.4146 53.4345 15.3417 53.5491C15.2714 53.6637 15.218 53.8082 15.1816 53.9827C15.1477 54.1571 15.1308 54.3616 15.1308 54.5959ZM19.7788 52.6741V56.9006H19.0913V52.6741H19.7788ZM19.0522 51.553C19.0522 51.4358 19.0847 51.3368 19.1498 51.2561C19.2149 51.1754 19.3126 51.135 19.4428 51.135C19.573 51.135 19.6707 51.1754 19.7358 51.2561C19.8035 51.3368 19.8373 51.4358 19.8373 51.553C19.8373 51.665 19.8035 51.7613 19.7358 51.842C19.6707 51.9202 19.573 51.9592 19.4428 51.9592C19.3126 51.9592 19.2149 51.9202 19.1498 51.842C19.0847 51.7613 19.0522 51.665 19.0522 51.553ZM23.4228 56.178V53.885C23.4228 53.7183 23.3968 53.5842 23.3447 53.4827C23.2952 53.3811 23.2197 53.3069 23.1181 53.26C23.0192 53.2131 22.8942 53.1897 22.7431 53.1897C22.5973 53.1897 22.471 53.2196 22.3642 53.2795C22.2601 53.3394 22.1793 53.4189 22.122 53.5178C22.0673 53.6168 22.04 53.7262 22.04 53.8459H21.3486C21.3486 53.6949 21.3811 53.5452 21.4463 53.3967C21.514 53.2483 21.6103 53.1142 21.7353 52.9944C21.8603 52.872 22.0101 52.7756 22.1845 52.7053C22.3616 52.6324 22.5595 52.5959 22.7783 52.5959C23.0387 52.5959 23.2692 52.6389 23.4697 52.7249C23.6702 52.8082 23.8278 52.9449 23.9423 53.135C24.0569 53.3251 24.1142 53.5777 24.1142 53.8928V55.9788C24.1142 56.1194 24.1246 56.2691 24.1455 56.428C24.1689 56.5868 24.2015 56.7236 24.2431 56.8381V56.9006H23.5283C23.4944 56.8173 23.4684 56.7066 23.4502 56.5686C23.4319 56.428 23.4228 56.2978 23.4228 56.178ZM23.5322 54.3381L23.54 54.8459H23.0595C22.8955 54.8459 22.7457 54.8642 22.6103 54.9006C22.4775 54.9371 22.3629 54.9905 22.2666 55.0608C22.1702 55.1285 22.096 55.2131 22.0439 55.3147C21.9944 55.4163 21.9697 55.5321 21.9697 55.6624C21.9697 55.8316 21.9931 55.967 22.04 56.0686C22.0869 56.1676 22.1572 56.2392 22.2509 56.2834C22.3447 56.3277 22.4632 56.3499 22.6064 56.3499C22.7809 56.3499 22.9345 56.3095 23.0673 56.2288C23.2002 56.148 23.303 56.0504 23.3759 55.9358C23.4515 55.8212 23.4866 55.7144 23.4814 55.6155L23.6338 55.9397C23.6233 56.0413 23.5895 56.1519 23.5322 56.2717C23.4775 56.3889 23.4007 56.5022 23.3017 56.6116C23.2028 56.7183 23.0856 56.8069 22.9502 56.8772C22.8173 56.9449 22.6676 56.9788 22.5009 56.9788C22.2561 56.9788 22.0413 56.9319 21.8564 56.8381C21.6741 56.7444 21.5322 56.6064 21.4306 56.4241C21.3291 56.2418 21.2783 56.0165 21.2783 55.7483C21.2783 55.5452 21.3134 55.3577 21.3838 55.1858C21.4541 55.0139 21.5582 54.8655 21.6963 54.7405C21.8343 54.6129 22.0074 54.5139 22.2158 54.4436C22.4267 54.3733 22.6702 54.3381 22.9463 54.3381H23.5322ZM26.3598 50.9006V56.9006H25.6684V50.9006H26.3598ZM26.1919 54.6272L25.9106 54.6155C25.908 54.3264 25.9406 54.0595 26.0083 53.8147C26.0786 53.5673 26.1776 53.3525 26.3052 53.1702C26.4354 52.9879 26.5903 52.8472 26.77 52.7483C26.9497 52.6467 27.1489 52.5959 27.3677 52.5959C27.5395 52.5959 27.6958 52.6246 27.8364 52.6819C27.977 52.7366 28.0968 52.8251 28.1958 52.9475C28.2947 53.0699 28.3703 53.2288 28.4223 53.4241C28.477 53.6168 28.5044 53.8525 28.5044 54.1311V56.9006H27.813V54.1233C27.813 53.9019 27.7882 53.7249 27.7388 53.592C27.6919 53.4566 27.619 53.359 27.52 53.2991C27.4236 53.2366 27.3013 53.2053 27.1528 53.2053C27.0174 53.2053 26.8911 53.2431 26.7739 53.3186C26.6567 53.3941 26.5539 53.4983 26.4653 53.6311C26.3794 53.7639 26.3117 53.9163 26.2622 54.0881C26.2153 54.2574 26.1919 54.4371 26.1919 54.6272ZM34.9136 55.4631C34.9136 55.3303 34.898 55.2131 34.8667 55.1116C34.8355 55.0074 34.7808 54.9137 34.7027 54.8303C34.6245 54.747 34.5152 54.6676 34.3745 54.592C34.2339 54.5165 34.0555 54.4397 33.8394 54.3616C33.605 54.2782 33.3928 54.1858 33.2027 54.0842C33.0126 53.9801 32.8498 53.8616 32.7144 53.7288C32.5816 53.5959 32.4787 53.4436 32.4058 53.2717C32.3329 53.0999 32.2964 52.9032 32.2964 52.6819C32.2964 52.4605 32.3342 52.2561 32.4097 52.0686C32.4878 51.8811 32.5972 51.7183 32.7378 51.5803C32.881 51.4397 33.0529 51.3303 33.2534 51.2522C33.454 51.1741 33.6779 51.135 33.9253 51.135C34.2951 51.135 34.6063 51.217 34.8589 51.3811C35.1141 51.5426 35.3068 51.7548 35.437 52.0178C35.5672 52.2782 35.6323 52.5569 35.6323 52.8538H34.9136C34.9136 52.6402 34.8784 52.4514 34.8081 52.2874C34.7404 52.1207 34.6336 51.9905 34.4878 51.8967C34.3446 51.8004 34.1571 51.7522 33.9253 51.7522C33.717 51.7522 33.5451 51.7926 33.4097 51.8733C33.2769 51.954 33.1779 52.0634 33.1128 52.2014C33.0503 52.3394 33.0191 52.497 33.0191 52.6741C33.0191 52.7939 33.0399 52.9032 33.0816 53.0022C33.1232 53.0986 33.187 53.1884 33.273 53.2717C33.3615 53.3551 33.4709 53.4319 33.6011 53.5022C33.7339 53.5725 33.8902 53.6402 34.0698 53.7053C34.3485 53.7965 34.5868 53.898 34.7847 54.01C34.9826 54.122 35.1441 54.2483 35.2691 54.3889C35.3941 54.5269 35.4852 54.6845 35.5425 54.8616C35.6024 55.0361 35.6323 55.234 35.6323 55.4553C35.6323 55.6871 35.5933 55.8967 35.5152 56.0842C35.4396 56.2717 35.329 56.4319 35.1831 56.5647C35.0373 56.6975 34.8615 56.8004 34.6558 56.8733C34.4501 56.9436 34.2183 56.9788 33.9605 56.9788C33.7365 56.9788 33.5165 56.9423 33.3003 56.8694C33.0868 56.7965 32.8928 56.6871 32.7183 56.5413C32.5438 56.3954 32.4045 56.2157 32.3003 56.0022C32.1961 55.7861 32.1441 55.5361 32.1441 55.2522H32.8628C32.8628 55.4475 32.8915 55.6155 32.9488 55.7561C33.006 55.8941 33.0855 56.0087 33.187 56.0999C33.2886 56.191 33.4045 56.2587 33.5347 56.303C33.6675 56.3446 33.8094 56.3655 33.9605 56.3655C34.1688 56.3655 34.3433 56.329 34.4839 56.2561C34.6271 56.1832 34.7339 56.079 34.8042 55.9436C34.8771 55.8082 34.9136 55.648 34.9136 55.4631ZM37.6514 50.9006V56.9006H36.96V50.9006H37.6514ZM37.4834 54.6272L37.2022 54.6155C37.1996 54.3264 37.2321 54.0595 37.2998 53.8147C37.3702 53.5673 37.4691 53.3525 37.5967 53.1702C37.7269 52.9879 37.8819 52.8472 38.0616 52.7483C38.2412 52.6467 38.4405 52.5959 38.6592 52.5959C38.8311 52.5959 38.9873 52.6246 39.128 52.6819C39.2686 52.7366 39.3884 52.8251 39.4873 52.9475C39.5863 53.0699 39.6618 53.2288 39.7139 53.4241C39.7686 53.6168 39.7959 53.8525 39.7959 54.1311V56.9006H39.1045V54.1233C39.1045 53.9019 39.0798 53.7249 39.0303 53.592C38.9834 53.4566 38.9105 53.359 38.8116 53.2991C38.7152 53.2366 38.5928 53.2053 38.4444 53.2053C38.309 53.2053 38.1827 53.2431 38.0655 53.3186C37.9483 53.3941 37.8454 53.4983 37.7569 53.6311C37.6709 53.7639 37.6032 53.9163 37.5537 54.0881C37.5069 54.2574 37.4834 54.4371 37.4834 54.6272ZM41.1627 54.9905V54.5881C41.1627 54.26 41.2043 53.9722 41.2877 53.7249C41.371 53.4749 41.4869 53.2665 41.6353 53.0999C41.7838 52.9332 41.9569 52.8082 42.1548 52.7249C42.3528 52.6389 42.565 52.5959 42.7916 52.5959C43.0233 52.5959 43.2382 52.6389 43.4361 52.7249C43.634 52.8082 43.8072 52.9332 43.9556 53.0999C44.1067 53.2665 44.2239 53.4749 44.3072 53.7249C44.3905 53.9722 44.4322 54.26 44.4322 54.5881V54.9905C44.4322 55.3186 44.3905 55.6077 44.3072 55.8577C44.2239 56.1051 44.108 56.3121 43.9595 56.4788C43.8111 56.6454 43.6379 56.7704 43.44 56.8538C43.2421 56.9371 43.0285 56.9788 42.7994 56.9788C42.5702 56.9788 42.3567 56.9371 42.1588 56.8538C41.9608 56.7704 41.7864 56.6454 41.6353 56.4788C41.4869 56.3121 41.371 56.1051 41.2877 55.8577C41.2043 55.6077 41.1627 55.3186 41.1627 54.9905ZM41.8541 54.5881V54.9905C41.8541 55.2222 41.8775 55.4254 41.9244 55.5999C41.9713 55.7743 42.0377 55.9202 42.1236 56.0374C42.2095 56.1545 42.3098 56.2431 42.4244 56.303C42.539 56.3603 42.664 56.3889 42.7994 56.3889C42.9556 56.3889 43.0923 56.3603 43.2095 56.303C43.3293 56.2431 43.4283 56.1545 43.5064 56.0374C43.5845 55.9202 43.6431 55.7743 43.6822 55.5999C43.7213 55.4254 43.7408 55.2222 43.7408 54.9905V54.5881C43.7408 54.3564 43.7173 54.1545 43.6705 53.9827C43.6236 53.8082 43.5572 53.6624 43.4713 53.5452C43.3853 53.4254 43.2838 53.3368 43.1666 53.2795C43.052 53.2196 42.927 53.1897 42.7916 53.1897C42.6588 53.1897 42.5351 53.2196 42.4205 53.2795C42.3059 53.3368 42.2056 53.4254 42.1197 53.5452C42.0364 53.6624 41.9713 53.8082 41.9244 53.9827C41.8775 54.1545 41.8541 54.3564 41.8541 54.5881ZM46.4942 53.4866V58.5256H45.8028V52.6741H46.4317L46.4942 53.4866ZM48.8575 54.5959V54.9905C48.8575 55.3238 48.8262 55.6155 48.7637 55.8655C48.7039 56.1129 48.614 56.3199 48.4942 56.4866C48.377 56.6506 48.2325 56.7743 48.0606 56.8577C47.8887 56.9384 47.6921 56.9788 47.4708 56.9788C47.2494 56.9788 47.0567 56.9371 46.8927 56.8538C46.7312 56.7678 46.5945 56.6441 46.4825 56.4827C46.3731 56.3212 46.2859 56.1272 46.2208 55.9006C46.1583 55.6715 46.1153 55.415 46.0919 55.1311V54.5295C46.1153 54.2301 46.1583 53.9618 46.2208 53.7249C46.2833 53.4853 46.3692 53.2821 46.4786 53.1155C46.5906 52.9462 46.7273 52.8173 46.8887 52.7288C47.0528 52.6402 47.2442 52.5959 47.463 52.5959C47.6895 52.5959 47.8887 52.635 48.0606 52.7131C48.2351 52.7913 48.3809 52.9124 48.4981 53.0764C48.6179 53.2379 48.7078 53.4449 48.7677 53.6975C48.8276 53.9475 48.8575 54.247 48.8575 54.5959ZM48.1661 54.9905V54.5959C48.1661 54.3616 48.1479 54.1571 48.1114 53.9827C48.0776 53.8082 48.0229 53.6637 47.9473 53.5491C47.8718 53.4345 47.7768 53.3486 47.6622 53.2913C47.5476 53.234 47.4096 53.2053 47.2481 53.2053C47.1101 53.2053 46.9877 53.234 46.8809 53.2913C46.7768 53.3486 46.6869 53.4267 46.6114 53.5256C46.5359 53.622 46.4734 53.7327 46.4239 53.8577C46.3744 53.9801 46.338 54.1077 46.3145 54.2405V55.4241C46.3588 55.5907 46.4174 55.7483 46.4903 55.8967C46.5632 56.0426 46.6609 56.1611 46.7833 56.2522C46.9083 56.3433 47.0658 56.3889 47.2559 56.3889C47.4148 56.3889 47.5515 56.3603 47.6661 56.303C47.7807 56.2457 47.8744 56.1597 47.9473 56.0452C48.0229 55.928 48.0776 55.7821 48.1114 55.6077C48.1479 55.4306 48.1661 55.2249 48.1661 54.9905ZM51.7398 56.9788C51.4872 56.9788 51.2594 56.941 51.0563 56.8655C50.8531 56.79 50.6799 56.6754 50.5367 56.5217C50.3935 56.3655 50.2841 56.1689 50.2086 55.9319C50.1331 55.6949 50.0953 55.415 50.0953 55.092V54.6155C50.0953 54.2431 50.1383 53.928 50.2242 53.6702C50.3128 53.4124 50.4313 53.2053 50.5797 53.0491C50.7281 52.8902 50.8961 52.7756 51.0836 52.7053C51.2711 52.6324 51.4638 52.5959 51.6617 52.5959C51.9273 52.5959 52.1539 52.6389 52.3414 52.7249C52.5289 52.8108 52.6813 52.9384 52.7984 53.1077C52.9156 53.2769 53.0016 53.4853 53.0563 53.7327C53.1135 53.9801 53.1422 54.2652 53.1422 54.5881V54.9905H50.5016V54.4006H52.4508V54.303C52.4404 54.0842 52.4104 53.8915 52.3609 53.7249C52.3141 53.5582 52.2359 53.428 52.1266 53.3342C52.0172 53.2379 51.8622 53.1897 51.6617 53.1897C51.5341 53.1897 51.4156 53.2118 51.3063 53.2561C51.1995 53.2978 51.107 53.372 51.0289 53.4788C50.9534 53.5829 50.8935 53.7275 50.8492 53.9124C50.8076 54.0972 50.7867 54.3316 50.7867 54.6155V55.092C50.7867 55.3186 50.8076 55.5139 50.8492 55.678C50.8935 55.8394 50.9573 55.9736 51.0406 56.0803C51.1266 56.1845 51.2307 56.2626 51.3531 56.3147C51.4781 56.3642 51.6201 56.3889 51.7789 56.3889C52.0107 56.3889 52.2021 56.3446 52.3531 56.2561C52.5042 56.165 52.6357 56.0491 52.7477 55.9084L53.1109 56.342C53.0354 56.4488 52.9365 56.5517 52.8141 56.6506C52.6943 56.747 52.5458 56.8264 52.3688 56.8889C52.1943 56.9488 51.9846 56.9788 51.7398 56.9788ZM55.9698 56.9788C55.7172 56.9788 55.4894 56.941 55.2862 56.8655C55.0831 56.79 54.9099 56.6754 54.7667 56.5217C54.6235 56.3655 54.5141 56.1689 54.4386 55.9319C54.3631 55.6949 54.3253 55.415 54.3253 55.092V54.6155C54.3253 54.2431 54.3683 53.928 54.4542 53.6702C54.5428 53.4124 54.6612 53.2053 54.8097 53.0491C54.9581 52.8902 55.1261 52.7756 55.3136 52.7053C55.5011 52.6324 55.6938 52.5959 55.8917 52.5959C56.1573 52.5959 56.3839 52.6389 56.5714 52.7249C56.7589 52.8108 56.9112 52.9384 57.0284 53.1077C57.1456 53.2769 57.2316 53.4853 57.2862 53.7327C57.3435 53.9801 57.3722 54.2652 57.3722 54.5881V54.9905H54.7316V54.4006H56.6808V54.303C56.6704 54.0842 56.6404 53.8915 56.5909 53.7249C56.5441 53.5582 56.4659 53.428 56.3566 53.3342C56.2472 53.2379 56.0922 53.1897 55.8917 53.1897C55.7641 53.1897 55.6456 53.2118 55.5362 53.2561C55.4295 53.2978 55.337 53.372 55.2589 53.4788C55.1834 53.5829 55.1235 53.7275 55.0792 53.9124C55.0375 54.0972 55.0167 54.3316 55.0167 54.6155V55.092C55.0167 55.3186 55.0375 55.5139 55.0792 55.678C55.1235 55.8394 55.1873 55.9736 55.2706 56.0803C55.3566 56.1845 55.4607 56.2626 55.5831 56.3147C55.7081 56.3642 55.85 56.3889 56.0089 56.3889C56.2407 56.3889 56.4321 56.3446 56.5831 56.2561C56.7342 56.165 56.8657 56.0491 56.9777 55.9084L57.3409 56.342C57.2654 56.4488 57.1665 56.5517 57.0441 56.6506C56.9243 56.747 56.7758 56.8264 56.5987 56.8889C56.4243 56.9488 56.2146 56.9788 55.9698 56.9788Z" fill="black"/>
</svg>
