<svg width="44" height="19" viewBox="0 0 44 19" fill="none" xmlns="http://www.w3.org/2000/svg">
<path d="M4.07875 8.00391H5.88344C6.46156 8.00391 6.93813 7.90625 7.31313 7.71094C7.68813 7.50781 7.96547 7.22656 8.14516 6.86719C8.33266 6.5 8.42641 6.07422 8.42641 5.58984C8.42641 5.15234 8.34047 4.76563 8.16859 4.42969C8.00453 4.08594 7.75063 3.82031 7.40688 3.63281C7.06313 3.4375 6.62953 3.33984 6.10609 3.33984C5.69203 3.33984 5.30922 3.42188 4.95766 3.58594C4.60609 3.75 4.32484 3.98047 4.11391 4.27734C3.90297 4.57422 3.7975 4.93359 3.7975 5.35547H0.410782C0.410782 4.41797 0.660782 3.60156 1.16078 2.90625C1.66859 2.21094 2.34828 1.66797 3.19984 1.27734C4.05141 0.886719 4.98891 0.691406 6.01234 0.691406C7.16859 0.691406 8.18031 0.878906 9.0475 1.25391C9.91469 1.62109 10.5905 2.16406 11.0748 2.88281C11.5592 3.60156 11.8014 4.49219 11.8014 5.55469C11.8014 6.09375 11.6764 6.61719 11.4264 7.125C11.1764 7.625 10.817 8.07812 10.3483 8.48438C9.88734 8.88281 9.32484 9.20312 8.66078 9.44531C7.99672 9.67969 7.25063 9.79688 6.4225 9.79688H4.07875V8.00391ZM4.07875 10.5703V8.82422H6.4225C7.35219 8.82422 8.16859 8.92969 8.87172 9.14062C9.57484 9.35156 10.1647 9.65625 10.6413 10.0547C11.1178 10.4453 11.4772 10.9102 11.7194 11.4492C11.9616 11.9805 12.0827 12.5703 12.0827 13.2188C12.0827 14.0156 11.9303 14.7266 11.6256 15.3516C11.3209 15.9688 10.8913 16.4922 10.3366 16.9219C9.78969 17.3516 9.14906 17.6797 8.41469 17.9062C7.68031 18.125 6.87953 18.2344 6.01234 18.2344C5.29359 18.2344 4.58656 18.1367 3.89125 17.9414C3.20375 17.7383 2.57875 17.4375 2.01625 17.0391C1.46156 16.6328 1.01625 16.125 0.680313 15.5156C0.352188 14.8984 0.188126 14.168 0.188126 13.3242H3.57484C3.57484 13.7617 3.68422 14.1523 3.90297 14.4961C4.12172 14.8398 4.4225 15.1094 4.80531 15.3047C5.19594 15.5 5.62953 15.5977 6.10609 15.5977C6.64516 15.5977 7.10609 15.5 7.48891 15.3047C7.87953 15.1016 8.17641 14.8203 8.37953 14.4609C8.59047 14.0938 8.69594 13.668 8.69594 13.1836C8.69594 12.5586 8.58266 12.0586 8.35609 11.6836C8.12953 11.3008 7.80531 11.0195 7.38344 10.8398C6.96156 10.6602 6.46156 10.5703 5.88344 10.5703H4.07875ZM27.1261 0.902344V18H23.7511V4.79297L19.6964 6.08203V3.42188L26.7628 0.902344H27.1261ZM35.1166 10.2305L32.4212 9.58594L33.3939 0.9375H42.9798V3.66797H36.1712L35.7494 7.45312C35.9759 7.32031 36.3197 7.17969 36.7806 7.03125C37.2416 6.875 37.7572 6.79688 38.3275 6.79688C39.1556 6.79688 39.89 6.92578 40.5306 7.18359C41.1712 7.44141 41.7142 7.81641 42.1595 8.30859C42.6127 8.80078 42.9564 9.40234 43.1908 10.1133C43.4252 10.8242 43.5423 11.6289 43.5423 12.5273C43.5423 13.2852 43.4252 14.0078 43.1908 14.6953C42.9564 15.375 42.6009 15.9844 42.1244 16.5234C41.6478 17.0547 41.0502 17.4727 40.3314 17.7773C39.6127 18.082 38.7611 18.2344 37.7767 18.2344C37.0423 18.2344 36.3314 18.125 35.6439 17.9062C34.9642 17.6875 34.3509 17.3633 33.8041 16.9336C33.265 16.5039 32.8314 15.9844 32.5033 15.375C32.183 14.7578 32.015 14.0547 31.9994 13.2656H35.3509C35.3978 13.75 35.5228 14.168 35.7259 14.5195C35.9369 14.8633 36.2142 15.1289 36.558 15.3164C36.9017 15.5039 37.3041 15.5977 37.765 15.5977C38.1947 15.5977 38.5619 15.5156 38.8666 15.3516C39.1712 15.1875 39.4173 14.9609 39.6048 14.6719C39.7923 14.375 39.9291 14.0312 40.015 13.6406C40.1087 13.2422 40.1556 12.8125 40.1556 12.3516C40.1556 11.8906 40.1009 11.4727 39.9916 11.0977C39.8822 10.7227 39.7142 10.3984 39.4877 10.125C39.2611 9.85156 38.972 9.64062 38.6205 9.49219C38.2767 9.34375 37.8744 9.26953 37.4134 9.26953C36.7884 9.26953 36.3041 9.36719 35.9603 9.5625C35.6244 9.75781 35.3431 9.98047 35.1166 10.2305Z" fill="#ED4D2D"/>
</svg>
