<svg width="14" height="14" viewBox="0 0 14 14" fill="none" xmlns="http://www.w3.org/2000/svg">
<circle cx="7" cy="7" r="6.5" stroke="#DD9D3A"/>
<path d="M8.57031 8.60156C8.57031 8.44531 8.54427 8.30599 8.49219 8.18359C8.4401 8.0612 8.35417 7.95182 8.23438 7.85547C8.11719 7.75651 7.95833 7.66536 7.75781 7.58203C7.5599 7.49609 7.3125 7.41146 7.01562 7.32812C6.73177 7.2474 6.47526 7.15885 6.24609 7.0625C6.01693 6.96615 5.82031 6.85547 5.65625 6.73047C5.49479 6.60547 5.37109 6.45964 5.28516 6.29297C5.19922 6.1237 5.15625 5.92708 5.15625 5.70312C5.15625 5.48438 5.20312 5.28516 5.29688 5.10547C5.39062 4.92578 5.52214 4.77083 5.69141 4.64062C5.86328 4.51042 6.0651 4.41016 6.29688 4.33984C6.53125 4.26953 6.78776 4.23438 7.06641 4.23438C7.46484 4.23438 7.80859 4.3099 8.09766 4.46094C8.38932 4.61198 8.61458 4.81641 8.77344 5.07422C8.9349 5.32943 9.01562 5.61589 9.01562 5.93359H8.53516C8.53516 5.6862 8.47656 5.46615 8.35938 5.27344C8.24479 5.07812 8.07812 4.92578 7.85938 4.81641C7.64323 4.70443 7.37891 4.64844 7.06641 4.64844C6.75391 4.64844 6.49089 4.69661 6.27734 4.79297C6.06641 4.88672 5.90625 5.01302 5.79688 5.17188C5.6901 5.32812 5.63672 5.5026 5.63672 5.69531C5.63672 5.83073 5.66276 5.95573 5.71484 6.07031C5.76693 6.18229 5.85156 6.28776 5.96875 6.38672C6.08854 6.48307 6.24609 6.57422 6.44141 6.66016C6.63672 6.74349 6.8776 6.82292 7.16406 6.89844C7.46615 6.98177 7.73438 7.07422 7.96875 7.17578C8.20312 7.27734 8.40104 7.39453 8.5625 7.52734C8.72396 7.65755 8.84635 7.8099 8.92969 7.98438C9.01302 8.15885 9.05469 8.36198 9.05469 8.59375C9.05469 8.82552 9.00521 9.03385 8.90625 9.21875C8.8099 9.40104 8.67318 9.55599 8.49609 9.68359C8.32161 9.8112 8.11458 9.90885 7.875 9.97656C7.63802 10.0443 7.37891 10.0781 7.09766 10.0781C6.84505 10.0781 6.59375 10.0456 6.34375 9.98047C6.09375 9.91536 5.86458 9.8151 5.65625 9.67969C5.45052 9.54167 5.28516 9.36458 5.16016 9.14844C5.03776 8.93229 4.97656 8.67448 4.97656 8.375H5.45312C5.45312 8.61458 5.5013 8.81641 5.59766 8.98047C5.69401 9.14453 5.82161 9.27734 5.98047 9.37891C6.14193 9.48047 6.31901 9.55469 6.51172 9.60156C6.70703 9.64583 6.90234 9.66797 7.09766 9.66797C7.39714 9.66797 7.65625 9.6237 7.875 9.53516C8.09635 9.44661 8.26693 9.32292 8.38672 9.16406C8.50911 9.0026 8.57031 8.8151 8.57031 8.60156Z" fill="#DD9D3A"/>
</svg>
