<svg width="18" height="14" viewBox="0 0 18 14" fill="none" xmlns="http://www.w3.org/2000/svg">
<rect x="0.5" y="3.73076" width="17" height="9.76923" rx="0.5" stroke="#ED4D2D"/>
<path d="M14.9286 1.10555V1.65385H4.5619L6.91332 1.35842L11.1929 0.928266L14.3786 0.608062C14.673 0.578468 14.9286 0.809642 14.9286 1.10555Z" fill="#C4C4C4" stroke="#ED4D2D"/>
<rect x="1" y="3" width="2.57143" height="2" fill="white"/>
<mask id="path-4-inside-1_84_269" fill="white">
<path d="M0 2H1V4H0V2Z"/>
</mask>
<path d="M0 2H1V4H0V2Z" fill="#C4C4C4"/>
<path d="M0 2V1H-1V2H0ZM1 2H2V1H1V2ZM1 4V5H2V4H1ZM0 4H-1V5H0V4ZM0 3H1V1H0V3ZM0 2V4H2V2H0ZM1 3H0V5H1V3ZM1 4V2H-1V4H1Z" fill="#ED4D2D" mask="url(#path-4-inside-1_84_269)"/>
<path d="M10.3445 9.22957C10.3445 9.11499 10.3158 9.0017 10.2585 8.88972C10.2013 8.77775 10.0906 8.67488 9.92651 8.58113C9.76506 8.48738 9.52677 8.40795 9.21167 8.34285C8.97729 8.29077 8.76766 8.23217 8.58276 8.16707C8.40047 8.10196 8.24683 8.02384 8.12183 7.93269C7.99683 7.84155 7.90177 7.73217 7.83667 7.60457C7.77157 7.47696 7.73901 7.32592 7.73901 7.15144C7.73901 6.99519 7.77287 6.84806 7.84058 6.71004C7.91089 6.56941 8.00985 6.44702 8.13745 6.34285C8.26766 6.23608 8.42391 6.15275 8.6062 6.09285C8.7911 6.03295 8.99813 6.00301 9.22729 6.00301C9.55282 6.00301 9.83146 6.059 10.0632 6.17097C10.2976 6.28035 10.476 6.43009 10.5984 6.62019C10.7234 6.8103 10.7859 7.02514 10.7859 7.26472H10.321C10.321 7.11889 10.2781 6.98087 10.1921 6.85066C10.1088 6.72045 9.98511 6.61368 9.82104 6.53035C9.65959 6.44702 9.46167 6.40535 9.22729 6.40535C8.98511 6.40535 8.78849 6.44181 8.63745 6.51472C8.48641 6.58764 8.37573 6.68009 8.30542 6.79207C8.23771 6.90405 8.20386 7.01993 8.20386 7.13972C8.20386 7.23347 8.21818 7.31941 8.24683 7.39754C8.27808 7.47306 8.33276 7.54337 8.41089 7.60847C8.49162 7.67358 8.6062 7.73478 8.75464 7.79207C8.90308 7.84936 9.09578 7.90535 9.33276 7.96004C9.67391 8.03556 9.95256 8.12801 10.1687 8.23738C10.3875 8.34415 10.5489 8.47696 10.6531 8.63582C10.7572 8.79207 10.8093 8.98217 10.8093 9.20613C10.8093 9.38061 10.7729 9.54077 10.7 9.6866C10.627 9.82983 10.5216 9.95353 10.3835 10.0577C10.2481 10.1619 10.0841 10.2426 9.89136 10.2999C9.70125 10.3572 9.48771 10.3858 9.25073 10.3858C8.89396 10.3858 8.59188 10.3272 8.34448 10.21C8.09969 10.0902 7.91349 9.934 7.78589 9.74129C7.66089 9.54597 7.59839 9.33894 7.59839 9.12019H8.06323C8.07886 9.33894 8.14787 9.51212 8.27026 9.63972C8.39266 9.76472 8.5424 9.85327 8.71948 9.90535C8.89917 9.95743 9.07625 9.98347 9.25073 9.98347C9.49032 9.98347 9.69084 9.94832 9.85229 9.87801C10.0138 9.80769 10.1361 9.71525 10.2195 9.60066C10.3028 9.48608 10.3445 9.36238 10.3445 9.22957Z" fill="#ED4D2D"/>
</svg>
