<svg width="19" height="17" viewBox="0 0 19 17" fill="none" xmlns="http://www.w3.org/2000/svg">
<path d="M3.75873 14.0612L3.4414 13.8693L3.16566 14.1173C2.42169 14.7863 1.85087 15.2566 1.41969 15.5699C1.21064 15.7218 1.04483 15.8289 0.916122 15.9027C0.921663 15.8816 0.927622 15.8598 0.934017 15.8372C1.04271 15.4532 1.23514 14.9787 1.43534 14.4851C1.51134 14.2977 1.58846 14.1076 1.66254 13.9186C1.79094 13.591 1.911 13.2633 1.98012 12.9883C2.01441 12.8518 2.04221 12.7055 2.04557 12.5662C2.04852 12.4437 2.03614 12.2292 1.89022 12.0471C1.00329 10.9399 0.5 9.56538 0.5 8C0.5 3.90211 3.98301 0.5 9 0.5C14.0545 0.5 18 3.93494 18 8C18 12.0282 14.1003 15 9 15C6.85972 15 5.1112 14.879 3.75873 14.0612ZM0.59135 16.0464C0.591392 16.0463 0.592687 16.0461 0.59512 16.0459C0.592526 16.0464 0.591309 16.0464 0.59135 16.0464Z" stroke="white"/>
<circle cx="5" cy="8" r="1" fill="white"/>
<circle cx="9" cy="8" r="1" fill="white"/>
<circle cx="13" cy="8" r="1" fill="white"/>
</svg>
