<svg width="20" height="20" viewBox="0 0 20 20" fill="none" xmlns="http://www.w3.org/2000/svg">
<circle cx="10" cy="10" r="10" fill="#03BD00"/>
<path d="M17 8.90085C17 11.6075 8.59985 20.1378 10.0998 15.1378C11.5998 10.1378 3.0998 15.5833 3 8.90085C3 6.19419 6.13401 4 10 4C13.866 4 17 6.19419 17 8.90085Z" fill="white"/>
<path d="M7.07617 9.57812V10H5.64648V9.57812H7.07617ZM5.80859 7.15625V10H5.27148V7.15625H5.80859ZM8.44781 7.15625V10H7.9107V7.15625H8.44781ZM11.753 7.15625V10H11.214L10.005 8.02734V10H9.46789V7.15625H10.005L11.2179 9.13086V7.15625H11.753ZM14.6247 9.57812V10H13.113V9.57812H14.6247ZM13.277 7.15625V10H12.7399V7.15625H13.277ZM14.4274 8.33008V8.74219H13.113V8.33008H14.4274ZM14.6188 7.15625V7.58008H13.113V7.15625H14.6188Z" fill="#03BD00"/>
</svg>
