<svg width="17" height="17" viewBox="0 0 17 17" fill="none" xmlns="http://www.w3.org/2000/svg">
<rect x="0.5" y="5.5" width="16" height="11" rx="0.5" stroke="#707070"/>
<path d="M14 5.5C14 4.77773 13.8577 4.06253 13.5813 3.39524C13.3049 2.72795 12.8998 2.12163 12.3891 1.61091C11.8784 1.10019 11.272 0.695063 10.6048 0.418662C9.93747 0.142262 9.22227 -3.15714e-08 8.5 0C7.77773 3.15714e-08 7.06253 0.142262 6.39524 0.418663C5.72795 0.695064 5.12163 1.10019 4.61091 1.61091C4.10019 2.12164 3.69506 2.72795 3.41866 3.39524C3.14226 4.06253 3 4.77773 3 5.5H4.0396C4.0396 4.91425 4.15497 4.33424 4.37913 3.79308C4.60328 3.25192 4.93183 2.76021 5.34602 2.34602C5.76021 1.93183 6.25192 1.60328 6.79308 1.37913C7.33424 1.15497 7.91425 1.0396 8.5 1.0396C9.08575 1.0396 9.66576 1.15497 10.2069 1.37913C10.7481 1.60328 11.2398 1.93183 11.654 2.34602C12.0682 2.76021 12.3967 3.25192 12.6209 3.79308C12.845 4.33424 12.9604 4.91425 12.9604 5.5H14Z" fill="#707070"/>
<circle cx="9" cy="11" r="2" fill="#707070"/>
</svg>
