<svg width="22" height="24" viewBox="0 0 22 24" fill="none" xmlns="http://www.w3.org/2000/svg">
<path d="M13.2 3H19.0556V17H2.45557V3H7.82223H8.0064L8.14656 2.88054L9.65836 1.59207C10.2586 1.0805 11.1525 1.12112 11.7039 1.68502L12.8425 2.84956L12.9896 3H13.2Z" stroke="#505050"/>
<path d="M0.922774 19L2.22648 17H19.318L20.9476 19H0.922774Z" stroke="#505050"/>
<path d="M8.46532 21.3449C8.45898 21.3267 8.4526 21.3053 8.44623 21.2809C8.45129 21.2982 8.4566 21.3149 8.46218 21.3309C8.58211 21.674 8.77509 21.9866 9.02802 22.246C9.28099 22.5054 9.58771 22.7051 9.92659 22.83C10.2655 22.955 10.6276 23.0018 10.9868 22.9669C11.346 22.932 11.6926 22.8163 12.0018 22.6287C12.3109 22.4411 12.5747 22.1865 12.7748 21.8838C12.955 21.6112 13.0797 21.3056 13.1426 20.9849C13.0792 21.3142 12.9519 21.627 12.7683 21.9047C12.5663 22.2103 12.3012 22.4655 11.9929 22.6526C11.6845 22.8397 11.3402 22.9543 10.9846 22.9889C10.629 23.0235 10.2702 22.9772 9.93366 22.8531C9.59707 22.729 9.29057 22.53 9.0365 22.2694C8.7824 22.0089 8.58709 21.6933 8.46532 21.3449ZM13.2134 20.1574C13.2143 20.1075 13.2147 20.0546 13.2144 20H13.2492C13.2494 20.0606 13.2474 20.1255 13.2432 20.1945C13.2301 20.4099 13.1982 20.6303 13.1668 20.8387C13.1903 20.6648 13.2089 20.4067 13.2134 20.1574Z" fill="#C4C4C4" stroke="#505050"/>
</svg>
