<svg width="20" height="22" viewBox="0 0 20 22" fill="none" xmlns="http://www.w3.org/2000/svg">
<path d="M19.2579 9C19.2579 11.3869 18.257 13.6761 16.4755 15.364C14.6939 17.0518 12.2775 18 9.75794 18C7.23838 18 4.82202 17.0518 3.04043 15.364C1.25883 13.6761 0.257937 11.387 0.257935 9.00001L2.42823 9.00001C2.42823 10.8417 3.20047 12.6079 4.57506 13.9101C5.94964 15.2123 7.81398 15.9439 9.75794 15.9439C11.7019 15.9439 13.5662 15.2123 14.9408 13.9101C16.3154 12.6079 17.0876 10.8416 17.0876 9H19.2579Z" fill="#C4C4C4"/>
<rect x="2.80249" y="14.2226" width="1" height="4" transform="rotate(44.4777 2.80249 14.2226)" fill="#C4C4C4"/>
<rect x="6.08777" y="16" width="1" height="4.37039" transform="rotate(27.2241 6.08777 16)" fill="#C4C4C4"/>
<rect x="9.29163" y="17.0204" width="1" height="4" transform="rotate(-0.727042 9.29163 17.0204)" fill="#C4C4C4"/>
<rect x="13.2579" y="16.3328" width="1" height="4" transform="rotate(-19.4371 13.2579 16.3328)" fill="#C4C4C4"/>
<rect x="16.2579" y="13.5478" width="1" height="4.80271" transform="rotate(-33.2192 16.2579 13.5478)" fill="#C4C4C4"/>
</svg>
