<svg width="428" height="249" viewBox="0 0 428 249" fill="none" xmlns="http://www.w3.org/2000/svg">
<rect width="428" height="229" fill="#123366"/>
<path d="M0 167H120V229H0V167Z" fill="#FA8212"/>
<path d="M0 216.594C1.87356e-05 197.586 8.03149e-06 132.057 8.03149e-06 108.547C-1.5523e-05 86.0374 5.88088 59.2641 18.0597 39.9179C30.2385 20.5716 41.1916 7.50326 70.4034 3.81636e-06C93.7248 9.13009e-06 132.594 0 155.915 0C178.423 5.51737 188.892 18.7036 203.731 36.1767C218.569 53.6498 227.346 75.2964 228.788 97.9818C230.231 120.667 224.266 143.214 211.756 162.356C199.246 181.498 169.776 206.282 148.141 214.494L110.309 229L82.3232 206.49C82.3232 206.49 71.9581 187.482 54.8557 200.988C37.7533 214.494 42.6844 207.532 34.1255 209.492C22.3753 212.182 0 216.594 0 216.594Z" fill="#ED4D2D"/>
<path d="M162 229C162 223.696 159.577 218.609 155.263 214.858C150.95 211.107 145.1 209 139 209C132.9 209 127.05 211.107 122.737 214.858C118.423 218.609 116 223.696 116 229L139 229H162Z" fill="#FA8212"/>
<path d="M324 -4.24874e-06H428V60C428 60 412 60 400.5 45C389 30 369.5 49.5 363.5 40C357.5 30.5 355 32 340.5 26.5C326 21 324 -4.24874e-06 324 -4.24874e-06Z" fill="#1D5AB5"/>
</svg>
