<svg width="23" height="19" viewBox="0 0 23 19" fill="none" xmlns="http://www.w3.org/2000/svg">
<path d="M0.5 13.8673C0.5 13.6185 0.682965 13.4075 0.929289 13.3723L6.8708 12.5235C7.06871 12.4953 7.25898 12.4277 7.43041 12.3248L11.6807 9.77469C11.855 9.6701 12.0753 9.68146 12.2379 9.80344L15.495 12.2463C15.6967 12.3976 15.9333 12.4956 16.1829 12.5312L22.0707 13.3723C22.317 13.4075 22.5 13.6185 22.5 13.8673V18C22.5 18.2761 22.2761 18.5 22 18.5H1C0.723858 18.5 0.5 18.2761 0.5 18V13.8673Z" stroke="#505050"/>
<path d="M15.3463 12.2011C16.0811 11.2746 16.6031 10.0638 16.8464 8.72182C17.0896 7.37989 17.0432 5.96711 16.7129 4.66213C16.3826 3.35716 15.7834 2.21861 14.9909 1.39045C14.1984 0.562293 13.2483 0.0817278 12.2608 0.0095257C11.2732 -0.0626764 10.2925 0.276727 9.44274 0.984816C8.59296 1.69291 7.91225 2.73788 7.48668 3.98759C7.06111 5.2373 6.90979 6.63562 7.05188 8.00573C7.19396 9.37583 7.62305 10.6562 8.28489 11.6849L9.07277 10.6913C8.55128 9.88081 8.21319 8.87198 8.10124 7.79244C7.98929 6.7129 8.10851 5.61112 8.44383 4.62644C8.77915 3.64176 9.3155 2.8184 9.98507 2.26047C10.6546 1.70255 11.4273 1.43512 12.2055 1.49202C12.9836 1.54891 13.7322 1.92756 14.3566 2.58008C14.981 3.23261 15.4532 4.12971 15.7134 5.15793C15.9737 6.18615 16.0103 7.29932 15.8186 8.35667C15.6269 9.41401 15.2156 10.368 14.6367 11.0981L15.3463 12.2011Z" fill="#505050"/>
<rect x="9" y="9" width="6" height="4" fill="white"/>
</svg>
