<svg width="56" height="65" viewBox="0 0 56 65" fill="none" xmlns="http://www.w3.org/2000/svg">
<rect x="23" y="32" width="5" height="2" rx="1" fill="white"/>
<path d="M5.24719 52.6702H4.005V52.0569H5.24719C5.48156 52.0569 5.67036 52.01 5.81359 51.9163C5.95943 51.8225 6.06489 51.6923 6.13 51.5256C6.19771 51.359 6.23156 51.1689 6.23156 50.9553C6.23156 50.76 6.19771 50.5764 6.13 50.4045C6.06489 50.2327 5.95943 50.0946 5.81359 49.9905C5.67036 49.8837 5.48156 49.8303 5.24719 49.8303H4.15344V54.9006H3.43469V49.2131H5.24719C5.61437 49.2131 5.92427 49.2874 6.17687 49.4358C6.42948 49.5842 6.62088 49.79 6.75109 50.053C6.88391 50.3134 6.95031 50.6116 6.95031 50.9475C6.95031 51.3121 6.88391 51.6233 6.75109 51.8811C6.62088 52.1389 6.42948 52.3355 6.17687 52.4709C5.92427 52.6038 5.61437 52.6702 5.24719 52.6702ZM10.3952 53.9241V50.6741H11.0866V54.9006H10.4303L10.3952 53.9241ZM10.5241 53.0334L10.7975 53.0256C10.7975 53.3069 10.7728 53.5673 10.7233 53.8069C10.6764 54.0439 10.5983 54.2496 10.4889 54.4241C10.3821 54.5986 10.2402 54.7353 10.0631 54.8342C9.88604 54.9306 9.66859 54.9788 9.41078 54.9788C9.2363 54.9788 9.07745 54.9488 8.93422 54.8889C8.79359 54.829 8.6712 54.7366 8.56703 54.6116C8.46547 54.4866 8.38604 54.3238 8.32875 54.1233C8.27406 53.9228 8.24672 53.6819 8.24672 53.4006V50.6741H8.93422V53.4084C8.93422 53.5986 8.95115 53.7561 8.985 53.8811C9.01885 54.0035 9.06443 54.1012 9.12172 54.1741C9.17901 54.2444 9.24281 54.2939 9.31312 54.3225C9.38344 54.3512 9.45505 54.3655 9.52797 54.3655C9.77276 54.3655 9.96807 54.3069 10.1139 54.1897C10.2597 54.0699 10.3639 53.9097 10.4264 53.7092C10.4915 53.5061 10.5241 53.2808 10.5241 53.0334ZM13.3478 48.9006V54.9006H12.6603V48.9006H13.3478ZM16.9723 53.8186C16.9723 53.7118 16.9463 53.6181 16.8942 53.5374C16.8421 53.4566 16.7562 53.3785 16.6364 53.303C16.5192 53.2275 16.3604 53.1467 16.1598 53.0608C15.9645 52.9801 15.7887 52.9006 15.6325 52.8225C15.4789 52.7418 15.3486 52.6545 15.2419 52.5608C15.1351 52.467 15.0531 52.359 14.9958 52.2366C14.9411 52.1116 14.9137 51.9644 14.9137 51.7952C14.9137 51.6259 14.945 51.4696 15.0075 51.3264C15.0726 51.1806 15.1637 51.053 15.2809 50.9436C15.3981 50.8342 15.5387 50.7496 15.7028 50.6897C15.8669 50.6272 16.0505 50.5959 16.2536 50.5959C16.5427 50.5959 16.7887 50.6519 16.9919 50.7639C17.195 50.8759 17.3499 51.0295 17.4567 51.2249C17.5661 51.4176 17.6208 51.635 17.6208 51.8772H16.9333C16.9333 51.76 16.9072 51.6493 16.8552 51.5452C16.8031 51.441 16.7262 51.3564 16.6247 51.2913C16.5231 51.2236 16.3994 51.1897 16.2536 51.1897C16.0999 51.1897 15.9749 51.217 15.8786 51.2717C15.7822 51.3264 15.7119 51.398 15.6677 51.4866C15.626 51.5725 15.6052 51.6676 15.6052 51.7717C15.6052 51.8499 15.6156 51.9176 15.6364 51.9749C15.6598 52.0295 15.6989 52.0816 15.7536 52.1311C15.8083 52.178 15.8825 52.2275 15.9762 52.2795C16.0726 52.329 16.195 52.3863 16.3434 52.4514C16.6299 52.5634 16.8708 52.6767 17.0661 52.7913C17.2614 52.9058 17.4098 53.04 17.5114 53.1936C17.613 53.3472 17.6637 53.5374 17.6637 53.7639C17.6637 53.9488 17.6299 54.1168 17.5622 54.2678C17.4971 54.4163 17.4033 54.5439 17.2809 54.6506C17.1585 54.7574 17.0114 54.8394 16.8395 54.8967C16.6703 54.9514 16.4802 54.9788 16.2692 54.9788C15.9515 54.9788 15.682 54.9163 15.4606 54.7913C15.2419 54.6637 15.0752 54.4983 14.9606 54.2952C14.8486 54.0894 14.7927 53.8694 14.7927 53.635H15.4841C15.4919 53.8329 15.5361 53.9866 15.6169 54.0959C15.7002 54.2053 15.8005 54.2808 15.9177 54.3225C16.0348 54.3642 16.152 54.385 16.2692 54.385C16.4229 54.385 16.5518 54.3629 16.6559 54.3186C16.7601 54.2717 16.8382 54.2053 16.8903 54.1194C16.945 54.0334 16.9723 53.9332 16.9723 53.8186ZM21.1203 54.178V51.885C21.1203 51.7183 21.0943 51.5842 21.0422 51.4827C20.9927 51.3811 20.9172 51.3069 20.8156 51.26C20.7167 51.2131 20.5917 51.1897 20.4406 51.1897C20.2948 51.1897 20.1685 51.2196 20.0617 51.2795C19.9576 51.3394 19.8768 51.4189 19.8195 51.5178C19.7648 51.6168 19.7375 51.7262 19.7375 51.8459H19.0461C19.0461 51.6949 19.0786 51.5452 19.1437 51.3967C19.2115 51.2483 19.3078 51.1142 19.4328 50.9944C19.5578 50.872 19.7076 50.7756 19.882 50.7053C20.0591 50.6324 20.257 50.5959 20.4758 50.5959C20.7362 50.5959 20.9667 50.6389 21.1672 50.7249C21.3677 50.8082 21.5253 50.9449 21.6398 51.135C21.7544 51.3251 21.8117 51.5777 21.8117 51.8928V53.9788C21.8117 54.1194 21.8221 54.2691 21.843 54.428C21.8664 54.5868 21.899 54.7236 21.9406 54.8381V54.9006H21.2258C21.1919 54.8173 21.1659 54.7066 21.1477 54.5686C21.1294 54.428 21.1203 54.2978 21.1203 54.178ZM21.2297 52.3381L21.2375 52.8459H20.757C20.593 52.8459 20.4432 52.8642 20.3078 52.9006C20.175 52.9371 20.0604 52.9905 19.9641 53.0608C19.8677 53.1285 19.7935 53.2131 19.7414 53.3147C19.6919 53.4163 19.6672 53.5321 19.6672 53.6624C19.6672 53.8316 19.6906 53.967 19.7375 54.0686C19.7844 54.1676 19.8547 54.2392 19.9484 54.2834C20.0422 54.3277 20.1607 54.3499 20.3039 54.3499C20.4784 54.3499 20.632 54.3095 20.7648 54.2288C20.8977 54.148 21.0005 54.0504 21.0734 53.9358C21.149 53.8212 21.1841 53.7144 21.1789 53.6155L21.3312 53.9397C21.3208 54.0413 21.287 54.1519 21.2297 54.2717C21.175 54.3889 21.0982 54.5022 20.9992 54.6116C20.9003 54.7183 20.7831 54.8069 20.6477 54.8772C20.5148 54.9449 20.3651 54.9788 20.1984 54.9788C19.9536 54.9788 19.7388 54.9319 19.5539 54.8381C19.3716 54.7444 19.2297 54.6064 19.1281 54.4241C19.0266 54.2418 18.9758 54.0165 18.9758 53.7483C18.9758 53.5452 19.0109 53.3577 19.0812 53.1858C19.1516 53.0139 19.2557 52.8655 19.3937 52.7405C19.5318 52.6129 19.7049 52.5139 19.9133 52.4436C20.1242 52.3733 20.3677 52.3381 20.6437 52.3381H21.2297ZM24.0534 54.0413V54.6233C24.0534 54.8603 23.9935 55.1103 23.8737 55.3733C23.754 55.6389 23.586 55.8603 23.3698 56.0374L22.9597 55.7522C23.043 55.6376 23.1133 55.5204 23.1706 55.4006C23.2279 55.2834 23.2709 55.1611 23.2995 55.0334C23.3308 54.9084 23.3464 54.7756 23.3464 54.635V54.0413H24.0534ZM27.3459 49.2131V54.9006H26.635V49.2131H27.3459ZM28.842 49.2131V49.8303H25.1428V49.2131H28.842ZM31.6931 54.178V51.885C31.6931 51.7183 31.6671 51.5842 31.615 51.4827C31.5655 51.3811 31.49 51.3069 31.3884 51.26C31.2895 51.2131 31.1645 51.1897 31.0134 51.1897C30.8676 51.1897 30.7413 51.2196 30.6345 51.2795C30.5304 51.3394 30.4496 51.4189 30.3923 51.5178C30.3377 51.6168 30.3103 51.7262 30.3103 51.8459H29.6189C29.6189 51.6949 29.6515 51.5452 29.7166 51.3967C29.7843 51.2483 29.8806 51.1142 30.0056 50.9944C30.1306 50.872 30.2804 50.7756 30.4548 50.7053C30.6319 50.6324 30.8298 50.5959 31.0486 50.5959C31.309 50.5959 31.5395 50.6389 31.74 50.7249C31.9405 50.8082 32.0981 50.9449 32.2127 51.135C32.3272 51.3251 32.3845 51.5777 32.3845 51.8928V53.9788C32.3845 54.1194 32.3949 54.2691 32.4158 54.428C32.4392 54.5868 32.4718 54.7236 32.5134 54.8381V54.9006H31.7986C31.7647 54.8173 31.7387 54.7066 31.7205 54.5686C31.7022 54.428 31.6931 54.2978 31.6931 54.178ZM31.8025 52.3381L31.8103 52.8459H31.3298C31.1658 52.8459 31.016 52.8642 30.8806 52.9006C30.7478 52.9371 30.6332 52.9905 30.5369 53.0608C30.4405 53.1285 30.3663 53.2131 30.3142 53.3147C30.2647 53.4163 30.24 53.5321 30.24 53.6624C30.24 53.8316 30.2634 53.967 30.3103 54.0686C30.3572 54.1676 30.4275 54.2392 30.5212 54.2834C30.615 54.3277 30.7335 54.3499 30.8767 54.3499C31.0512 54.3499 31.2048 54.3095 31.3377 54.2288C31.4705 54.148 31.5733 54.0504 31.6462 53.9358C31.7218 53.8212 31.7569 53.7144 31.7517 53.6155L31.9041 53.9397C31.8936 54.0413 31.8598 54.1519 31.8025 54.2717C31.7478 54.3889 31.671 54.5022 31.572 54.6116C31.4731 54.7183 31.3559 54.8069 31.2205 54.8772C31.0877 54.9449 30.9379 54.9788 30.7712 54.9788C30.5265 54.9788 30.3116 54.9319 30.1267 54.8381C29.9444 54.7444 29.8025 54.6064 29.7009 54.4241C29.5994 54.2418 29.5486 54.0165 29.5486 53.7483C29.5486 53.5452 29.5837 53.3577 29.6541 53.1858C29.7244 53.0139 29.8285 52.8655 29.9666 52.7405C30.1046 52.6129 30.2778 52.5139 30.4861 52.4436C30.697 52.3733 30.9405 52.3381 31.2166 52.3381H31.8025ZM36.2278 50.6741H36.8489V54.9358C36.8489 55.3082 36.7838 55.6155 36.6536 55.8577C36.526 56.0999 36.3476 56.2782 36.1184 56.3928C35.8893 56.51 35.6249 56.5686 35.3255 56.5686C35.2187 56.5686 35.0846 56.5491 34.9231 56.51C34.7617 56.4709 34.6002 56.4111 34.4388 56.3303C34.2773 56.2522 34.1445 56.1532 34.0403 56.0334L34.3255 55.553C34.4739 55.704 34.6315 55.8121 34.7981 55.8772C34.9648 55.9423 35.1236 55.9749 35.2747 55.9749C35.4544 55.9749 35.6106 55.9423 35.7434 55.8772C35.8763 55.8121 35.9791 55.7053 36.052 55.5569C36.1249 55.4111 36.1614 55.2157 36.1614 54.9709V51.6038L36.2278 50.6741ZM33.7981 52.9905V52.5959C33.7981 52.247 33.8307 51.9475 33.8958 51.6975C33.9609 51.4449 34.0546 51.2379 34.177 51.0764C34.302 50.9124 34.4518 50.7913 34.6263 50.7131C34.8007 50.635 34.996 50.5959 35.2122 50.5959C35.4309 50.5959 35.6197 50.6402 35.7786 50.7288C35.9374 50.8173 36.069 50.9462 36.1731 51.1155C36.2799 51.2821 36.3632 51.4853 36.4231 51.7249C36.4856 51.9618 36.5286 52.2301 36.552 52.5295V53.0569C36.5286 53.3538 36.4856 53.6207 36.4231 53.8577C36.3632 54.0946 36.2786 54.2965 36.1692 54.4631C36.0624 54.6298 35.9296 54.7574 35.7708 54.8459C35.6119 54.9345 35.4231 54.9788 35.2044 54.9788C34.9908 54.9788 34.7981 54.9384 34.6263 54.8577C34.4544 54.7743 34.3059 54.6506 34.1809 54.4866C34.0585 54.3199 33.9635 54.1129 33.8958 53.8655C33.8307 53.6155 33.7981 53.3238 33.7981 52.9905ZM34.4895 52.5959V52.9905C34.4895 53.2249 34.5065 53.4293 34.5403 53.6038C34.5742 53.7756 34.6263 53.9189 34.6966 54.0334C34.7695 54.1454 34.8619 54.2288 34.9739 54.2834C35.0885 54.3381 35.2252 54.3655 35.3841 54.3655C35.5768 54.3655 35.7343 54.3186 35.8567 54.2249C35.9791 54.1311 36.0768 54.0074 36.1497 53.8538C36.2252 53.6975 36.2851 53.5295 36.3294 53.3499V52.2405C36.3033 52.1077 36.2656 51.9801 36.2161 51.8577C36.1692 51.7327 36.108 51.622 36.0325 51.5256C35.957 51.4267 35.8658 51.3486 35.7591 51.2913C35.6549 51.234 35.5325 51.2053 35.3919 51.2053C35.233 51.2053 35.0963 51.234 34.9817 51.2913C34.8671 51.3486 34.7734 51.4345 34.7005 51.5491C34.6276 51.6637 34.5742 51.8082 34.5403 51.9827C34.5065 52.1571 34.4895 52.3616 34.4895 52.5959ZM39.1062 50.6741V54.9006H38.4187V50.6741H39.1062ZM38.3797 49.553C38.3797 49.4358 38.4122 49.3368 38.4773 49.2561C38.5424 49.1754 38.6401 49.135 38.7703 49.135C38.9005 49.135 38.9982 49.1754 39.0633 49.2561C39.131 49.3368 39.1648 49.4358 39.1648 49.553C39.1648 49.665 39.131 49.7613 39.0633 49.842C38.9982 49.9202 38.9005 49.9592 38.7703 49.9592C38.6401 49.9592 38.5424 49.9202 38.4773 49.842C38.4122 49.7613 38.3797 49.665 38.3797 49.553ZM41.3714 48.9006V54.9006H40.68V48.9006H41.3714ZM41.2034 52.6272L40.9222 52.6155C40.9196 52.3264 40.9521 52.0595 41.0198 51.8147C41.0902 51.5673 41.1891 51.3525 41.3167 51.1702C41.4469 50.9879 41.6019 50.8472 41.7816 50.7483C41.9613 50.6467 42.1605 50.5959 42.3792 50.5959C42.5511 50.5959 42.7073 50.6246 42.848 50.6819C42.9886 50.7366 43.1084 50.8251 43.2073 50.9475C43.3063 51.0699 43.3818 51.2288 43.4339 51.4241C43.4886 51.6168 43.5159 51.8525 43.5159 52.1311V54.9006H42.8245V52.1233C42.8245 51.9019 42.7998 51.7249 42.7503 51.592C42.7034 51.4566 42.6305 51.359 42.5316 51.2991C42.4352 51.2366 42.3128 51.2053 42.1644 51.2053C42.029 51.2053 41.9027 51.2431 41.7855 51.3186C41.6683 51.3941 41.5654 51.4983 41.4769 51.6311C41.3909 51.7639 41.3232 51.9163 41.2738 52.0881C41.2269 52.2574 41.2034 52.4371 41.2034 52.6272ZM47.0975 54.178V51.885C47.0975 51.7183 47.0715 51.5842 47.0194 51.4827C46.9699 51.3811 46.8944 51.3069 46.7928 51.26C46.6939 51.2131 46.5689 51.1897 46.4178 51.1897C46.272 51.1897 46.1457 51.2196 46.0389 51.2795C45.9347 51.3394 45.854 51.4189 45.7967 51.5178C45.742 51.6168 45.7147 51.7262 45.7147 51.8459H45.0233C45.0233 51.6949 45.0558 51.5452 45.1209 51.3967C45.1886 51.2483 45.285 51.1142 45.41 50.9944C45.535 50.872 45.6847 50.7756 45.8592 50.7053C46.0363 50.6324 46.2342 50.5959 46.453 50.5959C46.7134 50.5959 46.9439 50.6389 47.1444 50.7249C47.3449 50.8082 47.5024 50.9449 47.617 51.135C47.7316 51.3251 47.7889 51.5777 47.7889 51.8928V53.9788C47.7889 54.1194 47.7993 54.2691 47.8202 54.428C47.8436 54.5868 47.8761 54.7236 47.9178 54.8381V54.9006H47.203C47.1691 54.8173 47.1431 54.7066 47.1248 54.5686C47.1066 54.428 47.0975 54.2978 47.0975 54.178ZM47.2069 52.3381L47.2147 52.8459H46.7342C46.5702 52.8459 46.4204 52.8642 46.285 52.9006C46.1522 52.9371 46.0376 52.9905 45.9412 53.0608C45.8449 53.1285 45.7707 53.2131 45.7186 53.3147C45.6691 53.4163 45.6444 53.5321 45.6444 53.6624C45.6444 53.8316 45.6678 53.967 45.7147 54.0686C45.7616 54.1676 45.8319 54.2392 45.9256 54.2834C46.0194 54.3277 46.1379 54.3499 46.2811 54.3499C46.4556 54.3499 46.6092 54.3095 46.742 54.2288C46.8748 54.148 46.9777 54.0504 47.0506 53.9358C47.1261 53.8212 47.1613 53.7144 47.1561 53.6155L47.3084 53.9397C47.298 54.0413 47.2642 54.1519 47.2069 54.2717C47.1522 54.3889 47.0754 54.5022 46.9764 54.6116C46.8774 54.7183 46.7603 54.8069 46.6248 54.8772C46.492 54.9449 46.3423 54.9788 46.1756 54.9788C45.9308 54.9788 45.716 54.9319 45.5311 54.8381C45.3488 54.7444 45.2069 54.6064 45.1053 54.4241C45.0037 54.2418 44.953 54.0165 44.953 53.7483C44.953 53.5452 44.9881 53.3577 45.0584 53.1858C45.1287 53.0139 45.2329 52.8655 45.3709 52.7405C45.509 52.6129 45.6821 52.5139 45.8905 52.4436C46.1014 52.3733 46.3449 52.3381 46.6209 52.3381H47.2069ZM50.0345 51.5764V54.9006H49.3431V50.6741H49.9955L50.0345 51.5764ZM49.8666 52.6272L49.5853 52.6155C49.5827 52.3264 49.6153 52.0595 49.683 51.8147C49.7533 51.5673 49.8522 51.3525 49.9798 51.1702C50.1101 50.9879 50.265 50.8472 50.4447 50.7483C50.6244 50.6467 50.8236 50.5959 51.0423 50.5959C51.2142 50.5959 51.3705 50.6246 51.5111 50.6819C51.6517 50.7366 51.7715 50.8251 51.8705 50.9475C51.9694 51.0699 52.0449 51.2288 52.097 51.4241C52.1517 51.6168 52.1791 51.8525 52.1791 52.1311V54.9006H51.4877V52.1233C51.4877 51.9019 51.4629 51.7249 51.4134 51.592C51.3666 51.4566 51.2936 51.359 51.1947 51.2991C51.0983 51.2366 50.9759 51.2053 50.8275 51.2053C50.6921 51.2053 50.5658 51.2431 50.4486 51.3186C50.3314 51.3941 50.2285 51.4983 50.14 51.6311C50.0541 51.7639 49.9864 51.9163 49.9369 52.0881C49.89 52.2574 49.8666 52.4371 49.8666 52.6272ZM12.1308 60.7444L12.83 60.1389C12.968 60.0269 13.0709 59.915 13.1386 59.803C13.2063 59.6884 13.2402 59.5321 13.2402 59.3342C13.2402 59.1806 13.192 59.0413 13.0956 58.9163C13.0019 58.7887 12.8678 58.7249 12.6933 58.7249C12.5761 58.7249 12.4771 58.76 12.3964 58.8303C12.3157 58.9006 12.2545 58.9944 12.2128 59.1116C12.1737 59.2262 12.1542 59.3525 12.1542 59.4905C12.1542 59.6077 12.179 59.7288 12.2284 59.8538C12.2805 59.9788 12.3495 60.109 12.4355 60.2444C12.5214 60.3798 12.6191 60.523 12.7284 60.6741L14.9667 63.9006H14.1425L12.3339 61.26C12.1698 61.0308 12.0214 60.8212 11.8886 60.6311C11.7584 60.4384 11.6542 60.2522 11.5761 60.0725C11.5006 59.8928 11.4628 59.7066 11.4628 59.5139C11.4628 59.217 11.5136 58.967 11.6152 58.7639C11.7193 58.5582 11.8639 58.4019 12.0487 58.2952C12.2336 58.1884 12.4498 58.135 12.6972 58.135C12.9394 58.135 13.1477 58.191 13.3222 58.303C13.4993 58.4124 13.636 58.5582 13.7323 58.7405C13.8287 58.9202 13.8769 59.1181 13.8769 59.3342C13.8769 59.5165 13.8508 59.6806 13.7987 59.8264C13.7467 59.9696 13.6711 60.1012 13.5722 60.2209C13.4758 60.3407 13.3599 60.4579 13.2245 60.5725L12.248 61.4124C12.1021 61.5504 11.9954 61.6819 11.9277 61.8069C11.8626 61.9319 11.8209 62.0426 11.8027 62.1389C11.787 62.2353 11.7792 62.3121 11.7792 62.3694C11.7792 62.5543 11.8105 62.7236 11.873 62.8772C11.9381 63.0308 12.0357 63.1545 12.1659 63.2483C12.2961 63.3394 12.4602 63.385 12.6581 63.385C12.8326 63.385 13.0019 63.3355 13.1659 63.2366C13.3326 63.135 13.4823 62.9918 13.6152 62.8069C13.748 62.6194 13.8534 62.3967 13.9316 62.1389C14.0123 61.8785 14.0527 61.5907 14.0527 61.2756H14.6698C14.6698 61.5334 14.649 61.7769 14.6073 62.0061C14.5657 62.2353 14.4993 62.4488 14.4081 62.6467C14.3196 62.842 14.205 63.0204 14.0644 63.1819C14.0461 63.2053 14.0305 63.2327 14.0175 63.2639C14.0045 63.2952 13.9889 63.3225 13.9706 63.3459C13.8066 63.5569 13.6034 63.7157 13.3612 63.8225C13.1217 63.9267 12.8873 63.9788 12.6581 63.9788C12.3352 63.9788 12.0566 63.9097 11.8222 63.7717C11.5878 63.6337 11.4068 63.4436 11.2792 63.2014C11.1516 62.9592 11.0878 62.6819 11.0878 62.3694C11.0878 62.1298 11.1321 61.9189 11.2206 61.7366C11.3092 61.5543 11.4316 61.3837 11.5878 61.2249C11.7467 61.066 11.9277 60.9058 12.1308 60.7444ZM21.5322 60.6584V61.2717H19.0673V60.6584H21.5322ZM19.165 58.2131V63.9006H18.4463V58.2131H19.165ZM22.1689 58.2131V63.9006H21.4502V58.2131H22.1689ZM24.5356 59.6741V63.9006H23.8481V59.6741H24.5356ZM23.8091 58.553C23.8091 58.4358 23.8416 58.3368 23.9067 58.2561C23.9718 58.1754 24.0695 58.135 24.1997 58.135C24.3299 58.135 24.4276 58.1754 24.4927 58.2561C24.5604 58.3368 24.5942 58.4358 24.5942 58.553C24.5942 58.665 24.5604 58.7613 24.4927 58.842C24.4276 58.9202 24.3299 58.9592 24.1997 58.9592C24.0695 58.9592 23.9718 58.9202 23.9067 58.842C23.8416 58.7613 23.8091 58.665 23.8091 58.553ZM26.1094 57.9006H26.8008V63.0803L26.7422 63.9006H26.1094V57.9006ZM29.1719 61.5959V61.9905C29.1719 62.3238 29.1406 62.6155 29.0781 62.8655C29.0182 63.1129 28.9284 63.3199 28.8086 63.4866C28.6888 63.6506 28.543 63.7743 28.3711 63.8577C28.1992 63.9384 28.0026 63.9788 27.7812 63.9788C27.5625 63.9788 27.3737 63.9345 27.2148 63.8459C27.056 63.7574 26.9232 63.6298 26.8164 63.4631C26.7096 63.2965 26.625 63.0946 26.5625 62.8577C26.5026 62.6207 26.4609 62.3538 26.4375 62.0569V61.5295C26.4609 61.2301 26.5026 60.9618 26.5625 60.7249C26.6224 60.4853 26.7057 60.2821 26.8125 60.1155C26.9193 59.9462 27.0521 59.8173 27.2109 59.7288C27.3698 59.6402 27.5586 59.5959 27.7773 59.5959C28.0013 59.5959 28.1992 59.635 28.3711 59.7131C28.5456 59.7913 28.6914 59.9124 28.8086 60.0764C28.9284 60.2379 29.0182 60.4449 29.0781 60.6975C29.1406 60.9475 29.1719 61.247 29.1719 61.5959ZM28.4805 61.9905V61.5959C28.4805 61.3616 28.4648 61.1571 28.4336 60.9827C28.4049 60.8082 28.3568 60.6637 28.2891 60.5491C28.2214 60.4345 28.1302 60.3486 28.0156 60.2913C27.9036 60.234 27.7643 60.2053 27.5977 60.2053C27.457 60.2053 27.3333 60.234 27.2266 60.2913C27.1224 60.3486 27.0326 60.4267 26.957 60.5256C26.8815 60.622 26.819 60.7327 26.7695 60.8577C26.7201 60.9801 26.6836 61.1077 26.6602 61.2405V62.3499C26.694 62.5191 26.7474 62.6819 26.8203 62.8381C26.8958 62.9918 26.9974 63.1181 27.125 63.217C27.2526 63.316 27.4115 63.3655 27.6016 63.3655C27.7604 63.3655 27.8945 63.3381 28.0039 63.2834C28.1159 63.2288 28.207 63.1454 28.2773 63.0334C28.3477 62.9189 28.3984 62.7756 28.4297 62.6038C28.4635 62.4293 28.4805 62.2249 28.4805 61.9905ZM32.6714 62.9241V59.6741H33.3628V63.9006H32.7066L32.6714 62.9241ZM32.8003 62.0334L33.0737 62.0256C33.0737 62.3069 33.049 62.5673 32.9995 62.8069C32.9527 63.0439 32.8745 63.2496 32.7652 63.4241C32.6584 63.5986 32.5165 63.7353 32.3394 63.8342C32.1623 63.9306 31.9448 63.9788 31.687 63.9788C31.5126 63.9788 31.3537 63.9488 31.2105 63.8889C31.0698 63.829 30.9474 63.7366 30.8433 63.6116C30.7417 63.4866 30.6623 63.3238 30.605 63.1233C30.5503 62.9228 30.523 62.6819 30.523 62.4006V59.6741H31.2105V62.4084C31.2105 62.5986 31.2274 62.7561 31.2612 62.8811C31.2951 63.0035 31.3407 63.1012 31.398 63.1741C31.4553 63.2444 31.5191 63.2939 31.5894 63.3225C31.6597 63.3512 31.7313 63.3655 31.8042 63.3655C32.049 63.3655 32.2443 63.3069 32.3902 63.1897C32.536 63.0699 32.6402 62.9097 32.7027 62.7092C32.7678 62.5061 32.8003 62.2808 32.8003 62.0334ZM35.5733 60.3381V63.9006H34.8819V59.6741H35.5498L35.5733 60.3381ZM36.6241 59.6506L36.628 60.3225C36.5707 60.3095 36.5186 60.3017 36.4717 60.2991C36.4274 60.2939 36.3754 60.2913 36.3155 60.2913C36.1853 60.2913 36.0707 60.3173 35.9717 60.3694C35.8754 60.4215 35.792 60.4944 35.7217 60.5881C35.6514 60.6819 35.5954 60.7939 35.5537 60.9241C35.5121 61.0517 35.4834 61.1923 35.4678 61.3459L35.2881 61.4631C35.2881 61.2079 35.3077 60.9683 35.3467 60.7444C35.3884 60.5204 35.4522 60.3225 35.5381 60.1506C35.6241 59.9762 35.7334 59.8407 35.8662 59.7444C36.0017 59.6454 36.1631 59.5959 36.3506 59.5959C36.3923 59.5959 36.4431 59.6025 36.503 59.6155C36.5655 59.6259 36.6058 59.6376 36.6241 59.6506ZM39.7134 63.178V60.885C39.7134 60.7183 39.6874 60.5842 39.6353 60.4827C39.5858 60.3811 39.5103 60.3069 39.4088 60.26C39.3098 60.2131 39.1848 60.1897 39.0338 60.1897C38.8879 60.1897 38.7616 60.2196 38.6548 60.2795C38.5507 60.3394 38.47 60.4189 38.4127 60.5178C38.358 60.6168 38.3306 60.7262 38.3306 60.8459H37.6392C37.6392 60.6949 37.6718 60.5452 37.7369 60.3967C37.8046 60.2483 37.9009 60.1142 38.0259 59.9944C38.1509 59.872 38.3007 59.7756 38.4752 59.7053C38.6522 59.6324 38.8502 59.5959 39.0689 59.5959C39.3293 59.5959 39.5598 59.6389 39.7603 59.7249C39.9608 59.8082 40.1184 59.9449 40.233 60.135C40.3476 60.3251 40.4048 60.5777 40.4048 60.8928V62.9788C40.4048 63.1194 40.4153 63.2691 40.4361 63.428C40.4595 63.5868 40.4921 63.7236 40.5338 63.8381V63.9006H39.8189C39.7851 63.8173 39.759 63.7066 39.7408 63.5686C39.7226 63.428 39.7134 63.2978 39.7134 63.178ZM39.8228 61.3381L39.8306 61.8459H39.3502C39.1861 61.8459 39.0364 61.8642 38.9009 61.9006C38.7681 61.9371 38.6535 61.9905 38.5572 62.0608C38.4608 62.1285 38.3866 62.2131 38.3345 62.3147C38.2851 62.4163 38.2603 62.5321 38.2603 62.6624C38.2603 62.8316 38.2838 62.967 38.3306 63.0686C38.3775 63.1676 38.4478 63.2392 38.5416 63.2834C38.6353 63.3277 38.7538 63.3499 38.897 63.3499C39.0715 63.3499 39.2252 63.3095 39.358 63.2288C39.4908 63.148 39.5936 63.0504 39.6666 62.9358C39.7421 62.8212 39.7772 62.7144 39.772 62.6155L39.9244 62.9397C39.914 63.0413 39.8801 63.1519 39.8228 63.2717C39.7681 63.3889 39.6913 63.5022 39.5923 63.6116C39.4934 63.7183 39.3762 63.8069 39.2408 63.8772C39.108 63.9449 38.9582 63.9788 38.7916 63.9788C38.5468 63.9788 38.3319 63.9319 38.147 63.8381C37.9647 63.7444 37.8228 63.6064 37.7213 63.4241C37.6197 63.2418 37.5689 63.0165 37.5689 62.7483C37.5689 62.5452 37.6041 62.3577 37.6744 62.1858C37.7447 62.0139 37.8489 61.8655 37.9869 61.7405C38.1249 61.6129 38.2981 61.5139 38.5064 61.4436C38.7173 61.3733 38.9608 61.3381 39.2369 61.3381H39.8228ZM42.6505 60.5764V63.9006H41.9591V59.6741H42.6114L42.6505 60.5764ZM42.4825 61.6272L42.2012 61.6155C42.1986 61.3264 42.2312 61.0595 42.2989 60.8147C42.3692 60.5673 42.4682 60.3525 42.5958 60.1702C42.726 59.9879 42.8809 59.8472 43.0606 59.7483C43.2403 59.6467 43.4395 59.5959 43.6583 59.5959C43.8302 59.5959 43.9864 59.6246 44.127 59.6819C44.2677 59.7366 44.3874 59.8251 44.4864 59.9475C44.5854 60.0699 44.6609 60.2288 44.713 60.4241C44.7677 60.6168 44.795 60.8525 44.795 61.1311V63.9006H44.1036V61.1233C44.1036 60.9019 44.0789 60.7249 44.0294 60.592C43.9825 60.4566 43.9096 60.359 43.8106 60.2991C43.7143 60.2366 43.5919 60.2053 43.4434 60.2053C43.308 60.2053 43.1817 60.2431 43.0645 60.3186C42.9473 60.3941 42.8445 60.4983 42.7559 60.6311C42.67 60.7639 42.6023 60.9163 42.5528 61.0881C42.5059 61.2574 42.4825 61.4371 42.4825 61.6272Z" fill="black"/>
<rect x="2.5" y="0.5" width="47" height="45" rx="10.5" stroke="#C4C4C4" stroke-linejoin="round"/>
<rect x="18" y="11" width="15" height="24" fill="#04AB9A"/>
<rect x="20" y="14" width="11" height="15" fill="white"/>
<path d="M36 20V20C37.2367 21.8551 37.3846 24.2307 36.3875 26.2249L36 27" stroke="#14AB8A"/>
<path d="M37.5 19V19C39.314 21.4187 39.483 24.6949 37.9275 27.2875L37.5 28" stroke="#14AB8A"/>
<path d="M15 20V20C13.7633 21.8551 13.6154 24.2307 14.6125 26.2249L15 27" stroke="#14AB8A"/>
<path d="M14 19V19C12.186 21.4187 12.017 24.6949 13.5725 27.2875L14 28" stroke="#14AB8A"/>
</svg>
