<svg width="56" height="73" viewBox="0 0 56 73" fill="none" xmlns="http://www.w3.org/2000/svg">
<path d="M14.3191 37.0139L12.4894 37.0139L10.7129 33.1007L11.6278 30.8646L14.3191 37.0139Z" fill="#ED4D2D"/>
<path d="M7 37.0851L8.82975 37.0851L11.5744 30.3118L9.74613 30.3118L7 37.0851Z" fill="#ED4D2D"/>
<path d="M4.6825 64.2362C4.6825 64.1033 4.66688 63.9862 4.63563 63.8846C4.60438 63.7804 4.54969 63.6867 4.47156 63.6033C4.39344 63.52 4.28406 63.4406 4.14344 63.3651C4.00281 63.2895 3.82443 63.2127 3.60828 63.1346C3.37391 63.0513 3.16167 62.9588 2.97156 62.8573C2.78146 62.7531 2.6187 62.6346 2.48328 62.5018C2.35047 62.369 2.24761 62.2166 2.17469 62.0448C2.10177 61.8729 2.06531 61.6763 2.06531 61.4549C2.06531 61.2336 2.10307 61.0291 2.17859 60.8416C2.25672 60.6541 2.36609 60.4914 2.50672 60.3533C2.64995 60.2127 2.82182 60.1033 3.02234 60.0252C3.22287 59.9471 3.44682 59.908 3.69422 59.908C4.06401 59.908 4.37521 59.9901 4.62781 60.1541C4.88302 60.3156 5.07573 60.5278 5.20594 60.7908C5.33615 61.0513 5.40125 61.3299 5.40125 61.6268H4.6825C4.6825 61.4132 4.64734 61.2244 4.57703 61.0604C4.50932 60.8937 4.40255 60.7635 4.25672 60.6698C4.11349 60.5734 3.92599 60.5252 3.69422 60.5252C3.48589 60.5252 3.31401 60.5656 3.17859 60.6463C3.04578 60.727 2.94682 60.8364 2.88172 60.9744C2.81922 61.1125 2.78797 61.27 2.78797 61.4471C2.78797 61.5669 2.8088 61.6763 2.85047 61.7752C2.89214 61.8716 2.95594 61.9614 3.04188 62.0448C3.13042 62.1281 3.23979 62.2049 3.37 62.2752C3.50281 62.3455 3.65906 62.4132 3.83875 62.4783C4.1174 62.5695 4.35568 62.6711 4.55359 62.783C4.75151 62.895 4.91297 63.0213 5.03797 63.1619C5.16297 63.3 5.25412 63.4575 5.31141 63.6346C5.3713 63.8091 5.40125 64.007 5.40125 64.2283C5.40125 64.4601 5.36219 64.6698 5.28406 64.8573C5.20854 65.0448 5.09787 65.2049 4.95203 65.3377C4.8062 65.4705 4.63042 65.5734 4.42469 65.6463C4.21896 65.7166 3.98719 65.7518 3.72938 65.7518C3.50542 65.7518 3.28537 65.7153 3.06922 65.6424C2.85568 65.5695 2.66167 65.4601 2.48719 65.3143C2.31271 65.1685 2.17339 64.9888 2.06922 64.7752C1.96505 64.5591 1.91297 64.3091 1.91297 64.0252H2.63172C2.63172 64.2205 2.66037 64.3885 2.71766 64.5291C2.77495 64.6671 2.85438 64.7817 2.95594 64.8729C3.0575 64.964 3.17339 65.0317 3.30359 65.076C3.43641 65.1177 3.57833 65.1385 3.72938 65.1385C3.93771 65.1385 4.11219 65.102 4.25281 65.0291C4.39604 64.9562 4.50281 64.852 4.57313 64.7166C4.64604 64.5812 4.6825 64.4211 4.6825 64.2362ZM7.42031 59.6737V65.6737H6.72891V59.6737H7.42031ZM7.25234 63.4002L6.97109 63.3885C6.96849 63.0994 7.00104 62.8325 7.06875 62.5877C7.13906 62.3403 7.23802 62.1255 7.36563 61.9432C7.49583 61.7609 7.65078 61.6203 7.83047 61.5213C8.01016 61.4198 8.20938 61.369 8.42813 61.369C8.6 61.369 8.75625 61.3976 8.89688 61.4549C9.0375 61.5096 9.15729 61.5981 9.25625 61.7205C9.35521 61.8429 9.43073 62.0018 9.48281 62.1971C9.5375 62.3898 9.56484 62.6255 9.56484 62.9041V65.6737H8.87344V62.8963C8.87344 62.675 8.8487 62.4979 8.79922 62.3651C8.75234 62.2296 8.67943 62.132 8.58047 62.0721C8.48412 62.0096 8.36172 61.9783 8.21328 61.9783C8.07787 61.9783 7.95156 62.0161 7.83438 62.0916C7.71719 62.1671 7.61432 62.2713 7.52578 62.4041C7.43984 62.5369 7.37214 62.6893 7.32266 62.8612C7.27578 63.0304 7.25234 63.2101 7.25234 63.4002ZM10.9316 63.7635V63.3612C10.9316 63.033 10.9732 62.7453 11.0566 62.4979C11.1399 62.2479 11.2558 62.0395 11.4042 61.8729C11.5527 61.7062 11.7258 61.5812 11.9238 61.4979C12.1217 61.4119 12.3339 61.369 12.5605 61.369C12.7922 61.369 13.0071 61.4119 13.205 61.4979C13.4029 61.5812 13.5761 61.7062 13.7245 61.8729C13.8756 62.0395 13.9928 62.2479 14.0761 62.4979C14.1594 62.7453 14.2011 63.033 14.2011 63.3612V63.7635C14.2011 64.0916 14.1594 64.3807 14.0761 64.6307C13.9928 64.8781 13.8769 65.0851 13.7284 65.2518C13.58 65.4185 13.4068 65.5435 13.2089 65.6268C13.011 65.7101 12.7974 65.7518 12.5683 65.7518C12.3391 65.7518 12.1256 65.7101 11.9277 65.6268C11.7297 65.5435 11.5553 65.4185 11.4042 65.2518C11.2558 65.0851 11.1399 64.8781 11.0566 64.6307C10.9732 64.3807 10.9316 64.0916 10.9316 63.7635ZM11.623 63.3612V63.7635C11.623 63.9953 11.6464 64.1984 11.6933 64.3729C11.7402 64.5474 11.8066 64.6932 11.8925 64.8104C11.9784 64.9276 12.0787 65.0161 12.1933 65.076C12.3079 65.1333 12.4329 65.1619 12.5683 65.1619C12.7245 65.1619 12.8613 65.1333 12.9784 65.076C13.0982 65.0161 13.1972 64.9276 13.2753 64.8104C13.3534 64.6932 13.412 64.5474 13.4511 64.3729C13.4902 64.1984 13.5097 63.9953 13.5097 63.7635V63.3612C13.5097 63.1294 13.4863 62.9276 13.4394 62.7557C13.3925 62.5812 13.3261 62.4354 13.2402 62.3182C13.1542 62.1984 13.0527 62.1099 12.9355 62.0526C12.8209 61.9927 12.6959 61.9627 12.5605 61.9627C12.4277 61.9627 12.304 61.9927 12.1894 62.0526C12.0748 62.1099 11.9745 62.1984 11.8886 62.3182C11.8053 62.4354 11.7402 62.5812 11.6933 62.7557C11.6464 62.9276 11.623 63.1294 11.623 63.3612ZM16.2631 62.2596V67.2987H15.5717V61.4471H16.2006L16.2631 62.2596ZM18.6264 63.369V63.7635C18.6264 64.0968 18.5952 64.3885 18.5327 64.6385C18.4728 64.8859 18.3829 65.0929 18.2631 65.2596C18.1459 65.4237 18.0014 65.5474 17.8295 65.6307C17.6577 65.7114 17.461 65.7518 17.2397 65.7518C17.0183 65.7518 16.8256 65.7101 16.6616 65.6268C16.5001 65.5408 16.3634 65.4171 16.2514 65.2557C16.142 65.0942 16.0548 64.9002 15.9897 64.6737C15.9272 64.4445 15.8842 64.188 15.8608 63.9041V63.3026C15.8842 63.0031 15.9272 62.7349 15.9897 62.4979C16.0522 62.2583 16.1381 62.0552 16.2475 61.8885C16.3595 61.7192 16.4962 61.5903 16.6577 61.5018C16.8217 61.4132 17.0131 61.369 17.2319 61.369C17.4584 61.369 17.6577 61.408 17.8295 61.4862C18.004 61.5643 18.1498 61.6854 18.267 61.8494C18.3868 62.0109 18.4767 62.2179 18.5366 62.4705C18.5965 62.7205 18.6264 63.02 18.6264 63.369ZM17.935 63.7635V63.369C17.935 63.1346 17.9168 62.9302 17.8803 62.7557C17.8465 62.5812 17.7918 62.4367 17.7163 62.3221C17.6407 62.2075 17.5457 62.1216 17.4311 62.0643C17.3165 62.007 17.1785 61.9783 17.017 61.9783C16.879 61.9783 16.7566 62.007 16.6498 62.0643C16.5457 62.1216 16.4558 62.1997 16.3803 62.2987C16.3048 62.395 16.2423 62.5057 16.1928 62.6307C16.1433 62.7531 16.1069 62.8807 16.0834 63.0135V64.1971C16.1277 64.3638 16.1863 64.5213 16.2592 64.6698C16.3321 64.8156 16.4298 64.9341 16.5522 65.0252C16.6772 65.1164 16.8347 65.1619 17.0248 65.1619C17.1837 65.1619 17.3204 65.1333 17.435 65.076C17.5496 65.0187 17.6433 64.9328 17.7163 64.8182C17.7918 64.701 17.8465 64.5552 17.8803 64.3807C17.9168 64.2036 17.935 63.9979 17.935 63.7635ZM21.5088 65.7518C21.2561 65.7518 21.0283 65.714 20.8252 65.6385C20.622 65.563 20.4489 65.4484 20.3056 65.2948C20.1624 65.1385 20.053 64.9419 19.9775 64.7049C19.902 64.4679 19.8642 64.188 19.8642 63.8651V63.3885C19.8642 63.0161 19.9072 62.701 19.9931 62.4432C20.0817 62.1854 20.2002 61.9783 20.3486 61.8221C20.497 61.6632 20.665 61.5487 20.8525 61.4783C21.04 61.4054 21.2327 61.369 21.4306 61.369C21.6963 61.369 21.9228 61.4119 22.1103 61.4979C22.2978 61.5838 22.4502 61.7114 22.5673 61.8807C22.6845 62.05 22.7705 62.2583 22.8252 62.5057C22.8824 62.7531 22.9111 63.0382 22.9111 63.3612V63.7635H20.2705V63.1737H22.2197V63.076C22.2093 62.8573 22.1793 62.6645 22.1298 62.4979C22.083 62.3312 22.0048 62.201 21.8955 62.1073C21.7861 62.0109 21.6311 61.9627 21.4306 61.9627C21.303 61.9627 21.1845 61.9849 21.0752 62.0291C20.9684 62.0708 20.8759 62.145 20.7978 62.2518C20.7223 62.356 20.6624 62.5005 20.6181 62.6854C20.5765 62.8703 20.5556 63.1046 20.5556 63.3885V63.8651C20.5556 64.0916 20.5765 64.2869 20.6181 64.451C20.6624 64.6125 20.7262 64.7466 20.8095 64.8533C20.8955 64.9575 20.9996 65.0356 21.122 65.0877C21.247 65.1372 21.389 65.1619 21.5478 65.1619C21.7796 65.1619 21.971 65.1177 22.122 65.0291C22.2731 64.938 22.4046 64.8221 22.5166 64.6815L22.8798 65.1151C22.8043 65.2218 22.7054 65.3247 22.583 65.4237C22.4632 65.52 22.3147 65.5994 22.1377 65.6619C21.9632 65.7218 21.7535 65.7518 21.5088 65.7518ZM25.7388 65.7518C25.4861 65.7518 25.2583 65.714 25.0552 65.6385C24.852 65.563 24.6789 65.4484 24.5356 65.2948C24.3924 65.1385 24.283 64.9419 24.2075 64.7049C24.132 64.4679 24.0942 64.188 24.0942 63.8651V63.3885C24.0942 63.0161 24.1372 62.701 24.2231 62.4432C24.3117 62.1854 24.4302 61.9783 24.5786 61.8221C24.727 61.6632 24.895 61.5487 25.0825 61.4783C25.27 61.4054 25.4627 61.369 25.6606 61.369C25.9263 61.369 26.1528 61.4119 26.3403 61.4979C26.5278 61.5838 26.6802 61.7114 26.7973 61.8807C26.9145 62.05 27.0005 62.2583 27.0552 62.5057C27.1124 62.7531 27.1411 63.0382 27.1411 63.3612V63.7635H24.5005V63.1737H26.4497V63.076C26.4393 62.8573 26.4093 62.6645 26.3598 62.4979C26.313 62.3312 26.2348 62.201 26.1255 62.1073C26.0161 62.0109 25.8611 61.9627 25.6606 61.9627C25.533 61.9627 25.4145 61.9849 25.3052 62.0291C25.1984 62.0708 25.1059 62.145 25.0278 62.2518C24.9523 62.356 24.8924 62.5005 24.8481 62.6854C24.8065 62.8703 24.7856 63.1046 24.7856 63.3885V63.8651C24.7856 64.0916 24.8065 64.2869 24.8481 64.451C24.8924 64.6125 24.9562 64.7466 25.0395 64.8533C25.1255 64.9575 25.2296 65.0356 25.352 65.0877C25.477 65.1372 25.619 65.1619 25.7778 65.1619C26.0096 65.1619 26.201 65.1177 26.352 65.0291C26.5031 64.938 26.6346 64.8221 26.7466 64.6815L27.1098 65.1151C27.0343 65.2218 26.9354 65.3247 26.813 65.4237C26.6932 65.52 26.5447 65.5994 26.3677 65.6619C26.1932 65.7218 25.9835 65.7518 25.7388 65.7518ZM31.3902 59.9862L32.4683 62.1658L33.5386 59.9862H34.3745L32.8941 62.8026L34.4058 65.6737H33.562L32.4683 63.451L31.3706 65.6737H30.523L32.0386 62.8026L30.5542 59.9862H31.3902ZM36.3584 62.2596V67.2987H35.667V61.4471H36.2959L36.3584 62.2596ZM38.7217 63.369V63.7635C38.7217 64.0968 38.6905 64.3885 38.628 64.6385C38.5681 64.8859 38.4782 65.0929 38.3584 65.2596C38.2412 65.4237 38.0967 65.5474 37.9248 65.6307C37.753 65.7114 37.5564 65.7518 37.335 65.7518C37.1136 65.7518 36.9209 65.7101 36.7569 65.6268C36.5954 65.5408 36.4587 65.4171 36.3467 65.2557C36.2373 65.0942 36.1501 64.9002 36.085 64.6737C36.0225 64.4445 35.9795 64.188 35.9561 63.9041V63.3026C35.9795 63.0031 36.0225 62.7349 36.085 62.4979C36.1475 62.2583 36.2334 62.0552 36.3428 61.8885C36.4548 61.7192 36.5915 61.5903 36.753 61.5018C36.917 61.4132 37.1084 61.369 37.3272 61.369C37.5537 61.369 37.753 61.408 37.9248 61.4862C38.0993 61.5643 38.2452 61.6854 38.3623 61.8494C38.4821 62.0109 38.572 62.2179 38.6319 62.4705C38.6918 62.7205 38.7217 63.02 38.7217 63.369ZM38.0303 63.7635V63.369C38.0303 63.1346 38.0121 62.9302 37.9756 62.7557C37.9418 62.5812 37.8871 62.4367 37.8116 62.3221C37.736 62.2075 37.641 62.1216 37.5264 62.0643C37.4118 62.007 37.2738 61.9783 37.1123 61.9783C36.9743 61.9783 36.8519 62.007 36.7452 62.0643C36.641 62.1216 36.5511 62.1997 36.4756 62.2987C36.4001 62.395 36.3376 62.5057 36.2881 62.6307C36.2386 62.7531 36.2022 62.8807 36.1787 63.0135V64.1971C36.223 64.3638 36.2816 64.5213 36.3545 64.6698C36.4274 64.8156 36.5251 64.9341 36.6475 65.0252C36.7725 65.1164 36.9301 65.1619 37.1202 65.1619C37.279 65.1619 37.4157 65.1333 37.5303 65.076C37.6449 65.0187 37.7386 64.9328 37.8116 64.8182C37.8871 64.701 37.9418 64.5552 37.9756 64.3807C38.0121 64.2036 38.0303 63.9979 38.0303 63.7635ZM40.7838 62.1112V65.6737H40.0923V61.4471H40.7603L40.7838 62.1112ZM41.8345 61.4237L41.8384 62.0955C41.7811 62.0825 41.7291 62.0747 41.6822 62.0721C41.6379 62.0669 41.5858 62.0643 41.5259 62.0643C41.3957 62.0643 41.2811 62.0903 41.1822 62.1424C41.0858 62.1945 41.0025 62.2674 40.9322 62.3612C40.8619 62.4549 40.8059 62.5669 40.7642 62.6971C40.7226 62.8247 40.6939 62.9653 40.6783 63.119L40.4986 63.2362C40.4986 62.981 40.5181 62.7414 40.5572 62.5174C40.5989 62.2935 40.6627 62.0955 40.7486 61.9237C40.8345 61.7492 40.9439 61.6138 41.0767 61.5174C41.2121 61.4185 41.3736 61.369 41.5611 61.369C41.6028 61.369 41.6535 61.3755 41.7134 61.3885C41.7759 61.3989 41.8163 61.4106 41.8345 61.4237ZM44.4434 65.7518C44.1908 65.7518 43.963 65.714 43.7598 65.6385C43.5567 65.563 43.3835 65.4484 43.2403 65.2948C43.0971 65.1385 42.9877 64.9419 42.9122 64.7049C42.8367 64.4679 42.7989 64.188 42.7989 63.8651V63.3885C42.7989 63.0161 42.8419 62.701 42.9278 62.4432C43.0164 62.1854 43.1348 61.9783 43.2833 61.8221C43.4317 61.6632 43.5997 61.5487 43.7872 61.4783C43.9747 61.4054 44.1674 61.369 44.3653 61.369C44.6309 61.369 44.8575 61.4119 45.045 61.4979C45.2325 61.5838 45.3848 61.7114 45.502 61.8807C45.6192 62.05 45.7052 62.2583 45.7598 62.5057C45.8171 62.7531 45.8458 63.0382 45.8458 63.3612V63.7635H43.2052V63.1737H45.1544V63.076C45.144 62.8573 45.114 62.6645 45.0645 62.4979C45.0177 62.3312 44.9395 62.201 44.8302 62.1073C44.7208 62.0109 44.5658 61.9627 44.3653 61.9627C44.2377 61.9627 44.1192 61.9849 44.0098 62.0291C43.9031 62.0708 43.8106 62.145 43.7325 62.2518C43.657 62.356 43.5971 62.5005 43.5528 62.6854C43.5111 62.8703 43.4903 63.1046 43.4903 63.3885V63.8651C43.4903 64.0916 43.5111 64.2869 43.5528 64.451C43.5971 64.6125 43.6609 64.7466 43.7442 64.8533C43.8302 64.9575 43.9343 65.0356 44.0567 65.0877C44.1817 65.1372 44.3236 65.1619 44.4825 65.1619C44.7143 65.1619 44.9057 65.1177 45.0567 65.0291C45.2078 64.938 45.3393 64.8221 45.4512 64.6815L45.8145 65.1151C45.739 65.2218 45.6401 65.3247 45.5177 65.4237C45.3979 65.52 45.2494 65.5994 45.0723 65.6619C44.8979 65.7218 44.6882 65.7518 44.4434 65.7518ZM49.2125 64.5916C49.2125 64.4849 49.1865 64.3911 49.1344 64.3104C49.0823 64.2296 48.9964 64.1515 48.8766 64.076C48.7594 64.0005 48.6005 63.9198 48.4 63.8338C48.2047 63.7531 48.0289 63.6737 47.8727 63.5955C47.719 63.5148 47.5888 63.4276 47.482 63.3338C47.3753 63.2401 47.2932 63.132 47.2359 63.0096C47.1813 62.8846 47.1539 62.7375 47.1539 62.5682C47.1539 62.3989 47.1852 62.2427 47.2477 62.0994C47.3128 61.9536 47.4039 61.826 47.5211 61.7166C47.6383 61.6073 47.7789 61.5226 47.943 61.4627C48.107 61.4002 48.2906 61.369 48.4938 61.369C48.7828 61.369 49.0289 61.425 49.232 61.5369C49.4352 61.6489 49.5901 61.8026 49.6969 61.9979C49.8063 62.1906 49.8609 62.408 49.8609 62.6502H49.1734C49.1734 62.533 49.1474 62.4224 49.0953 62.3182C49.0432 62.214 48.9664 62.1294 48.8648 62.0643C48.7633 61.9966 48.6396 61.9627 48.4938 61.9627C48.3401 61.9627 48.2151 61.9901 48.1188 62.0448C48.0224 62.0994 47.9521 62.1711 47.9078 62.2596C47.8661 62.3455 47.8453 62.4406 47.8453 62.5448C47.8453 62.6229 47.8557 62.6906 47.8766 62.7479C47.9 62.8026 47.9391 62.8546 47.9938 62.9041C48.0484 62.951 48.1227 63.0005 48.2164 63.0526C48.3128 63.102 48.4352 63.1593 48.5836 63.2244C48.8701 63.3364 49.1109 63.4497 49.3063 63.5643C49.5016 63.6789 49.65 63.813 49.7516 63.9666C49.8531 64.1203 49.9039 64.3104 49.9039 64.5369C49.9039 64.7218 49.8701 64.8898 49.8023 65.0408C49.7372 65.1893 49.6435 65.3169 49.5211 65.4237C49.3987 65.5304 49.2516 65.6125 49.0797 65.6698C48.9104 65.7244 48.7203 65.7518 48.5094 65.7518C48.1917 65.7518 47.9221 65.6893 47.7008 65.5643C47.482 65.4367 47.3154 65.2713 47.2008 65.0682C47.0888 64.8625 47.0328 64.6424 47.0328 64.408H47.7242C47.732 64.606 47.7763 64.7596 47.857 64.869C47.9404 64.9783 48.0406 65.0539 48.1578 65.0955C48.275 65.1372 48.3922 65.158 48.5094 65.158C48.663 65.158 48.7919 65.1359 48.8961 65.0916C49.0003 65.0448 49.0784 64.9783 49.1305 64.8924C49.1852 64.8065 49.2125 64.7062 49.2125 64.5916ZM53.3409 64.5916C53.3409 64.4849 53.3149 64.3911 53.2628 64.3104C53.2107 64.2296 53.1248 64.1515 53.005 64.076C52.8878 64.0005 52.729 63.9198 52.5284 63.8338C52.3331 63.7531 52.1573 63.6737 52.0011 63.5955C51.8474 63.5148 51.7172 63.4276 51.6105 63.3338C51.5037 63.2401 51.4217 63.132 51.3644 63.0096C51.3097 62.8846 51.2823 62.7375 51.2823 62.5682C51.2823 62.3989 51.3136 62.2427 51.3761 62.0994C51.4412 61.9536 51.5323 61.826 51.6495 61.7166C51.7667 61.6073 51.9073 61.5226 52.0714 61.4627C52.2355 61.4002 52.4191 61.369 52.6222 61.369C52.9112 61.369 53.1573 61.425 53.3605 61.5369C53.5636 61.6489 53.7185 61.8026 53.8253 61.9979C53.9347 62.1906 53.9894 62.408 53.9894 62.6502H53.3019C53.3019 62.533 53.2758 62.4224 53.2237 62.3182C53.1717 62.214 53.0948 62.1294 52.9933 62.0643C52.8917 61.9966 52.768 61.9627 52.6222 61.9627C52.4685 61.9627 52.3435 61.9901 52.2472 62.0448C52.1508 62.0994 52.0805 62.1711 52.0362 62.2596C51.9946 62.3455 51.9737 62.4406 51.9737 62.5448C51.9737 62.6229 51.9842 62.6906 52.005 62.7479C52.0284 62.8026 52.0675 62.8546 52.1222 62.9041C52.1769 62.951 52.2511 63.0005 52.3448 63.0526C52.4412 63.102 52.5636 63.1593 52.712 63.2244C52.9985 63.3364 53.2394 63.4497 53.4347 63.5643C53.63 63.6789 53.7784 63.813 53.88 63.9666C53.9816 64.1203 54.0323 64.3104 54.0323 64.5369C54.0323 64.7218 53.9985 64.8898 53.9308 65.0408C53.8657 65.1893 53.7719 65.3169 53.6495 65.4237C53.5271 65.5304 53.38 65.6125 53.2081 65.6698C53.0389 65.7244 52.8487 65.7518 52.6378 65.7518C52.3201 65.7518 52.0506 65.6893 51.8292 65.5643C51.6105 65.4367 51.4438 65.2713 51.3292 65.0682C51.2172 64.8625 51.1612 64.6424 51.1612 64.408H51.8527C51.8605 64.606 51.9047 64.7596 51.9855 64.869C52.0688 64.9783 52.1691 65.0539 52.2862 65.0955C52.4034 65.1372 52.5206 65.158 52.6378 65.158C52.7915 65.158 52.9204 65.1359 53.0245 65.0916C53.1287 65.0448 53.2068 64.9783 53.2589 64.8924C53.3136 64.8065 53.3409 64.7062 53.3409 64.5916Z" fill="black"/>
<rect x="4.5" y="0.736111" width="47" height="50.1944" rx="10.5" stroke="#C4C4C4" stroke-linejoin="round"/>
<path d="M13.9053 17.0859C13.9053 16.9033 13.8766 16.7422 13.8193 16.6025C13.7656 16.4593 13.6689 16.3304 13.5293 16.2158C13.3932 16.1012 13.2035 15.992 12.96 15.8882C12.7201 15.7843 12.4157 15.6787 12.0469 15.5713C11.6602 15.4567 11.311 15.3296 10.9995 15.1899C10.688 15.0467 10.4212 14.8838 10.1992 14.7012C9.97721 14.5186 9.80713 14.3091 9.68896 14.0728C9.5708 13.8364 9.51172 13.5661 9.51172 13.2617C9.51172 12.9574 9.57438 12.6763 9.69971 12.4185C9.82503 12.1606 10.0041 11.9368 10.2368 11.7471C10.4731 11.5537 10.7542 11.4033 11.0801 11.2959C11.4059 11.1885 11.7694 11.1348 12.1704 11.1348C12.7576 11.1348 13.2554 11.2476 13.6636 11.4731C14.0754 11.6951 14.3887 11.987 14.6035 12.3486C14.8184 12.7067 14.9258 13.0898 14.9258 13.498H13.8945C13.8945 13.2044 13.8319 12.9448 13.7065 12.7192C13.5812 12.4901 13.3914 12.311 13.1372 12.1821C12.883 12.0496 12.5607 11.9834 12.1704 11.9834C11.8016 11.9834 11.4972 12.0389 11.2573 12.1499C11.0174 12.2609 10.8384 12.4113 10.7202 12.6011C10.6056 12.7909 10.5483 13.0075 10.5483 13.251C10.5483 13.4157 10.5824 13.5661 10.6504 13.7021C10.722 13.8346 10.8312 13.9582 10.978 14.0728C11.1284 14.1873 11.3182 14.293 11.5474 14.3896C11.7801 14.4863 12.0576 14.5794 12.3799 14.6689C12.8239 14.7943 13.207 14.9339 13.5293 15.0879C13.8516 15.2419 14.1165 15.4155 14.3242 15.6089C14.5355 15.7987 14.6912 16.0153 14.7915 16.2588C14.8953 16.4987 14.9473 16.7708 14.9473 17.0752C14.9473 17.3939 14.8828 17.6821 14.7539 17.9399C14.625 18.1978 14.4406 18.418 14.2007 18.6006C13.9608 18.7832 13.6725 18.9246 13.3359 19.0249C13.0029 19.1216 12.6305 19.1699 12.2188 19.1699C11.8571 19.1699 11.5008 19.1198 11.1499 19.0195C10.8026 18.9193 10.4857 18.7689 10.1992 18.5684C9.91634 18.3678 9.68896 18.1208 9.51709 17.8271C9.3488 17.5299 9.26465 17.1862 9.26465 16.7959H10.2959C10.2959 17.0645 10.3478 17.2954 10.4517 17.4888C10.5555 17.6785 10.6969 17.8361 10.876 17.9614C11.0586 18.0868 11.2645 18.1799 11.4937 18.2407C11.7264 18.298 11.9681 18.3267 12.2188 18.3267C12.5804 18.3267 12.8866 18.2765 13.1372 18.1763C13.3879 18.076 13.5776 17.9328 13.7065 17.7466C13.839 17.5604 13.9053 17.3402 13.9053 17.0859ZM17.1118 10.8125V19.0625H16.1182V10.8125H17.1118ZM16.8755 15.9365L16.4619 15.9204C16.4655 15.5229 16.5246 15.1559 16.6392 14.8193C16.7537 14.4792 16.9149 14.1838 17.1226 13.9331C17.3302 13.6825 17.5773 13.4891 17.8638 13.353C18.1538 13.2134 18.4743 13.1436 18.8252 13.1436C19.1117 13.1436 19.3695 13.1829 19.5986 13.2617C19.8278 13.3369 20.0229 13.4587 20.1841 13.627C20.3488 13.7952 20.4741 14.0137 20.5601 14.2822C20.646 14.5472 20.689 14.8713 20.689 15.2544V19.0625H19.6899V15.2437C19.6899 14.9393 19.6452 14.6958 19.5557 14.5132C19.4661 14.327 19.3354 14.1927 19.1636 14.1104C18.9917 14.0244 18.7804 13.9814 18.5298 13.9814C18.2827 13.9814 18.0571 14.0334 17.853 14.1372C17.6525 14.241 17.4788 14.3843 17.332 14.5669C17.1888 14.7495 17.076 14.959 16.9937 15.1953C16.9149 15.4281 16.8755 15.6751 16.8755 15.9365ZM21.9136 16.2212V16.0977C21.9136 15.6787 21.9744 15.2902 22.0962 14.9321C22.2179 14.5705 22.3934 14.2572 22.6226 13.9922C22.8517 13.7236 23.1292 13.516 23.4551 13.3691C23.7809 13.2188 24.1462 13.1436 24.5508 13.1436C24.959 13.1436 25.326 13.2188 25.6519 13.3691C25.9813 13.516 26.2606 13.7236 26.4897 13.9922C26.7225 14.2572 26.8997 14.5705 27.0215 14.9321C27.1432 15.2902 27.2041 15.6787 27.2041 16.0977V16.2212C27.2041 16.6401 27.1432 17.0286 27.0215 17.3867C26.8997 17.7448 26.7225 18.0581 26.4897 18.3267C26.2606 18.5916 25.9831 18.7993 25.6572 18.9497C25.335 19.0965 24.9697 19.1699 24.5615 19.1699C24.1533 19.1699 23.7863 19.0965 23.4604 18.9497C23.1346 18.7993 22.8553 18.5916 22.6226 18.3267C22.3934 18.0581 22.2179 17.7448 22.0962 17.3867C21.9744 17.0286 21.9136 16.6401 21.9136 16.2212ZM22.9072 16.0977V16.2212C22.9072 16.5112 22.9412 16.7852 23.0093 17.043C23.0773 17.2972 23.1794 17.5228 23.3154 17.7197C23.4551 17.9167 23.6287 18.0724 23.8364 18.187C24.0441 18.298 24.2858 18.3535 24.5615 18.3535C24.8337 18.3535 25.0718 18.298 25.2759 18.187C25.4836 18.0724 25.6554 17.9167 25.7915 17.7197C25.9276 17.5228 26.0296 17.2972 26.0977 17.043C26.1693 16.7852 26.2051 16.5112 26.2051 16.2212V16.0977C26.2051 15.8112 26.1693 15.5409 26.0977 15.2866C26.0296 15.0288 25.9258 14.8014 25.7861 14.6045C25.6501 14.404 25.4782 14.2464 25.2705 14.1318C25.0664 14.0173 24.8265 13.96 24.5508 13.96C24.2786 13.96 24.0387 14.0173 23.8311 14.1318C23.627 14.2464 23.4551 14.404 23.3154 14.6045C23.1794 14.8014 23.0773 15.0288 23.0093 15.2866C22.9412 15.5409 22.9072 15.8112 22.9072 16.0977ZM29.4438 14.3682V21.2969H28.4448V13.251H29.3579L29.4438 14.3682ZM33.3594 16.1084V16.2212C33.3594 16.6437 33.3092 17.0358 33.209 17.3975C33.1087 17.7555 32.9619 18.0671 32.7686 18.332C32.5788 18.597 32.3442 18.8029 32.0649 18.9497C31.7856 19.0965 31.4652 19.1699 31.1035 19.1699C30.7347 19.1699 30.4089 19.109 30.126 18.9873C29.8431 18.8656 29.6032 18.6883 29.4062 18.4556C29.2093 18.2228 29.0518 17.9435 28.9336 17.6177C28.819 17.2918 28.7402 16.9248 28.6973 16.5166V15.915C28.7402 15.4854 28.8208 15.1004 28.939 14.7603C29.0571 14.4201 29.2129 14.13 29.4062 13.8901C29.6032 13.6466 29.8413 13.4622 30.1206 13.3369C30.3999 13.208 30.7222 13.1436 31.0874 13.1436C31.4526 13.1436 31.7767 13.2152 32.0596 13.3584C32.3424 13.498 32.5806 13.6986 32.7739 13.96C32.9673 14.2214 33.1123 14.5347 33.209 14.8999C33.3092 15.2616 33.3594 15.6644 33.3594 16.1084ZM32.3604 16.2212V16.1084C32.3604 15.8184 32.3299 15.5462 32.269 15.292C32.2082 15.0342 32.1133 14.8086 31.9844 14.6152C31.859 14.4183 31.6979 14.2643 31.501 14.1533C31.304 14.0387 31.0695 13.9814 30.7974 13.9814C30.5467 13.9814 30.3283 14.0244 30.1421 14.1104C29.9595 14.1963 29.8037 14.3127 29.6748 14.4595C29.5459 14.6027 29.4403 14.7674 29.3579 14.9536C29.2791 15.1362 29.2201 15.326 29.1807 15.5229V16.9141C29.2523 17.1647 29.3525 17.401 29.4814 17.623C29.6104 17.8415 29.7822 18.0187 29.9971 18.1548C30.2119 18.2873 30.4823 18.3535 30.8081 18.3535C31.0767 18.3535 31.3076 18.298 31.501 18.187C31.6979 18.0724 31.859 17.9167 31.9844 17.7197C32.1133 17.5228 32.2082 17.2972 32.269 17.043C32.3299 16.7852 32.3604 16.5112 32.3604 16.2212ZM37.0386 19.1699C36.634 19.1699 36.2669 19.1019 35.9375 18.9658C35.6117 18.8262 35.3306 18.631 35.0942 18.3804C34.8615 18.1297 34.6825 17.8325 34.5571 17.4888C34.4318 17.145 34.3691 16.769 34.3691 16.3608V16.1353C34.3691 15.6626 34.439 15.2419 34.5786 14.873C34.7183 14.5007 34.908 14.1855 35.1479 13.9277C35.3879 13.6699 35.66 13.4748 35.9644 13.3423C36.2687 13.2098 36.5838 13.1436 36.9097 13.1436C37.325 13.1436 37.6831 13.2152 37.9839 13.3584C38.2882 13.5016 38.5371 13.7021 38.7305 13.96C38.9238 14.2142 39.0671 14.515 39.1602 14.8623C39.2533 15.2061 39.2998 15.582 39.2998 15.9902V16.436H34.96V15.625H38.3062V15.5498C38.2918 15.292 38.2381 15.0413 38.145 14.7979C38.0555 14.5544 37.9123 14.3538 37.7153 14.1963C37.5184 14.0387 37.2498 13.96 36.9097 13.96C36.6841 13.96 36.4764 14.0083 36.2866 14.105C36.0968 14.1981 35.9339 14.3377 35.7979 14.5239C35.6618 14.7101 35.5562 14.9375 35.481 15.2061C35.4058 15.4746 35.3682 15.7843 35.3682 16.1353V16.3608C35.3682 16.6366 35.4058 16.8962 35.481 17.1396C35.5597 17.3796 35.6725 17.5908 35.8193 17.7734C35.9697 17.9561 36.1506 18.0993 36.3618 18.2031C36.5767 18.307 36.8201 18.3589 37.0923 18.3589C37.4432 18.3589 37.7404 18.2873 37.9839 18.144C38.2274 18.0008 38.4404 17.8092 38.623 17.5693L39.2246 18.0474C39.0993 18.2371 38.9399 18.418 38.7466 18.5898C38.5532 18.7617 38.3151 18.9014 38.0322 19.0088C37.7529 19.1162 37.4217 19.1699 37.0386 19.1699ZM42.8716 19.1699C42.467 19.1699 42.0999 19.1019 41.7705 18.9658C41.4447 18.8262 41.1636 18.631 40.9272 18.3804C40.6945 18.1297 40.5155 17.8325 40.3901 17.4888C40.2648 17.145 40.2021 16.769 40.2021 16.3608V16.1353C40.2021 15.6626 40.272 15.2419 40.4116 14.873C40.5513 14.5007 40.741 14.1855 40.981 13.9277C41.2209 13.6699 41.493 13.4748 41.7974 13.3423C42.1017 13.2098 42.4168 13.1436 42.7427 13.1436C43.158 13.1436 43.5161 13.2152 43.8169 13.3584C44.1213 13.5016 44.3701 13.7021 44.5635 13.96C44.7568 14.2142 44.9001 14.515 44.9932 14.8623C45.0863 15.2061 45.1328 15.582 45.1328 15.9902V16.436H40.793V15.625H44.1392V15.5498C44.1248 15.292 44.0711 15.0413 43.978 14.7979C43.8885 14.5544 43.7453 14.3538 43.5483 14.1963C43.3514 14.0387 43.0828 13.96 42.7427 13.96C42.5171 13.96 42.3094 14.0083 42.1196 14.105C41.9299 14.1981 41.7669 14.3377 41.6309 14.5239C41.4948 14.7101 41.3892 14.9375 41.314 15.2061C41.2388 15.4746 41.2012 15.7843 41.2012 16.1353V16.3608C41.2012 16.6366 41.2388 16.8962 41.314 17.1396C41.3927 17.3796 41.5055 17.5908 41.6523 17.7734C41.8027 17.9561 41.9836 18.0993 42.1948 18.2031C42.4097 18.307 42.6532 18.3589 42.9253 18.3589C43.2762 18.3589 43.5734 18.2873 43.8169 18.144C44.0604 18.0008 44.2734 17.8092 44.4561 17.5693L45.0576 18.0474C44.9323 18.2371 44.7729 18.418 44.5796 18.5898C44.3862 18.7617 44.1481 18.9014 43.8652 19.0088C43.5859 19.1162 43.2547 19.1699 42.8716 19.1699Z" fill="#ED4D2D"/>
<path d="M8.37247 25.2743L10.1613 25.2167L11.5747 30.3055L9.74486 30.3055L8.37247 25.2743Z" fill="#ED4D2D"/>
<path d="M13.589 25.0795L15.7841 25.0795L11.7421 30.2909L11.1237 28.0903L13.589 25.0795Z" fill="#ED4D2D"/>
<path d="M18.6372 33.4172H16.8257V32.2746H18.6372C18.9172 32.2746 19.145 32.2291 19.3208 32.1379C19.4966 32.0435 19.6252 31.9133 19.7065 31.7473C19.7879 31.5813 19.8286 31.3941 19.8286 31.1858C19.8286 30.9742 19.7879 30.7772 19.7065 30.5949C19.6252 30.4127 19.4966 30.2662 19.3208 30.1555C19.145 30.0448 18.9172 29.9895 18.6372 29.9895H17.3335V35.9514H15.8687V28.842H18.6372C19.1938 28.842 19.6707 28.9429 20.0679 29.1447C20.4683 29.3433 20.7743 29.6184 20.9858 29.9699C21.1974 30.3215 21.3032 30.7235 21.3032 31.176C21.3032 31.635 21.1974 32.0321 20.9858 32.3674C20.7743 32.7027 20.4683 32.9615 20.0679 33.1438C19.6707 33.3261 19.1938 33.4172 18.6372 33.4172ZM22.314 28.842H24.9653C25.509 28.842 25.9761 28.9234 26.3667 29.0862C26.7606 29.2489 27.0633 29.4898 27.2749 29.8088C27.4865 30.1278 27.5923 30.5201 27.5923 30.9856C27.5923 31.3664 27.5272 31.6936 27.397 31.967C27.27 32.2372 27.0894 32.4634 26.855 32.6457C26.6239 32.8248 26.3521 32.968 26.0396 33.0754L25.5757 33.3196H23.271L23.2612 32.177H24.9751C25.2323 32.177 25.4455 32.1314 25.6147 32.0403C25.784 31.9491 25.911 31.8222 25.9956 31.6594C26.0835 31.4966 26.1274 31.3078 26.1274 31.093C26.1274 30.8651 26.0851 30.6682 26.0005 30.5022C25.9159 30.3362 25.7873 30.2092 25.6147 30.1213C25.4422 30.0334 25.2257 29.9895 24.9653 29.9895H23.7788V35.9514H22.314V28.842ZM26.2886 35.9514L24.6675 32.7824L26.2153 32.7727L27.856 35.883V35.9514H26.2886ZM33.4907 34.8088V35.9514H29.7065V34.8088H33.4907ZM30.1851 28.842V35.9514H28.7202V28.842H30.1851ZM32.9976 31.7375V32.8508H29.7065V31.7375H32.9976ZM33.4858 28.842V29.9895H29.7065V28.842H33.4858ZM38.0464 34.091C38.0464 33.9641 38.0269 33.8502 37.9878 33.7492C37.952 33.6451 37.8836 33.5507 37.7827 33.466C37.6818 33.3781 37.5402 33.2919 37.3579 33.2072C37.1756 33.1226 36.9396 33.0347 36.6499 32.9436C36.3276 32.8394 36.0216 32.7222 35.7319 32.592C35.4455 32.4618 35.1916 32.3104 34.9702 32.1379C34.7521 31.9621 34.5796 31.7587 34.4526 31.5276C34.3289 31.2964 34.2671 31.0279 34.2671 30.7219C34.2671 30.4257 34.3322 30.1571 34.4624 29.9162C34.5926 29.6721 34.7749 29.4638 35.0093 29.2912C35.2437 29.1154 35.5203 28.9804 35.8394 28.886C36.1616 28.7916 36.5148 28.7444 36.8989 28.7444C37.423 28.7444 37.8804 28.8388 38.271 29.0276C38.6616 29.2164 38.9644 29.4752 39.1792 29.8039C39.3973 30.1327 39.5063 30.5087 39.5063 30.9319H38.0513C38.0513 30.7235 38.0073 30.5412 37.9194 30.385C37.8348 30.2255 37.7046 30.1002 37.5288 30.009C37.3563 29.9179 37.1382 29.8723 36.8745 29.8723C36.6206 29.8723 36.409 29.9113 36.2397 29.9895C36.0705 30.0643 35.9435 30.1669 35.8589 30.2971C35.7743 30.424 35.7319 30.5673 35.7319 30.7268C35.7319 30.8472 35.7612 30.9563 35.8198 31.0539C35.8817 31.1516 35.9728 31.2427 36.0933 31.3274C36.2137 31.412 36.3618 31.4918 36.5376 31.5666C36.7134 31.6415 36.9168 31.7147 37.1479 31.7863C37.5353 31.9035 37.8755 32.0354 38.1685 32.1819C38.4647 32.3283 38.7121 32.4927 38.9106 32.675C39.1092 32.8573 39.259 33.064 39.3599 33.2951C39.4608 33.5263 39.5112 33.7883 39.5112 34.0813C39.5112 34.3905 39.451 34.6672 39.3306 34.9113C39.2101 35.1555 39.036 35.3622 38.8081 35.5315C38.5802 35.7007 38.3084 35.8293 37.9927 35.9172C37.6769 36.0051 37.3237 36.049 36.9331 36.049C36.5815 36.049 36.2349 36.0035 35.8931 35.9123C35.5513 35.8179 35.2404 35.6763 34.9604 35.4875C34.6838 35.2987 34.4624 35.0578 34.2964 34.7649C34.1304 34.4719 34.0474 34.1252 34.0474 33.7248H35.5171C35.5171 33.9462 35.5513 34.1334 35.6196 34.2863C35.688 34.4393 35.784 34.563 35.9077 34.6574C36.0347 34.7518 36.1844 34.8202 36.3569 34.8625C36.5327 34.9048 36.7248 34.926 36.9331 34.926C37.187 34.926 37.3953 34.8902 37.5581 34.8186C37.7241 34.747 37.8462 34.6477 37.9243 34.5207C38.0057 34.3938 38.0464 34.2505 38.0464 34.091ZM44.2085 34.091C44.2085 33.9641 44.189 33.8502 44.1499 33.7492C44.1141 33.6451 44.0457 33.5507 43.9448 33.466C43.8439 33.3781 43.7023 33.2919 43.52 33.2072C43.3377 33.1226 43.1017 33.0347 42.812 32.9436C42.4897 32.8394 42.1838 32.7222 41.894 32.592C41.6076 32.4618 41.3537 32.3104 41.1323 32.1379C40.9142 31.9621 40.7417 31.7587 40.6147 31.5276C40.491 31.2964 40.4292 31.0279 40.4292 30.7219C40.4292 30.4257 40.4943 30.1571 40.6245 29.9162C40.7547 29.6721 40.937 29.4638 41.1714 29.2912C41.4058 29.1154 41.6825 28.9804 42.0015 28.886C42.3237 28.7916 42.6769 28.7444 43.061 28.7444C43.5851 28.7444 44.0425 28.8388 44.4331 29.0276C44.8237 29.2164 45.1265 29.4752 45.3413 29.8039C45.5594 30.1327 45.6685 30.5087 45.6685 30.9319H44.2134C44.2134 30.7235 44.1694 30.5412 44.0815 30.385C43.9969 30.2255 43.8667 30.1002 43.6909 30.009C43.5184 29.9179 43.3003 29.8723 43.0366 29.8723C42.7827 29.8723 42.5711 29.9113 42.4019 29.9895C42.2326 30.0643 42.1056 30.1669 42.021 30.2971C41.9364 30.424 41.894 30.5673 41.894 30.7268C41.894 30.8472 41.9233 30.9563 41.9819 31.0539C42.0438 31.1516 42.1349 31.2427 42.2554 31.3274C42.3758 31.412 42.5239 31.4918 42.6997 31.5666C42.8755 31.6415 43.0789 31.7147 43.3101 31.7863C43.6974 31.9035 44.0376 32.0354 44.3306 32.1819C44.6268 32.3283 44.8742 32.4927 45.0728 32.675C45.2713 32.8573 45.4211 33.064 45.522 33.2951C45.6229 33.5263 45.6733 33.7883 45.6733 34.0813C45.6733 34.3905 45.6131 34.6672 45.4927 34.9113C45.3722 35.1555 45.1981 35.3622 44.9702 35.5315C44.7424 35.7007 44.4705 35.8293 44.1548 35.9172C43.839 36.0051 43.4858 36.049 43.0952 36.049C42.7437 36.049 42.397 36.0035 42.0552 35.9123C41.7134 35.8179 41.4025 35.6763 41.1226 35.4875C40.8459 35.2987 40.6245 35.0578 40.4585 34.7649C40.2925 34.4719 40.2095 34.1252 40.2095 33.7248H41.6792C41.6792 33.9462 41.7134 34.1334 41.7817 34.2863C41.8501 34.4393 41.9461 34.563 42.0698 34.6574C42.1968 34.7518 42.3465 34.8202 42.519 34.8625C42.6948 34.9048 42.8869 34.926 43.0952 34.926C43.3491 34.926 43.5575 34.8902 43.7202 34.8186C43.8862 34.747 44.0083 34.6477 44.0864 34.5207C44.1678 34.3938 44.2085 34.2505 44.2085 34.091Z" fill="url(#paint0_linear_84_550)"/>
<path d="M17.0638 25.8333H33.5319L32.617 28.0694H16.1489L17.0638 25.8333Z" fill="url(#paint1_linear_84_550)"/>
<path d="M34.4466 25.8333H38.1062L37.1913 28.0694H33.5317L34.4466 25.8333Z" fill="url(#paint2_linear_84_550)"/>
<path d="M39.0213 25.8333H41.766L40.8511 28.0694H38.1064L39.0213 25.8333Z" fill="url(#paint3_linear_84_550)"/>
<path d="M42.4523 25.8333H44.5108L43.8246 28.0694H41.7661L42.4523 25.8333Z" fill="url(#paint4_linear_84_550)"/>
<defs>
<linearGradient id="paint0_linear_84_550" x1="32.6169" y1="26.9514" x2="32.6169" y2="41.4861" gradientUnits="userSpaceOnUse">
<stop offset="0.607813" stop-color="#ED4D2D"/>
<stop offset="0.769275" stop-color="#FEFC03"/>
</linearGradient>
<linearGradient id="paint1_linear_84_550" x1="24.8404" y1="25.8333" x2="24.8404" y2="28.0694" gradientUnits="userSpaceOnUse">
<stop offset="0.665106" stop-color="#ED4D2D"/>
<stop offset="1" stop-color="#FEFC03"/>
</linearGradient>
<linearGradient id="paint2_linear_84_550" x1="35.819" y1="25.8333" x2="35.819" y2="28.0694" gradientUnits="userSpaceOnUse">
<stop offset="0.665106" stop-color="#ED4D2D"/>
<stop offset="1" stop-color="#FEFC03"/>
</linearGradient>
<linearGradient id="paint3_linear_84_550" x1="39.9362" y1="25.8333" x2="39.9362" y2="28.0694" gradientUnits="userSpaceOnUse">
<stop offset="0.665106" stop-color="#ED4D2D"/>
<stop offset="1" stop-color="#FEFC03"/>
</linearGradient>
<linearGradient id="paint4_linear_84_550" x1="43.1385" y1="25.8333" x2="43.1385" y2="28.0694" gradientUnits="userSpaceOnUse">
<stop offset="0.665106" stop-color="#ED4D2D"/>
<stop offset="1" stop-color="#FEFC03"/>
</linearGradient>
</defs>
</svg>
