<svg width="26" height="19" viewBox="0 0 26 19" fill="none" xmlns="http://www.w3.org/2000/svg">
<path d="M20.7571 7.4828L24.7094 4.6608C25.0404 4.42451 25.5 4.66108 25.5 5.06772V13.6739C25.5 14.0517 25.097 14.293 24.764 14.1147L20.8116 11.9982C20.6491 11.9111 20.5476 11.7417 20.5476 11.5574V7.88972C20.5476 7.72822 20.6256 7.57665 20.7571 7.4828Z" fill="white" stroke="#505050"/>
<path d="M19.0476 0.5H2C1.17157 0.5 0.5 1.17157 0.5 2V17C0.5 17.8284 1.17157 18.5 2 18.5H19.0476C19.876 18.5 20.5476 17.8284 20.5476 17V2C20.5476 1.17157 19.876 0.5 19.0476 0.5Z" fill="white" stroke="#505050"/>
<path d="M20.0476 8.50149C20.0476 8.17275 20.3141 7.90625 20.6428 7.90625V7.90625C20.9716 7.90625 21.2381 8.17275 21.2381 8.50149V11.0298C21.2381 11.3585 20.9716 11.625 20.6428 11.625V11.625C20.3141 11.625 20.0476 11.3585 20.0476 11.0298V8.50149Z" fill="white"/>
<path d="M13.4379 9.97919L9.52584 12.0916C9.19706 12.2691 8.79531 12.0348 8.78671 11.6606L8.693 7.58067C8.6844 7.20641 9.07506 6.95764 9.41171 7.12299L13.4175 9.09052C13.7829 9.27004 13.7948 9.78645 13.4379 9.97919Z" stroke="#505050"/>
</svg>
