<svg width="51" height="73" viewBox="0 0 51 73" fill="none" xmlns="http://www.w3.org/2000/svg">
<path d="M10.6933 60.4653C10.6933 60.3325 10.6777 60.2153 10.6464 60.1137C10.6152 60.0095 10.5605 59.9158 10.4823 59.8325C10.4042 59.7491 10.2948 59.6697 10.1542 59.5942C10.0136 59.5187 9.83521 59.4418 9.61906 59.3637C9.38469 59.2804 9.17245 59.1879 8.98234 59.0864C8.79224 58.9822 8.62948 58.8637 8.49406 58.7309C8.36125 58.5981 8.25839 58.4457 8.18547 58.2739C8.11255 58.102 8.07609 57.9054 8.07609 57.684C8.07609 57.4627 8.11385 57.2582 8.18937 57.0707C8.2675 56.8832 8.37687 56.7205 8.5175 56.5825C8.66073 56.4418 8.8326 56.3325 9.03312 56.2543C9.23365 56.1762 9.4576 56.1371 9.705 56.1371C10.0748 56.1371 10.386 56.2192 10.6386 56.3832C10.8938 56.5447 11.0865 56.7569 11.2167 57.02C11.3469 57.2804 11.412 57.559 11.412 57.8559H10.6933C10.6933 57.6424 10.6581 57.4536 10.5878 57.2895C10.5201 57.1228 10.4133 56.9926 10.2675 56.8989C10.1243 56.8025 9.93677 56.7543 9.705 56.7543C9.49667 56.7543 9.32479 56.7947 9.18937 56.8754C9.05656 56.9562 8.9576 57.0655 8.8925 57.2036C8.83 57.3416 8.79875 57.4991 8.79875 57.6762C8.79875 57.796 8.81958 57.9054 8.86125 58.0043C8.90292 58.1007 8.96672 58.1905 9.05266 58.2739C9.1412 58.3572 9.25057 58.434 9.38078 58.5043C9.51359 58.5746 9.66984 58.6424 9.84953 58.7075C10.1282 58.7986 10.3665 58.9002 10.5644 59.0121C10.7623 59.1241 10.9237 59.2504 11.0487 59.3911C11.1737 59.5291 11.2649 59.6866 11.3222 59.8637C11.3821 60.0382 11.412 60.2361 11.412 60.4575C11.412 60.6892 11.373 60.8989 11.2948 61.0864C11.2193 61.2739 11.1086 61.434 10.9628 61.5668C10.817 61.6996 10.6412 61.8025 10.4355 61.8754C10.2297 61.9457 9.99797 61.9809 9.74016 61.9809C9.5162 61.9809 9.29615 61.9444 9.08 61.8715C8.86646 61.7986 8.67245 61.6892 8.49797 61.5434C8.32349 61.3976 8.18417 61.2179 8.08 61.0043C7.97583 60.7882 7.92375 60.5382 7.92375 60.2543H8.6425C8.6425 60.4496 8.67115 60.6176 8.72844 60.7582C8.78573 60.8963 8.86516 61.0108 8.96672 61.102C9.06828 61.1931 9.18417 61.2608 9.31437 61.3051C9.44719 61.3468 9.58911 61.3676 9.74016 61.3676C9.94849 61.3676 10.123 61.3312 10.2636 61.2582C10.4068 61.1853 10.5136 61.0812 10.5839 60.9457C10.6568 60.8103 10.6933 60.6502 10.6933 60.4653ZM13.4311 55.9028V61.9028H12.7397V55.9028H13.4311ZM13.2631 59.6293L12.9819 59.6176C12.9793 59.3286 13.0118 59.0616 13.0795 58.8168C13.1498 58.5694 13.2488 58.3546 13.3764 58.1723C13.5066 57.99 13.6616 57.8494 13.8412 57.7504C14.0209 57.6489 14.2202 57.5981 14.4389 57.5981C14.6108 57.5981 14.767 57.6267 14.9077 57.684C15.0483 57.7387 15.1681 57.8273 15.267 57.9496C15.366 58.072 15.4415 58.2309 15.4936 58.4262C15.5483 58.6189 15.5756 58.8546 15.5756 59.1332V61.9028H14.8842V59.1254C14.8842 58.9041 14.8595 58.727 14.81 58.5942C14.7631 58.4588 14.6902 58.3611 14.5912 58.3012C14.4949 58.2387 14.3725 58.2075 14.2241 58.2075C14.0886 58.2075 13.9623 58.2452 13.8452 58.3207C13.728 58.3963 13.6251 58.5004 13.5366 58.6332C13.4506 58.7661 13.3829 58.9184 13.3334 59.0903C13.2866 59.2595 13.2631 59.4392 13.2631 59.6293ZM16.9423 59.9926V59.5903C16.9423 59.2621 16.984 58.9744 17.0673 58.727C17.1507 58.477 17.2666 58.2687 17.415 58.102C17.5634 57.9353 17.7366 57.8103 17.9345 57.727C18.1324 57.6411 18.3447 57.5981 18.5713 57.5981C18.803 57.5981 19.0179 57.6411 19.2158 57.727C19.4137 57.8103 19.5869 57.9353 19.7353 58.102C19.8864 58.2687 20.0035 58.477 20.0869 58.727C20.1702 58.9744 20.2119 59.2621 20.2119 59.5903V59.9926C20.2119 60.3207 20.1702 60.6098 20.0869 60.8598C20.0035 61.1072 19.8877 61.3142 19.7392 61.4809C19.5908 61.6476 19.4176 61.7726 19.2197 61.8559C19.0218 61.9392 18.8082 61.9809 18.5791 61.9809C18.3499 61.9809 18.1364 61.9392 17.9384 61.8559C17.7405 61.7726 17.566 61.6476 17.415 61.4809C17.2666 61.3142 17.1507 61.1072 17.0673 60.8598C16.984 60.6098 16.9423 60.3207 16.9423 59.9926ZM17.6338 59.5903V59.9926C17.6338 60.2244 17.6572 60.4275 17.7041 60.602C17.7509 60.7765 17.8173 60.9223 17.9033 61.0395C17.9892 61.1567 18.0895 61.2452 18.2041 61.3051C18.3186 61.3624 18.4436 61.3911 18.5791 61.3911C18.7353 61.3911 18.872 61.3624 18.9892 61.3051C19.109 61.2452 19.208 61.1567 19.2861 61.0395C19.3642 60.9223 19.4228 60.7765 19.4619 60.602C19.5009 60.4275 19.5205 60.2244 19.5205 59.9926V59.5903C19.5205 59.3585 19.497 59.1567 19.4502 58.9848C19.4033 58.8103 19.3369 58.6645 19.2509 58.5473C19.165 58.4275 19.0634 58.339 18.9463 58.2817C18.8317 58.2218 18.7067 58.1918 18.5713 58.1918C18.4384 58.1918 18.3147 58.2218 18.2002 58.2817C18.0856 58.339 17.9853 58.4275 17.8994 58.5473C17.816 58.6645 17.7509 58.8103 17.7041 58.9848C17.6572 59.1567 17.6338 59.3585 17.6338 59.5903ZM22.2739 58.4887V63.5278H21.5825V57.6762H22.2114L22.2739 58.4887ZM24.6372 59.5981V59.9926C24.6372 60.326 24.6059 60.6176 24.5434 60.8676C24.4835 61.115 24.3937 61.322 24.2739 61.4887C24.1567 61.6528 24.0122 61.7765 23.8403 61.8598C23.6684 61.9405 23.4718 61.9809 23.2505 61.9809C23.0291 61.9809 22.8364 61.9392 22.6723 61.8559C22.5109 61.77 22.3742 61.6463 22.2622 61.4848C22.1528 61.3233 22.0656 61.1293 22.0005 60.9028C21.938 60.6736 21.895 60.4171 21.8716 60.1332V59.5317C21.895 59.2322 21.938 58.964 22.0005 58.727C22.063 58.4874 22.1489 58.2843 22.2583 58.1176C22.3703 57.9483 22.507 57.8194 22.6684 57.7309C22.8325 57.6424 23.0239 57.5981 23.2427 57.5981C23.4692 57.5981 23.6684 57.6371 23.8403 57.7153C24.0148 57.7934 24.1606 57.9145 24.2778 58.0786C24.3976 58.24 24.4874 58.447 24.5473 58.6996C24.6072 58.9496 24.6372 59.2491 24.6372 59.5981ZM23.9458 59.9926V59.5981C23.9458 59.3637 23.9276 59.1593 23.8911 58.9848C23.8572 58.8103 23.8026 58.6658 23.727 58.5512C23.6515 58.4366 23.5565 58.3507 23.4419 58.2934C23.3273 58.2361 23.1893 58.2075 23.0278 58.2075C22.8898 58.2075 22.7674 58.2361 22.6606 58.2934C22.5565 58.3507 22.4666 58.4288 22.3911 58.5278C22.3156 58.6241 22.2531 58.7348 22.2036 58.8598C22.1541 58.9822 22.1177 59.1098 22.0942 59.2426V60.4262C22.1385 60.5929 22.1971 60.7504 22.27 60.8989C22.3429 61.0447 22.4406 61.1632 22.563 61.2543C22.688 61.3455 22.8455 61.3911 23.0356 61.3911C23.1945 61.3911 23.3312 61.3624 23.4458 61.3051C23.5604 61.2478 23.6541 61.1619 23.727 61.0473C23.8026 60.9301 23.8572 60.7843 23.8911 60.6098C23.9276 60.4327 23.9458 60.227 23.9458 59.9926ZM27.5195 61.9809C27.2669 61.9809 27.0391 61.9431 26.8359 61.8676C26.6328 61.7921 26.4596 61.6775 26.3164 61.5239C26.1732 61.3676 26.0638 61.171 25.9883 60.934C25.9128 60.697 25.875 60.4171 25.875 60.0942V59.6176C25.875 59.2452 25.918 58.9301 26.0039 58.6723C26.0924 58.4145 26.2109 58.2075 26.3594 58.0512C26.5078 57.8924 26.6758 57.7778 26.8633 57.7075C27.0508 57.6345 27.2435 57.5981 27.4414 57.5981C27.707 57.5981 27.9336 57.6411 28.1211 57.727C28.3086 57.8129 28.4609 57.9405 28.5781 58.1098C28.6953 58.2791 28.7812 58.4874 28.8359 58.7348C28.8932 58.9822 28.9219 59.2674 28.9219 59.5903V59.9926H26.2812V59.4028H28.2305V59.3051C28.2201 59.0864 28.1901 58.8937 28.1406 58.727C28.0938 58.5603 28.0156 58.4301 27.9062 58.3364C27.7969 58.24 27.6419 58.1918 27.4414 58.1918C27.3138 58.1918 27.1953 58.214 27.0859 58.2582C26.9792 58.2999 26.8867 58.3741 26.8086 58.4809C26.7331 58.5851 26.6732 58.7296 26.6289 58.9145C26.5872 59.0994 26.5664 59.3338 26.5664 59.6176V60.0942C26.5664 60.3207 26.5872 60.5161 26.6289 60.6801C26.6732 60.8416 26.737 60.9757 26.8203 61.0825C26.9062 61.1866 27.0104 61.2648 27.1328 61.3168C27.2578 61.3663 27.3997 61.3911 27.5586 61.3911C27.7904 61.3911 27.9818 61.3468 28.1328 61.2582C28.2839 61.1671 28.4154 61.0512 28.5273 60.9106L28.8906 61.3442C28.8151 61.451 28.7161 61.5538 28.5938 61.6528C28.474 61.7491 28.3255 61.8286 28.1484 61.8911C27.974 61.951 27.7643 61.9809 27.5195 61.9809ZM31.7495 61.9809C31.4969 61.9809 31.2691 61.9431 31.0659 61.8676C30.8628 61.7921 30.6896 61.6775 30.5464 61.5239C30.4032 61.3676 30.2938 61.171 30.2183 60.934C30.1428 60.697 30.105 60.4171 30.105 60.0942V59.6176C30.105 59.2452 30.148 58.9301 30.2339 58.6723C30.3224 58.4145 30.4409 58.2075 30.5894 58.0512C30.7378 57.8924 30.9058 57.7778 31.0933 57.7075C31.2808 57.6345 31.4735 57.5981 31.6714 57.5981C31.937 57.5981 32.1636 57.6411 32.3511 57.727C32.5386 57.8129 32.6909 57.9405 32.8081 58.1098C32.9253 58.2791 33.0112 58.4874 33.0659 58.7348C33.1232 58.9822 33.1519 59.2674 33.1519 59.5903V59.9926H30.5112V59.4028H32.4605V59.3051C32.4501 59.0864 32.4201 58.8937 32.3706 58.727C32.3237 58.5603 32.2456 58.4301 32.1362 58.3364C32.0269 58.24 31.8719 58.1918 31.6714 58.1918C31.5438 58.1918 31.4253 58.214 31.3159 58.2582C31.2092 58.2999 31.1167 58.3741 31.0386 58.4809C30.9631 58.5851 30.9032 58.7296 30.8589 58.9145C30.8172 59.0994 30.7964 59.3338 30.7964 59.6176V60.0942C30.7964 60.3207 30.8172 60.5161 30.8589 60.6801C30.9032 60.8416 30.967 60.9757 31.0503 61.0825C31.1362 61.1866 31.2404 61.2648 31.3628 61.3168C31.4878 61.3663 31.6297 61.3911 31.7886 61.3911C32.0204 61.3911 32.2118 61.3468 32.3628 61.2582C32.5139 61.1671 32.6454 61.0512 32.7573 60.9106L33.1206 61.3442C33.0451 61.451 32.9461 61.5538 32.8237 61.6528C32.704 61.7491 32.5555 61.8286 32.3784 61.8911C32.204 61.951 31.9943 61.9809 31.7495 61.9809ZM36.3741 59.6723H35.1319V59.059H36.3741C36.6084 59.059 36.7972 59.0121 36.9405 58.9184C37.0863 58.8246 37.1918 58.6944 37.2569 58.5278C37.3246 58.3611 37.3584 58.171 37.3584 57.9575C37.3584 57.7621 37.3246 57.5786 37.2569 57.4067C37.1918 57.2348 37.0863 57.0968 36.9405 56.9926C36.7972 56.8858 36.6084 56.8325 36.3741 56.8325H35.2803V61.9028H34.5616V56.2153H36.3741C36.7412 56.2153 37.0511 56.2895 37.3037 56.4379C37.5564 56.5864 37.7478 56.7921 37.878 57.0551C38.0108 57.3155 38.0772 57.6137 38.0772 57.9496C38.0772 58.3142 38.0108 58.6254 37.878 58.8832C37.7478 59.1411 37.5564 59.3377 37.3037 59.4731C37.0511 59.6059 36.7412 59.6723 36.3741 59.6723ZM41.4088 61.1801V58.8871C41.4088 58.7205 41.3827 58.5864 41.3306 58.4848C41.2811 58.3832 41.2056 58.309 41.1041 58.2621C41.0051 58.2153 40.8801 58.1918 40.7291 58.1918C40.5832 58.1918 40.4569 58.2218 40.3502 58.2817C40.246 58.3416 40.1653 58.421 40.108 58.52C40.0533 58.6189 40.0259 58.7283 40.0259 58.8481H39.3345C39.3345 58.697 39.3671 58.5473 39.4322 58.3989C39.4999 58.2504 39.5963 58.1163 39.7213 57.9965C39.8463 57.8741 39.996 57.7778 40.1705 57.7075C40.3476 57.6345 40.5455 57.5981 40.7642 57.5981C41.0246 57.5981 41.2551 57.6411 41.4556 57.727C41.6561 57.8103 41.8137 57.947 41.9283 58.1371C42.0429 58.3273 42.1002 58.5799 42.1002 58.895V60.9809C42.1002 61.1215 42.1106 61.2713 42.1314 61.4301C42.1548 61.589 42.1874 61.7257 42.2291 61.8403V61.9028H41.5142C41.4804 61.8194 41.4543 61.7088 41.4361 61.5707C41.4179 61.4301 41.4088 61.2999 41.4088 61.1801ZM41.5181 59.3403L41.5259 59.8481H41.0455C40.8814 59.8481 40.7317 59.8663 40.5963 59.9028C40.4634 59.9392 40.3489 59.9926 40.2525 60.0629C40.1561 60.1306 40.0819 60.2153 40.0298 60.3168C39.9804 60.4184 39.9556 60.5343 39.9556 60.6645C39.9556 60.8338 39.9791 60.9692 40.0259 61.0707C40.0728 61.1697 40.1431 61.2413 40.2369 61.2856C40.3306 61.3299 40.4491 61.352 40.5923 61.352C40.7668 61.352 40.9205 61.3116 41.0533 61.2309C41.1861 61.1502 41.289 61.0525 41.3619 60.9379C41.4374 60.8233 41.4726 60.7166 41.4673 60.6176L41.6197 60.9418C41.6093 61.0434 41.5754 61.1541 41.5181 61.2739C41.4634 61.3911 41.3866 61.5043 41.2877 61.6137C41.1887 61.7205 41.0715 61.809 40.9361 61.8793C40.8033 61.947 40.6535 61.9809 40.4869 61.9809C40.2421 61.9809 40.0272 61.934 39.8423 61.8403C39.6601 61.7465 39.5181 61.6085 39.4166 61.4262C39.315 61.2439 39.2642 61.0187 39.2642 60.7504C39.2642 60.5473 39.2994 60.3598 39.3697 60.1879C39.44 60.0161 39.5442 59.8676 39.6822 59.7426C39.8202 59.615 39.9934 59.5161 40.2017 59.4457C40.4127 59.3754 40.6561 59.3403 40.9322 59.3403H41.5181ZM44.5723 61.4653L45.5137 57.6762H46.2481L44.8536 62.5551C44.8197 62.6593 44.7742 62.7713 44.7169 62.8911C44.6622 63.0135 44.5919 63.1293 44.5059 63.2387C44.42 63.3481 44.3171 63.4366 44.1973 63.5043C44.0776 63.5746 43.9369 63.6098 43.7755 63.6098C43.726 63.6098 43.6622 63.602 43.5841 63.5864C43.5085 63.5707 43.4539 63.5577 43.42 63.5473V62.9614C43.4356 62.964 43.4604 62.9666 43.4942 62.9692C43.5281 62.9744 43.5528 62.977 43.5684 62.977C43.7039 62.977 43.8184 62.9549 43.9122 62.9106C44.0085 62.8689 44.0906 62.7973 44.1583 62.6957C44.226 62.5968 44.2833 62.4601 44.3302 62.2856L44.5723 61.4653ZM43.963 57.6762L44.8028 60.9575L44.9825 61.7192L44.4903 61.9848L43.2091 57.6762H43.963ZM12.2441 69.4653C12.2441 69.3325 12.2284 69.2153 12.1972 69.1137C12.1659 69.0095 12.1112 68.9158 12.0331 68.8325C11.955 68.7491 11.8456 68.6697 11.705 68.5942C11.5644 68.5187 11.386 68.4418 11.1698 68.3637C10.9355 68.2804 10.7232 68.1879 10.5331 68.0864C10.343 67.9822 10.1803 67.8637 10.0448 67.7309C9.91203 67.5981 9.80917 67.4457 9.73625 67.2739C9.66333 67.102 9.62687 66.9054 9.62687 66.684C9.62687 66.4627 9.66464 66.2582 9.74016 66.0707C9.81828 65.8832 9.92766 65.7205 10.0683 65.5825C10.2115 65.4418 10.3834 65.3325 10.5839 65.2543C10.7844 65.1762 11.0084 65.1371 11.2558 65.1371C11.6256 65.1371 11.9368 65.2192 12.1894 65.3832C12.4446 65.5447 12.6373 65.7569 12.7675 66.02C12.8977 66.2804 12.9628 66.559 12.9628 66.8559H12.2441C12.2441 66.6424 12.2089 66.4536 12.1386 66.2895C12.0709 66.1228 11.9641 65.9926 11.8183 65.8989C11.6751 65.8025 11.4876 65.7543 11.2558 65.7543C11.0474 65.7543 10.8756 65.7947 10.7402 65.8754C10.6073 65.9562 10.5084 66.0655 10.4433 66.2036C10.3808 66.3416 10.3495 66.4991 10.3495 66.6762C10.3495 66.796 10.3704 66.9054 10.412 67.0043C10.4537 67.1007 10.5175 67.1905 10.6034 67.2739C10.692 67.3572 10.8014 67.434 10.9316 67.5043C11.0644 67.5746 11.2206 67.6424 11.4003 67.7075C11.679 67.7986 11.9172 67.9002 12.1152 68.0121C12.3131 68.1241 12.4745 68.2504 12.5995 68.3911C12.7245 68.5291 12.8157 68.6866 12.873 68.8637C12.9329 69.0382 12.9628 69.2361 12.9628 69.4575C12.9628 69.6892 12.9237 69.8989 12.8456 70.0864C12.7701 70.2739 12.6594 70.434 12.5136 70.5668C12.3678 70.6996 12.192 70.8025 11.9862 70.8754C11.7805 70.9457 11.5487 70.9809 11.2909 70.9809C11.067 70.9809 10.8469 70.9444 10.6308 70.8715C10.4172 70.7986 10.2232 70.6892 10.0487 70.5434C9.87427 70.3976 9.73495 70.2179 9.63078 70.0043C9.52661 69.7882 9.47453 69.5382 9.47453 69.2543H10.1933C10.1933 69.4496 10.2219 69.6176 10.2792 69.7582C10.3365 69.8963 10.4159 70.0108 10.5175 70.102C10.6191 70.1931 10.7349 70.2608 10.8652 70.3051C10.998 70.3468 11.1399 70.3676 11.2909 70.3676C11.4993 70.3676 11.6737 70.3312 11.8144 70.2582C11.9576 70.1853 12.0644 70.0812 12.1347 69.9457C12.2076 69.8103 12.2441 69.6502 12.2441 69.4653ZM15.8022 70.9809C15.5496 70.9809 15.3217 70.9431 15.1186 70.8676C14.9155 70.7921 14.7423 70.6775 14.5991 70.5239C14.4558 70.3676 14.3465 70.171 14.2709 69.934C14.1954 69.697 14.1577 69.4171 14.1577 69.0942V68.6176C14.1577 68.2452 14.2006 67.9301 14.2866 67.6723C14.3751 67.4145 14.4936 67.2075 14.642 67.0512C14.7905 66.8924 14.9584 66.7778 15.1459 66.7075C15.3334 66.6345 15.5261 66.5981 15.7241 66.5981C15.9897 66.5981 16.2162 66.6411 16.4037 66.727C16.5912 66.8129 16.7436 66.9405 16.8608 67.1098C16.978 67.2791 17.0639 67.4874 17.1186 67.7348C17.1759 67.9822 17.2045 68.2674 17.2045 68.5903V68.9926H14.5639V68.4028H16.5131V68.3051C16.5027 68.0864 16.4728 67.8937 16.4233 67.727C16.3764 67.5603 16.2983 67.4301 16.1889 67.3364C16.0795 67.24 15.9246 67.1918 15.7241 67.1918C15.5965 67.1918 15.478 67.214 15.3686 67.2582C15.2618 67.2999 15.1694 67.3741 15.0912 67.4809C15.0157 67.5851 14.9558 67.7296 14.9116 67.9145C14.8699 68.0994 14.8491 68.3338 14.8491 68.6176V69.0942C14.8491 69.3207 14.8699 69.5161 14.9116 69.6801C14.9558 69.8416 15.0196 69.9757 15.103 70.0825C15.1889 70.1866 15.2931 70.2648 15.4155 70.3168C15.5405 70.3663 15.6824 70.3911 15.8412 70.3911C16.073 70.3911 16.2644 70.3468 16.4155 70.2582C16.5665 70.1671 16.698 70.0512 16.81 69.9106L17.1733 70.3442C17.0978 70.451 16.9988 70.5538 16.8764 70.6528C16.7566 70.7491 16.6082 70.8286 16.4311 70.8911C16.2566 70.951 16.047 70.9809 15.8022 70.9809ZM19.2158 64.9028V70.9028H18.5244V64.9028H19.2158ZM21.3603 66.6762L19.8564 68.6489L18.9267 69.7192L18.8798 68.9496L19.5205 68.0668L20.5283 66.6762H21.3603ZM20.7275 70.9028L19.54 68.8871L19.8955 68.2426L21.5322 70.9028H20.7275ZM23.352 66.6762V70.9028H22.6645V66.6762H23.352ZM22.6255 65.5551C22.6255 65.4379 22.658 65.339 22.7231 65.2582C22.7882 65.1775 22.8859 65.1371 23.0161 65.1371C23.1463 65.1371 23.244 65.1775 23.3091 65.2582C23.3768 65.339 23.4106 65.4379 23.4106 65.5551C23.4106 65.6671 23.3768 65.7635 23.3091 65.8442C23.244 65.9223 23.1463 65.9614 23.0161 65.9614C22.8859 65.9614 22.7882 65.9223 22.7231 65.8442C22.658 65.7635 22.6255 65.6671 22.6255 65.5551ZM26.4688 66.6762V67.2309H24.4961V66.6762H26.4688ZM25.1406 65.6489H25.832V69.8559C25.832 69.9991 25.849 70.1072 25.8828 70.1801C25.9193 70.253 25.9648 70.3012 26.0195 70.3246C26.0742 70.3481 26.1328 70.3598 26.1953 70.3598C26.2422 70.3598 26.2943 70.3546 26.3516 70.3442C26.4089 70.3312 26.4479 70.3207 26.4688 70.3129L26.4648 70.9028C26.418 70.921 26.3555 70.9379 26.2773 70.9536C26.1992 70.9718 26.1003 70.9809 25.9805 70.9809C25.832 70.9809 25.694 70.9457 25.5664 70.8754C25.4388 70.8051 25.3359 70.6879 25.2578 70.5239C25.1797 70.3572 25.1406 70.1332 25.1406 69.852V65.6489ZM29.8433 70.1801V67.8871C29.8433 67.7205 29.8172 67.5864 29.7652 67.4848C29.7157 67.3832 29.6402 67.309 29.5386 67.2621C29.4396 67.2153 29.3146 67.1918 29.1636 67.1918C29.0178 67.1918 28.8915 67.2218 28.7847 67.2817C28.6805 67.3416 28.5998 67.421 28.5425 67.52C28.4878 67.6189 28.4605 67.7283 28.4605 67.8481H27.7691C27.7691 67.697 27.8016 67.5473 27.8667 67.3989C27.9344 67.2504 28.0308 67.1163 28.1558 66.9965C28.2808 66.8741 28.4305 66.7778 28.605 66.7075C28.7821 66.6345 28.98 66.5981 29.1987 66.5981C29.4592 66.5981 29.6896 66.6411 29.8902 66.727C30.0907 66.8103 30.2482 66.947 30.3628 67.1371C30.4774 67.3273 30.5347 67.5799 30.5347 67.895V69.9809C30.5347 70.1215 30.5451 70.2713 30.5659 70.4301C30.5894 70.589 30.6219 70.7257 30.6636 70.8403V70.9028H29.9487C29.9149 70.8194 29.8889 70.7088 29.8706 70.5707C29.8524 70.4301 29.8433 70.2999 29.8433 70.1801ZM29.9527 68.3403L29.9605 68.8481H29.48C29.3159 68.8481 29.1662 68.8663 29.0308 68.9028C28.898 68.9392 28.7834 68.9926 28.687 69.0629C28.5907 69.1306 28.5165 69.2153 28.4644 69.3168C28.4149 69.4184 28.3902 69.5343 28.3902 69.6645C28.3902 69.8338 28.4136 69.9692 28.4605 70.0707C28.5073 70.1697 28.5777 70.2413 28.6714 70.2856C28.7652 70.3299 28.8836 70.352 29.0269 70.352C29.2014 70.352 29.355 70.3116 29.4878 70.2309C29.6206 70.1502 29.7235 70.0525 29.7964 69.9379C29.8719 69.8233 29.9071 69.7166 29.9019 69.6176L30.0542 69.9418C30.0438 70.0434 30.0099 70.1541 29.9527 70.2739C29.898 70.3911 29.8211 70.5043 29.7222 70.6137C29.6232 70.7205 29.506 70.809 29.3706 70.8793C29.2378 70.947 29.0881 70.9809 28.9214 70.9809C28.6766 70.9809 28.4618 70.934 28.2769 70.8403C28.0946 70.7465 27.9527 70.6085 27.8511 70.4262C27.7495 70.2439 27.6987 70.0187 27.6987 69.7504C27.6987 69.5473 27.7339 69.3598 27.8042 69.1879C27.8745 69.0161 27.9787 68.8676 28.1167 68.7426C28.2547 68.615 28.4279 68.5161 28.6362 68.4457C28.8472 68.3754 29.0907 68.3403 29.3667 68.3403H29.9527ZM32.7803 67.3403V70.9028H32.0889V66.6762H32.7569L32.7803 67.3403ZM33.8311 66.6528L33.835 67.3246C33.7777 67.3116 33.7256 67.3038 33.6787 67.3012C33.6345 67.296 33.5824 67.2934 33.5225 67.2934C33.3923 67.2934 33.2777 67.3194 33.1787 67.3715C33.0824 67.4236 32.9991 67.4965 32.9287 67.5903C32.8584 67.684 32.8024 67.796 32.7608 67.9262C32.7191 68.0538 32.6905 68.1944 32.6748 68.3481L32.4952 68.4653C32.4952 68.2101 32.5147 67.9705 32.5537 67.7465C32.5954 67.5226 32.6592 67.3246 32.7452 67.1528C32.8311 66.9783 32.9405 66.8429 33.0733 66.7465C33.2087 66.6476 33.3702 66.5981 33.5577 66.5981C33.5993 66.5981 33.6501 66.6046 33.71 66.6176C33.7725 66.628 33.8129 66.6398 33.8311 66.6528ZM35.6978 67.5161V70.9028H35.0103V66.6762H35.6588L35.6978 67.5161ZM35.5572 68.6293L35.2369 68.6176C35.2343 68.3286 35.2629 68.0616 35.3228 67.8168C35.3827 67.5694 35.4726 67.3546 35.5923 67.1723C35.7147 66.99 35.8671 66.8494 36.0494 66.7504C36.2343 66.6489 36.4491 66.5981 36.6939 66.5981C36.8554 66.5981 37.0051 66.6267 37.1431 66.684C37.2838 66.7387 37.4061 66.826 37.5103 66.9457C37.6145 67.0655 37.6952 67.2192 37.7525 67.4067C37.8124 67.5942 37.8423 67.8207 37.8423 68.0864V70.9028H37.1509V68.1215C37.1509 67.9002 37.121 67.7231 37.0611 67.5903C37.0038 67.4575 36.9218 67.3611 36.815 67.3012C36.7082 67.2387 36.5806 67.2075 36.4322 67.2075C36.2629 67.2075 36.121 67.2452 36.0064 67.3207C35.8944 67.3963 35.8046 67.5004 35.7369 67.6332C35.6718 67.7661 35.6249 67.9184 35.5963 68.0903C35.5702 68.2595 35.5572 68.4392 35.5572 68.6293ZM37.8345 68.2309L37.3736 68.3793C37.371 68.1476 37.3996 67.9249 37.4595 67.7114C37.5194 67.4978 37.608 67.3077 37.7252 67.1411C37.845 66.9744 37.9934 66.8429 38.1705 66.7465C38.3476 66.6476 38.5533 66.5981 38.7877 66.5981C38.9804 66.5981 39.1509 66.628 39.2994 66.6879C39.4478 66.7478 39.5728 66.8403 39.6744 66.9653C39.7785 67.0877 39.8567 67.2452 39.9088 67.4379C39.9608 67.6306 39.9869 67.8598 39.9869 68.1254V70.9028H39.2955V68.1176C39.2955 67.8806 39.2655 67.697 39.2056 67.5668C39.1483 67.434 39.0663 67.3416 38.9595 67.2895C38.8528 67.2348 38.7252 67.2075 38.5767 67.2075C38.4569 67.2075 38.3502 67.2348 38.2564 67.2895C38.1653 67.3442 38.0884 67.4197 38.0259 67.5161C37.9634 67.6098 37.9153 67.7179 37.8814 67.8403C37.8502 67.9627 37.8345 68.0929 37.8345 68.2309ZM43.6466 69.9262V66.6762H44.338V70.9028H43.6817L43.6466 69.9262ZM43.7755 69.0356L44.0489 69.0278C44.0489 69.309 44.0242 69.5694 43.9747 69.809C43.9278 70.046 43.8497 70.2517 43.7403 70.4262C43.6335 70.6007 43.4916 70.7374 43.3145 70.8364C43.1374 70.9327 42.92 70.9809 42.6622 70.9809C42.4877 70.9809 42.3289 70.951 42.1856 70.8911C42.045 70.8312 41.9226 70.7387 41.8184 70.6137C41.7169 70.4887 41.6374 70.326 41.5802 70.1254C41.5255 69.9249 41.4981 69.684 41.4981 69.4028V66.6762H42.1856V69.4106C42.1856 69.6007 42.2026 69.7582 42.2364 69.8832C42.2703 70.0056 42.3158 70.1033 42.3731 70.1762C42.4304 70.2465 42.4942 70.296 42.5645 70.3246C42.6348 70.3533 42.7065 70.3676 42.7794 70.3676C43.0242 70.3676 43.2195 70.309 43.3653 70.1918C43.5111 70.072 43.6153 69.9119 43.6778 69.7114C43.7429 69.5082 43.7755 69.283 43.7755 69.0356Z" fill="black"/>
<rect x="24.1665" y="30.0609" width="1.66666" height="4.67551" fill="white"/>
<rect x="24.1665" y="35.9053" width="1.66666" height="2.33775" fill="white"/>
<rect x="3.5" y="0.736111" width="47" height="50.1944" rx="10.5" stroke="#C4C4C4" stroke-linejoin="round"/>
<path d="M14.1665 13.5277C14.1665 12.9754 14.6142 12.5277 15.1665 12.5277H38.9998C39.5521 12.5277 39.9998 12.9754 39.9998 13.5277V37.243C39.9998 37.7953 39.5521 38.243 38.9998 38.243H15.1665C14.6142 38.243 14.1665 37.7953 14.1665 37.243V13.5277Z" fill="#ED4D2D"/>
<path d="M14.1668 32.3986C14.714 32.3986 15.2558 32.2172 15.7613 31.8648C16.2669 31.5123 16.7262 30.9957 17.1131 30.3445C17.5 29.6932 17.8069 28.9201 18.0163 28.0692C18.2257 27.2183 18.3335 26.3064 18.3335 25.3854C18.3335 24.4644 18.2257 23.5524 18.0163 22.7015C17.8069 21.8506 17.5 21.0775 17.1131 20.4262C16.7262 19.775 16.2669 19.2584 15.7613 18.906C15.2558 18.5535 14.714 18.3721 14.1668 18.3721L14.1668 25.3854L14.1668 32.3986Z" fill="white"/>
<rect x="24.1665" y="12.5277" width="1.66666" height="4.67551" fill="white"/>
<rect x="24.1665" y="18.3721" width="1.66666" height="4.6755" fill="white"/>
<rect x="24.1665" y="24.2165" width="1.66666" height="4.67551" fill="white"/>
<path d="M44.5 25.8333C44.5 32.6125 41.5097 36.1576 39.4952 38.4899C39.314 38.29 39.121 38.0821 38.9195 37.865C36.7178 35.493 33.5 32.0264 33.5 25.8333C33.5 22.182 34.1629 18.9004 35.2138 16.5504C35.7395 15.3748 36.3526 14.4543 37.0081 13.8343C37.661 13.2168 38.3332 12.9167 39 12.9167C39.6668 12.9167 40.339 13.2168 40.9919 13.8343C41.6474 14.4543 42.2605 15.3748 42.7862 16.5504C43.8371 18.9004 44.5 22.182 44.5 25.8333Z" fill="#ED4D2D" stroke="white"/>
<path d="M41.5 19.125C41.5 20.6687 40.3807 21.9201 39 21.9201C37.6193 21.9201 36.5 20.6687 36.5 19.125C36.5 17.5813 37.6193 16.3299 39 16.3299C40.3807 16.3299 41.5 17.5813 41.5 19.125Z" fill="white"/>
</svg>
