<svg width="52" height="70" viewBox="0 0 52 70" fill="none" xmlns="http://www.w3.org/2000/svg">
<rect x="2.5" y="0.590279" width="47" height="50.1945" rx="10.5" stroke="#C4C4C4" stroke-linejoin="round"/>
<rect x="12" y="7.79861" width="20" height="22.3611" fill="#ED4D2D"/>
<path d="M32 15.625L40 13.3889V25.6875L32 23.4514V15.625Z" fill="#ED4D2D"/>
<rect x="12" y="31.2778" width="29" height="11.1806" fill="#ED4D2D"/>
<path d="M16.6582 39.4033V40.2778H13.4458V39.4033H16.6582ZM13.7534 33.8793V40.2778H12.6504V33.8793H13.7534ZM19.2285 33.8793V40.2778H18.1254V33.8793H19.2285ZM23.3324 39.1088L25.0155 33.8793H26.2328L23.9389 40.2778H23.1171L23.3324 39.1088ZM21.7768 33.8793L23.4467 39.1088L23.6752 40.2778H22.849L20.5639 33.8793H21.7768ZM31.6771 39.4033V40.2778H28.2802V39.4033H31.6771ZM28.5922 33.8793V40.2778H27.4891V33.8793H28.5922ZM31.2333 36.5512V37.4125H28.2802V36.5512H31.2333ZM31.6552 33.8793V34.7582H28.2802V33.8793H31.6552Z" fill="white"/>
<path d="M39.9998 36.8681L34.0191 41.3403L34.0191 32.3958L39.9998 36.8681Z" fill="white"/>
<path d="M8.66641 61.8542C8.66641 61.7214 8.65078 61.6042 8.61953 61.5027C8.58828 61.3985 8.53359 61.3047 8.45547 61.2214C8.37734 61.1381 8.26797 61.0586 8.12734 60.9831C7.98672 60.9076 7.80833 60.8308 7.59219 60.7527C7.35781 60.6693 7.14557 60.5769 6.95547 60.4753C6.76536 60.3711 6.6026 60.2527 6.46719 60.1198C6.33438 59.987 6.23151 59.8347 6.15859 59.6628C6.08568 59.4909 6.04922 59.2943 6.04922 59.073C6.04922 58.8516 6.08698 58.6472 6.1625 58.4597C6.24063 58.2722 6.35 58.1094 6.49063 57.9714C6.63385 57.8308 6.80573 57.7214 7.00625 57.6433C7.20677 57.5652 7.43073 57.5261 7.67813 57.5261C8.04792 57.5261 8.35911 57.6081 8.61172 57.7722C8.86693 57.9336 9.05964 58.1459 9.18984 58.4089C9.32005 58.6693 9.38516 58.948 9.38516 59.2448H8.66641C8.66641 59.0313 8.63125 58.8425 8.56094 58.6784C8.49323 58.5118 8.38646 58.3816 8.24063 58.2878C8.0974 58.1915 7.9099 58.1433 7.67813 58.1433C7.46979 58.1433 7.29792 58.1836 7.1625 58.2644C7.02969 58.3451 6.93073 58.4545 6.86563 58.5925C6.80313 58.7305 6.77188 58.8881 6.77188 59.0652C6.77188 59.1849 6.79271 59.2943 6.83438 59.3933C6.87604 59.4896 6.93984 59.5795 7.02578 59.6628C7.11432 59.7461 7.2237 59.823 7.35391 59.8933C7.48672 59.9636 7.64297 60.0313 7.82266 60.0964C8.1013 60.1876 8.33958 60.2891 8.5375 60.4011C8.73542 60.5131 8.89688 60.6394 9.02188 60.78C9.14688 60.918 9.23802 61.0756 9.29531 61.2527C9.35521 61.4271 9.38516 61.6251 9.38516 61.8464C9.38516 62.0782 9.34609 62.2878 9.26797 62.4753C9.19245 62.6628 9.08177 62.823 8.93594 62.9558C8.7901 63.0886 8.61432 63.1915 8.40859 63.2644C8.20286 63.3347 7.97109 63.3698 7.71328 63.3698C7.48932 63.3698 7.26927 63.3334 7.05313 63.2605C6.83958 63.1876 6.64557 63.0782 6.47109 62.9323C6.29661 62.7865 6.15729 62.6068 6.05313 62.3933C5.94896 62.1771 5.89688 61.9271 5.89688 61.6433H6.61563C6.61563 61.8386 6.64427 62.0066 6.70156 62.1472C6.75885 62.2852 6.83828 62.3998 6.93984 62.4909C7.04141 62.5821 7.15729 62.6498 7.2875 62.6941C7.42031 62.7357 7.56224 62.7566 7.71328 62.7566C7.92161 62.7566 8.09609 62.7201 8.23672 62.6472C8.37995 62.5743 8.48672 62.4701 8.55703 62.3347C8.62995 62.1993 8.66641 62.0391 8.66641 61.8542ZM11.4042 57.2917V63.2917H10.7128V57.2917H11.4042ZM11.2362 61.0183L10.955 61.0066C10.9524 60.7175 10.9849 60.4506 11.0527 60.2058C11.123 59.9584 11.2219 59.7435 11.3495 59.5612C11.4797 59.379 11.6347 59.2383 11.8144 59.1394C11.9941 59.0378 12.1933 58.987 12.412 58.987C12.5839 58.987 12.7402 59.0157 12.8808 59.073C13.0214 59.1277 13.1412 59.2162 13.2402 59.3386C13.3391 59.461 13.4146 59.6198 13.4667 59.8152C13.5214 60.0079 13.5487 60.2435 13.5487 60.5222V63.2917H12.8573V60.5144C12.8573 60.293 12.8326 60.1159 12.7831 59.9831C12.7362 59.8477 12.6633 59.7501 12.5644 59.6902C12.468 59.6277 12.3456 59.5964 12.1972 59.5964C12.0618 59.5964 11.9355 59.6342 11.8183 59.7097C11.7011 59.7852 11.5982 59.8894 11.5097 60.0222C11.4237 60.155 11.356 60.3073 11.3066 60.4792C11.2597 60.6485 11.2362 60.8282 11.2362 61.0183ZM14.9155 61.3816V60.9792C14.9155 60.6511 14.9571 60.3633 15.0405 60.1159C15.1238 59.8659 15.2397 59.6576 15.3881 59.4909C15.5366 59.3243 15.7097 59.1993 15.9077 59.1159C16.1056 59.03 16.3178 58.987 16.5444 58.987C16.7761 58.987 16.991 59.03 17.1889 59.1159C17.3868 59.1993 17.56 59.3243 17.7084 59.4909C17.8595 59.6576 17.9767 59.8659 18.06 60.1159C18.1433 60.3633 18.185 60.6511 18.185 60.9792V61.3816C18.185 61.7097 18.1433 61.9987 18.06 62.2487C17.9767 62.4961 17.8608 62.7032 17.7123 62.8698C17.5639 63.0365 17.3907 63.1615 17.1928 63.2448C16.9949 63.3282 16.7814 63.3698 16.5522 63.3698C16.323 63.3698 16.1095 63.3282 15.9116 63.2448C15.7136 63.1615 15.5392 63.0365 15.3881 62.8698C15.2397 62.7032 15.1238 62.4961 15.0405 62.2487C14.9571 61.9987 14.9155 61.7097 14.9155 61.3816ZM15.6069 60.9792V61.3816C15.6069 61.6133 15.6303 61.8165 15.6772 61.9909C15.7241 62.1654 15.7905 62.3112 15.8764 62.4284C15.9623 62.5456 16.0626 62.6342 16.1772 62.6941C16.2918 62.7514 16.4168 62.78 16.5522 62.78C16.7084 62.78 16.8452 62.7514 16.9623 62.6941C17.0821 62.6342 17.1811 62.5456 17.2592 62.4284C17.3373 62.3112 17.3959 62.1654 17.435 61.9909C17.4741 61.8165 17.4936 61.6133 17.4936 61.3816V60.9792C17.4936 60.7474 17.4702 60.5456 17.4233 60.3737C17.3764 60.1993 17.31 60.0534 17.2241 59.9362C17.1381 59.8165 17.0366 59.7279 16.9194 59.6706C16.8048 59.6107 16.6798 59.5808 16.5444 59.5808C16.4116 59.5808 16.2879 59.6107 16.1733 59.6706C16.0587 59.7279 15.9584 59.8165 15.8725 59.9362C15.7892 60.0534 15.7241 60.1993 15.6772 60.3737C15.6303 60.5456 15.6069 60.7474 15.6069 60.9792ZM20.247 59.8777V64.9167H19.5556V59.0652H20.1845L20.247 59.8777ZM22.6103 60.987V61.3816C22.6103 61.7149 22.5791 62.0066 22.5166 62.2566C22.4567 62.504 22.3668 62.711 22.247 62.8777C22.1298 63.0417 21.9853 63.1654 21.8134 63.2487C21.6416 63.3295 21.4449 63.3698 21.2236 63.3698C21.0022 63.3698 20.8095 63.3282 20.6455 63.2448C20.484 63.1589 20.3473 63.0352 20.2353 62.8737C20.1259 62.7123 20.0387 62.5183 19.9736 62.2917C19.9111 62.0626 19.8681 61.806 19.8447 61.5222V60.9206C19.8681 60.6211 19.9111 60.3529 19.9736 60.1159C20.0361 59.8764 20.122 59.6732 20.2314 59.5066C20.3434 59.3373 20.4801 59.2084 20.6416 59.1198C20.8056 59.0313 20.997 58.987 21.2158 58.987C21.4423 58.987 21.6416 59.0261 21.8134 59.1042C21.9879 59.1823 22.1338 59.3034 22.2509 59.4675C22.3707 59.629 22.4606 59.836 22.5205 60.0886C22.5804 60.3386 22.6103 60.6381 22.6103 60.987ZM21.9189 61.3816V60.987C21.9189 60.7527 21.9007 60.5482 21.8642 60.3737C21.8304 60.1993 21.7757 60.0547 21.7002 59.9402C21.6246 59.8256 21.5296 59.7396 21.415 59.6823C21.3004 59.6251 21.1624 59.5964 21.0009 59.5964C20.8629 59.5964 20.7405 59.6251 20.6338 59.6823C20.5296 59.7396 20.4397 59.8178 20.3642 59.9167C20.2887 60.0131 20.2262 60.1237 20.1767 60.2487C20.1272 60.3711 20.0908 60.4987 20.0673 60.6316V61.8152C20.1116 61.9818 20.1702 62.1394 20.2431 62.2878C20.316 62.4336 20.4137 62.5521 20.5361 62.6433C20.6611 62.7344 20.8186 62.78 21.0088 62.78C21.1676 62.78 21.3043 62.7514 21.4189 62.6941C21.5335 62.6368 21.6272 62.5508 21.7002 62.4362C21.7757 62.3191 21.8304 62.1732 21.8642 61.9987C21.9007 61.8217 21.9189 61.6159 21.9189 61.3816ZM25.4927 63.3698C25.2401 63.3698 25.0122 63.3321 24.8091 63.2566C24.6059 63.181 24.4328 63.0665 24.2895 62.9128C24.1463 62.7566 24.0369 62.5599 23.9614 62.323C23.8859 62.086 23.8481 61.806 23.8481 61.4831V61.0066C23.8481 60.6342 23.8911 60.3191 23.977 60.0612C24.0656 59.8034 24.1841 59.5964 24.3325 59.4402C24.4809 59.2813 24.6489 59.1667 24.8364 59.0964C25.0239 59.0235 25.2166 58.987 25.4145 58.987C25.6802 58.987 25.9067 59.03 26.0942 59.1159C26.2817 59.2019 26.4341 59.3295 26.5513 59.4987C26.6684 59.668 26.7544 59.8764 26.8091 60.1237C26.8664 60.3711 26.895 60.6563 26.895 60.9792V61.3816H24.2544V60.7917H26.2036V60.6941C26.1932 60.4753 26.1632 60.2826 26.1138 60.1159C26.0669 59.9493 25.9888 59.8191 25.8794 59.7253C25.77 59.629 25.6151 59.5808 25.4145 59.5808C25.2869 59.5808 25.1684 59.6029 25.0591 59.6472C24.9523 59.6889 24.8598 59.7631 24.7817 59.8698C24.7062 59.974 24.6463 60.1185 24.602 60.3034C24.5604 60.4883 24.5395 60.7227 24.5395 61.0066V61.4831C24.5395 61.7097 24.5604 61.905 24.602 62.0691C24.6463 62.2305 24.7101 62.3646 24.7934 62.4714C24.8794 62.5756 24.9835 62.6537 25.1059 62.7058C25.2309 62.7553 25.3729 62.78 25.5317 62.78C25.7635 62.78 25.9549 62.7357 26.1059 62.6472C26.257 62.556 26.3885 62.4402 26.5005 62.2995L26.8638 62.7331C26.7882 62.8399 26.6893 62.9428 26.5669 63.0417C26.4471 63.1381 26.2986 63.2175 26.1216 63.28C25.9471 63.3399 25.7374 63.3698 25.4927 63.3698ZM29.7227 63.3698C29.4701 63.3698 29.2422 63.3321 29.0391 63.2566C28.8359 63.181 28.6628 63.0665 28.5195 62.9128C28.3763 62.7566 28.2669 62.5599 28.1914 62.323C28.1159 62.086 28.0781 61.806 28.0781 61.4831V61.0066C28.0781 60.6342 28.1211 60.3191 28.207 60.0612C28.2956 59.8034 28.4141 59.5964 28.5625 59.4402C28.7109 59.2813 28.8789 59.1667 29.0664 59.0964C29.2539 59.0235 29.4466 58.987 29.6445 58.987C29.9102 58.987 30.1367 59.03 30.3242 59.1159C30.5117 59.2019 30.6641 59.3295 30.7812 59.4987C30.8984 59.668 30.9844 59.8764 31.0391 60.1237C31.0964 60.3711 31.125 60.6563 31.125 60.9792V61.3816H28.4844V60.7917H30.4336V60.6941C30.4232 60.4753 30.3932 60.2826 30.3438 60.1159C30.2969 59.9493 30.2188 59.8191 30.1094 59.7253C30 59.629 29.8451 59.5808 29.6445 59.5808C29.5169 59.5808 29.3984 59.6029 29.2891 59.6472C29.1823 59.6889 29.0898 59.7631 29.0117 59.8698C28.9362 59.974 28.8763 60.1185 28.832 60.3034C28.7904 60.4883 28.7695 60.7227 28.7695 61.0066V61.4831C28.7695 61.7097 28.7904 61.905 28.832 62.0691C28.8763 62.2305 28.9401 62.3646 29.0234 62.4714C29.1094 62.5756 29.2135 62.6537 29.3359 62.7058C29.4609 62.7553 29.6029 62.78 29.7617 62.78C29.9935 62.78 30.1849 62.7357 30.3359 62.6472C30.487 62.556 30.6185 62.4402 30.7305 62.2995L31.0938 62.7331C31.0182 62.8399 30.9193 62.9428 30.7969 63.0417C30.6771 63.1381 30.5286 63.2175 30.3516 63.28C30.1771 63.3399 29.9674 63.3698 29.7227 63.3698ZM37.7998 62.6784V63.2917H35.4405V62.6784H37.7998ZM35.5694 57.6042V63.2917H34.8506V57.6042H35.5694ZM39.7838 59.0652V63.2917H39.0963V59.0652H39.7838ZM39.0572 57.9441C39.0572 57.8269 39.0897 57.7279 39.1548 57.6472C39.22 57.5665 39.3176 57.5261 39.4478 57.5261C39.578 57.5261 39.6757 57.5665 39.7408 57.6472C39.8085 57.7279 39.8423 57.8269 39.8423 57.9441C39.8423 58.056 39.8085 58.1524 39.7408 58.2331C39.6757 58.3112 39.578 58.3503 39.4478 58.3503C39.3176 58.3503 39.22 58.3112 39.1548 58.2331C39.0897 58.1524 39.0572 58.056 39.0572 57.9441ZM42.4512 62.6394L43.3575 59.0652H44.0606L42.8067 63.2917H42.3497L42.4512 62.6394ZM41.7208 59.0652L42.6661 62.6589L42.7403 63.2917H42.2872L41.0177 59.0652H41.7208ZM46.7164 63.3698C46.4638 63.3698 46.2359 63.3321 46.0328 63.2566C45.8297 63.181 45.6565 63.0665 45.5133 62.9128C45.3701 62.7566 45.2607 62.5599 45.1852 62.323C45.1096 62.086 45.0719 61.806 45.0719 61.4831V61.0066C45.0719 60.6342 45.1148 60.3191 45.2008 60.0612C45.2893 59.8034 45.4078 59.5964 45.5563 59.4402C45.7047 59.2813 45.8727 59.1667 46.0602 59.0964C46.2477 59.0235 46.4404 58.987 46.6383 58.987C46.9039 58.987 47.1305 59.03 47.318 59.1159C47.5055 59.2019 47.6578 59.3295 47.775 59.4987C47.8922 59.668 47.9781 59.8764 48.0328 60.1237C48.0901 60.3711 48.1188 60.6563 48.1188 60.9792V61.3816H45.4781V60.7917H47.4273V60.6941C47.4169 60.4753 47.387 60.2826 47.3375 60.1159C47.2906 59.9493 47.2125 59.8191 47.1031 59.7253C46.9938 59.629 46.8388 59.5808 46.6383 59.5808C46.5107 59.5808 46.3922 59.6029 46.2828 59.6472C46.176 59.6889 46.0836 59.7631 46.0055 59.8698C45.9299 59.974 45.8701 60.1185 45.8258 60.3034C45.7841 60.4883 45.7633 60.7227 45.7633 61.0066V61.4831C45.7633 61.7097 45.7841 61.905 45.8258 62.0691C45.8701 62.2305 45.9339 62.3646 46.0172 62.4714C46.1031 62.5756 46.2073 62.6537 46.3297 62.7058C46.4547 62.7553 46.5966 62.78 46.7555 62.78C46.9872 62.78 47.1786 62.7357 47.3297 62.6472C47.4807 62.556 47.6122 62.4402 47.7242 62.2995L48.0875 62.7331C48.012 62.8399 47.913 62.9428 47.7906 63.0417C47.6708 63.1381 47.5224 63.2175 47.3453 63.28C47.1708 63.3399 46.9612 63.3698 46.7164 63.3698Z" fill="black"/>
</svg>
