<svg width="54" height="73" viewBox="0 0 54 73" fill="none" xmlns="http://www.w3.org/2000/svg">
<path d="M8.26797 64.2362C8.26797 64.1033 8.25234 63.9862 8.22109 63.8846C8.18984 63.7804 8.13516 63.6867 8.05703 63.6033C7.97891 63.52 7.86953 63.4406 7.72891 63.3651C7.58828 63.2895 7.4099 63.2127 7.19375 63.1346C6.95938 63.0513 6.74714 62.9588 6.55703 62.8573C6.36693 62.7531 6.20417 62.6346 6.06875 62.5018C5.93594 62.369 5.83307 62.2166 5.76016 62.0448C5.68724 61.8729 5.65078 61.6763 5.65078 61.4549C5.65078 61.2336 5.68854 61.0291 5.76406 60.8416C5.84219 60.6541 5.95156 60.4914 6.09219 60.3533C6.23542 60.2127 6.40729 60.1033 6.60781 60.0252C6.80833 59.9471 7.03229 59.908 7.27969 59.908C7.64948 59.908 7.96068 59.9901 8.21328 60.1541C8.46849 60.3156 8.6612 60.5278 8.79141 60.7908C8.92161 61.0513 8.98672 61.3299 8.98672 61.6268H8.26797C8.26797 61.4132 8.23281 61.2244 8.1625 61.0604C8.09479 60.8937 7.98802 60.7635 7.84219 60.6698C7.69896 60.5734 7.51146 60.5252 7.27969 60.5252C7.07135 60.5252 6.89948 60.5656 6.76406 60.6463C6.63125 60.727 6.53229 60.8364 6.46719 60.9744C6.40469 61.1125 6.37344 61.27 6.37344 61.4471C6.37344 61.5669 6.39427 61.6763 6.43594 61.7752C6.4776 61.8716 6.54141 61.9614 6.62734 62.0448C6.71589 62.1281 6.82526 62.2049 6.95547 62.2752C7.08828 62.3455 7.24453 62.4132 7.42422 62.4783C7.70286 62.5695 7.94115 62.6711 8.13906 62.783C8.33698 62.895 8.49844 63.0213 8.62344 63.1619C8.74844 63.3 8.83958 63.4575 8.89688 63.6346C8.95677 63.8091 8.98672 64.007 8.98672 64.2283C8.98672 64.4601 8.94766 64.6698 8.86953 64.8573C8.79401 65.0448 8.68333 65.2049 8.5375 65.3377C8.39167 65.4705 8.21589 65.5734 8.01016 65.6463C7.80443 65.7166 7.57266 65.7518 7.31484 65.7518C7.09089 65.7518 6.87083 65.7153 6.65469 65.6424C6.44115 65.5695 6.24714 65.4601 6.07266 65.3143C5.89818 65.1685 5.75885 64.9888 5.65469 64.7752C5.55052 64.5591 5.49844 64.3091 5.49844 64.0252H6.21719C6.21719 64.2205 6.24583 64.3885 6.30313 64.5291C6.36042 64.6671 6.43984 64.7817 6.54141 64.8729C6.64297 64.964 6.75885 65.0317 6.88906 65.076C7.02188 65.1177 7.1638 65.1385 7.31484 65.1385C7.52318 65.1385 7.69766 65.102 7.83828 65.0291C7.98151 64.9562 8.08828 64.852 8.15859 64.7166C8.23151 64.5812 8.26797 64.4211 8.26797 64.2362ZM11.0058 59.6737V65.6737H10.3144V59.6737H11.0058ZM10.8378 63.4002L10.5566 63.3885C10.554 63.0994 10.5865 62.8325 10.6542 62.5877C10.7245 62.3403 10.8235 62.1255 10.9511 61.9432C11.0813 61.7609 11.2362 61.6203 11.4159 61.5213C11.5956 61.4198 11.7948 61.369 12.0136 61.369C12.1855 61.369 12.3417 61.3976 12.4823 61.4549C12.623 61.5096 12.7428 61.5981 12.8417 61.7205C12.9407 61.8429 13.0162 62.0018 13.0683 62.1971C13.123 62.3898 13.1503 62.6255 13.1503 62.9041V65.6737H12.4589V62.8963C12.4589 62.675 12.4342 62.4979 12.3847 62.3651C12.3378 62.2296 12.2649 62.132 12.1659 62.0721C12.0696 62.0096 11.9472 61.9783 11.7987 61.9783C11.6633 61.9783 11.537 62.0161 11.4198 62.0916C11.3027 62.1671 11.1998 62.2713 11.1112 62.4041C11.0253 62.5369 10.9576 62.6893 10.9081 62.8612C10.8612 63.0304 10.8378 63.2101 10.8378 63.4002ZM14.517 63.7635V63.3612C14.517 63.033 14.5587 62.7453 14.642 62.4979C14.7254 62.2479 14.8413 62.0395 14.9897 61.8729C15.1381 61.7062 15.3113 61.5812 15.5092 61.4979C15.7071 61.4119 15.9194 61.369 16.1459 61.369C16.3777 61.369 16.5926 61.4119 16.7905 61.4979C16.9884 61.5812 17.1616 61.7062 17.31 61.8729C17.461 62.0395 17.5782 62.2479 17.6616 62.4979C17.7449 62.7453 17.7866 63.033 17.7866 63.3612V63.7635C17.7866 64.0916 17.7449 64.3807 17.6616 64.6307C17.5782 64.8781 17.4623 65.0851 17.3139 65.2518C17.1655 65.4185 16.9923 65.5435 16.7944 65.6268C16.5965 65.7101 16.3829 65.7518 16.1538 65.7518C15.9246 65.7518 15.711 65.7101 15.5131 65.6268C15.3152 65.5435 15.1407 65.4185 14.9897 65.2518C14.8413 65.0851 14.7254 64.8781 14.642 64.6307C14.5587 64.3807 14.517 64.0916 14.517 63.7635ZM15.2084 63.3612V63.7635C15.2084 63.9953 15.2319 64.1984 15.2788 64.3729C15.3256 64.5474 15.392 64.6932 15.478 64.8104C15.5639 64.9276 15.6642 65.0161 15.7788 65.076C15.8933 65.1333 16.0183 65.1619 16.1538 65.1619C16.31 65.1619 16.4467 65.1333 16.5639 65.076C16.6837 65.0161 16.7827 64.9276 16.8608 64.8104C16.9389 64.6932 16.9975 64.5474 17.0366 64.3729C17.0756 64.1984 17.0952 63.9953 17.0952 63.7635V63.3612C17.0952 63.1294 17.0717 62.9276 17.0248 62.7557C16.978 62.5812 16.9116 62.4354 16.8256 62.3182C16.7397 62.1984 16.6381 62.1099 16.5209 62.0526C16.4064 61.9927 16.2814 61.9627 16.1459 61.9627C16.0131 61.9627 15.8894 61.9927 15.7748 62.0526C15.6603 62.1099 15.56 62.1984 15.4741 62.3182C15.3907 62.4354 15.3256 62.5812 15.2788 62.7557C15.2319 62.9276 15.2084 63.1294 15.2084 63.3612ZM19.8486 62.2596V67.2987H19.1572V61.4471H19.7861L19.8486 62.2596ZM22.2119 63.369V63.7635C22.2119 64.0968 22.1806 64.3885 22.1181 64.6385C22.0582 64.8859 21.9684 65.0929 21.8486 65.2596C21.7314 65.4237 21.5869 65.5474 21.415 65.6307C21.2431 65.7114 21.0465 65.7518 20.8252 65.7518C20.6038 65.7518 20.4111 65.7101 20.247 65.6268C20.0856 65.5408 19.9489 65.4171 19.8369 65.2557C19.7275 65.0942 19.6403 64.9002 19.5752 64.6737C19.5127 64.4445 19.4697 64.188 19.4463 63.9041V63.3026C19.4697 63.0031 19.5127 62.7349 19.5752 62.4979C19.6377 62.2583 19.7236 62.0552 19.833 61.8885C19.9449 61.7192 20.0817 61.5903 20.2431 61.5018C20.4072 61.4132 20.5986 61.369 20.8173 61.369C21.0439 61.369 21.2431 61.408 21.415 61.4862C21.5895 61.5643 21.7353 61.6854 21.8525 61.8494C21.9723 62.0109 22.0621 62.2179 22.122 62.4705C22.1819 62.7205 22.2119 63.02 22.2119 63.369ZM21.5205 63.7635V63.369C21.5205 63.1346 21.5022 62.9302 21.4658 62.7557C21.4319 62.5812 21.3772 62.4367 21.3017 62.3221C21.2262 62.2075 21.1311 62.1216 21.0166 62.0643C20.902 62.007 20.764 61.9783 20.6025 61.9783C20.4645 61.9783 20.3421 62.007 20.2353 62.0643C20.1311 62.1216 20.0413 62.1997 19.9658 62.2987C19.8903 62.395 19.8278 62.5057 19.7783 62.6307C19.7288 62.7531 19.6923 62.8807 19.6689 63.0135V64.1971C19.7132 64.3638 19.7718 64.5213 19.8447 64.6698C19.9176 64.8156 20.0153 64.9341 20.1377 65.0252C20.2627 65.1164 20.4202 65.1619 20.6103 65.1619C20.7692 65.1619 20.9059 65.1333 21.0205 65.076C21.1351 65.0187 21.2288 64.9328 21.3017 64.8182C21.3772 64.701 21.4319 64.5552 21.4658 64.3807C21.5022 64.2036 21.5205 63.9979 21.5205 63.7635ZM25.0942 65.7518C24.8416 65.7518 24.6138 65.714 24.4106 65.6385C24.2075 65.563 24.0343 65.4484 23.8911 65.2948C23.7479 65.1385 23.6385 64.9419 23.563 64.7049C23.4874 64.4679 23.4497 64.188 23.4497 63.8651V63.3885C23.4497 63.0161 23.4927 62.701 23.5786 62.4432C23.6671 62.1854 23.7856 61.9783 23.9341 61.8221C24.0825 61.6632 24.2505 61.5487 24.438 61.4783C24.6255 61.4054 24.8182 61.369 25.0161 61.369C25.2817 61.369 25.5083 61.4119 25.6958 61.4979C25.8833 61.5838 26.0356 61.7114 26.1528 61.8807C26.27 62.05 26.3559 62.2583 26.4106 62.5057C26.4679 62.7531 26.4966 63.0382 26.4966 63.3612V63.7635H23.8559V63.1737H25.8052V63.076C25.7947 62.8573 25.7648 62.6645 25.7153 62.4979C25.6684 62.3312 25.5903 62.201 25.4809 62.1073C25.3716 62.0109 25.2166 61.9627 25.0161 61.9627C24.8885 61.9627 24.77 61.9849 24.6606 62.0291C24.5539 62.0708 24.4614 62.145 24.3833 62.2518C24.3078 62.356 24.2479 62.5005 24.2036 62.6854C24.1619 62.8703 24.1411 63.1046 24.1411 63.3885V63.8651C24.1411 64.0916 24.1619 64.2869 24.2036 64.451C24.2479 64.6125 24.3117 64.7466 24.395 64.8533C24.4809 64.9575 24.5851 65.0356 24.7075 65.0877C24.8325 65.1372 24.9744 65.1619 25.1333 65.1619C25.3651 65.1619 25.5565 65.1177 25.7075 65.0291C25.8585 64.938 25.9901 64.8221 26.102 64.6815L26.4653 65.1151C26.3898 65.2218 26.2908 65.3247 26.1684 65.4237C26.0486 65.52 25.9002 65.5994 25.7231 65.6619C25.5486 65.7218 25.339 65.7518 25.0942 65.7518ZM29.3242 65.7518C29.0716 65.7518 28.8438 65.714 28.6406 65.6385C28.4375 65.563 28.2643 65.4484 28.1211 65.2948C27.9779 65.1385 27.8685 64.9419 27.793 64.7049C27.7174 64.4679 27.6797 64.188 27.6797 63.8651V63.3885C27.6797 63.0161 27.7227 62.701 27.8086 62.4432C27.8971 62.1854 28.0156 61.9783 28.1641 61.8221C28.3125 61.6632 28.4805 61.5487 28.668 61.4783C28.8555 61.4054 29.0482 61.369 29.2461 61.369C29.5117 61.369 29.7383 61.4119 29.9258 61.4979C30.1133 61.5838 30.2656 61.7114 30.3828 61.8807C30.5 62.05 30.5859 62.2583 30.6406 62.5057C30.6979 62.7531 30.7266 63.0382 30.7266 63.3612V63.7635H28.0859V63.1737H30.0352V63.076C30.0247 62.8573 29.9948 62.6645 29.9453 62.4979C29.8984 62.3312 29.8203 62.201 29.7109 62.1073C29.6016 62.0109 29.4466 61.9627 29.2461 61.9627C29.1185 61.9627 29 61.9849 28.8906 62.0291C28.7839 62.0708 28.6914 62.145 28.6133 62.2518C28.5378 62.356 28.4779 62.5005 28.4336 62.6854C28.3919 62.8703 28.3711 63.1046 28.3711 63.3885V63.8651C28.3711 64.0916 28.3919 64.2869 28.4336 64.451C28.4779 64.6125 28.5417 64.7466 28.625 64.8533C28.7109 64.9575 28.8151 65.0356 28.9375 65.0877C29.0625 65.1372 29.2044 65.1619 29.3633 65.1619C29.5951 65.1619 29.7865 65.1177 29.9375 65.0291C30.0885 64.938 30.2201 64.8221 30.332 64.6815L30.6953 65.1151C30.6198 65.2218 30.5208 65.3247 30.3984 65.4237C30.2786 65.52 30.1302 65.5994 29.9531 65.6619C29.7786 65.7218 29.569 65.7518 29.3242 65.7518ZM34.6787 59.9862H35.3741L36.8623 64.6229L38.3467 59.9862H39.042L37.1319 65.6737H36.585L34.6787 59.9862ZM34.4522 59.9862H35.0616L35.167 63.4549V65.6737H34.4522V59.9862ZM38.6553 59.9862H39.2647V65.6737H38.5498V63.4549L38.6553 59.9862ZM42.9556 64.951V62.658C42.9556 62.4914 42.9296 62.3573 42.8775 62.2557C42.828 62.1541 42.7525 62.0799 42.6509 62.033C42.552 61.9862 42.427 61.9627 42.2759 61.9627C42.1301 61.9627 42.0038 61.9927 41.897 62.0526C41.7929 62.1125 41.7121 62.1919 41.6548 62.2908C41.6002 62.3898 41.5728 62.4992 41.5728 62.619H40.8814C40.8814 62.4679 40.914 62.3182 40.9791 62.1698C41.0468 62.0213 41.1431 61.8872 41.2681 61.7674C41.3931 61.645 41.5429 61.5487 41.7173 61.4783C41.8944 61.4054 42.0923 61.369 42.3111 61.369C42.5715 61.369 42.802 61.4119 43.0025 61.4979C43.203 61.5812 43.3606 61.7179 43.4752 61.908C43.5897 62.0981 43.647 62.3507 43.647 62.6658V64.7518C43.647 64.8924 43.6575 65.0421 43.6783 65.201C43.7017 65.3599 43.7343 65.4966 43.7759 65.6112V65.6737H43.0611C43.0272 65.5903 43.0012 65.4796 42.983 65.3416C42.9647 65.201 42.9556 65.0708 42.9556 64.951ZM43.065 63.1112L43.0728 63.619H42.5923C42.4283 63.619 42.2785 63.6372 42.1431 63.6737C42.0103 63.7101 41.8957 63.7635 41.7994 63.8338C41.703 63.9015 41.6288 63.9862 41.5767 64.0877C41.5272 64.1893 41.5025 64.3052 41.5025 64.4354C41.5025 64.6046 41.5259 64.7401 41.5728 64.8416C41.6197 64.9406 41.69 65.0122 41.7838 65.0565C41.8775 65.1007 41.996 65.1229 42.1392 65.1229C42.3137 65.1229 42.4673 65.0825 42.6002 65.0018C42.733 64.9211 42.8358 64.8234 42.9088 64.7088C42.9843 64.5942 43.0194 64.4875 43.0142 64.3885L43.1666 64.7127C43.1561 64.8143 43.1223 64.925 43.065 65.0448C43.0103 65.1619 42.9335 65.2752 42.8345 65.3846C42.7356 65.4914 42.6184 65.5799 42.483 65.6502C42.3502 65.7179 42.2004 65.7518 42.0338 65.7518C41.789 65.7518 41.5741 65.7049 41.3892 65.6112C41.2069 65.5174 41.065 65.3794 40.9634 65.1971C40.8619 65.0148 40.8111 64.7895 40.8111 64.5213C40.8111 64.3182 40.8463 64.1307 40.9166 63.9588C40.9869 63.7869 41.091 63.6385 41.2291 63.5135C41.3671 63.3859 41.5403 63.2869 41.7486 63.2166C41.9595 63.1463 42.203 63.1112 42.4791 63.1112H43.065ZM45.9434 59.6737V65.6737H45.2559V59.6737H45.9434ZM48.2594 59.6737V65.6737H47.5719V59.6737H48.2594Z" fill="black"/>
<rect x="3.5" y="0.736111" width="47" height="50.1944" rx="10.5" stroke="#C4C4C4" stroke-linejoin="round"/>
<path d="M16 14.4567H38L41 40.1719H13L16 14.4567Z" fill="#D00018"/>
<path d="M20.0005 17.8072C20.0006 19.2365 20.7383 20.6072 22.0511 21.6177C23.3639 22.6282 25.1445 23.1958 27.001 23.1956C28.8575 23.1955 30.6379 22.6275 31.9506 21.6167C33.2633 20.6059 34.0007 19.2351 34.0005 17.8058L33.329 17.8059C33.3291 19.098 32.6624 20.3373 31.4757 21.2512C30.289 22.165 28.6793 22.6785 27.0009 22.6786C25.3225 22.6788 23.7128 22.1657 22.5259 21.2521C21.339 20.3385 20.6722 19.0993 20.6721 17.8071L20.0005 17.8072Z" fill="white"/>
</svg>
