<svg width="54" height="70" viewBox="0 0 54 70" fill="none" xmlns="http://www.w3.org/2000/svg">
<rect x="2.5" y="0.590279" width="47" height="50.1945" rx="10.5" stroke="#C4C4C4" stroke-linejoin="round"/>
<path d="M12 15.625H41V41.4583C41 42.0106 40.5523 42.4583 40 42.4583H13C12.4477 42.4583 12 42.0106 12 41.4583V15.625Z" fill="#ED4D2D"/>
<path d="M15 8.91666H38L41 15.625H12L15 8.91666Z" fill="#ED4D2D"/>
<ellipse cx="31" cy="26.8056" rx="3" ry="5.59028" fill="white"/>
<rect x="30" y="30.1597" width="2" height="12.2986" fill="white"/>
<path d="M20 21.2153H26V32.3958L24.3634 33.9207C23.5953 34.6363 22.4047 34.6363 21.6366 33.9207L20 32.3958V21.2153Z" fill="white"/>
<rect x="22" y="30.1597" width="2" height="12.2986" fill="white"/>
<path d="M21 21.2153H22.5V29.0417H21V21.2153Z" fill="#ED4D2D"/>
<path d="M23.5 21.2153H25V29.0417H23.5V21.2153Z" fill="#ED4D2D"/>
<rect x="20" y="12.2708" width="14" height="3.35416" rx="1" fill="white"/>
<path d="M8.32047 61.8542C8.32047 61.7214 8.30484 61.6042 8.27359 61.5027C8.24234 61.3985 8.18766 61.3047 8.10953 61.2214C8.03141 61.1381 7.92203 61.0586 7.78141 60.9831C7.64078 60.9076 7.4624 60.8308 7.24625 60.7527C7.01188 60.6693 6.79964 60.5769 6.60953 60.4753C6.41943 60.3711 6.25667 60.2527 6.12125 60.1198C5.98844 59.987 5.88557 59.8347 5.81266 59.6628C5.73974 59.4909 5.70328 59.2943 5.70328 59.073C5.70328 58.8516 5.74104 58.6472 5.81656 58.4597C5.89469 58.2722 6.00406 58.1094 6.14469 57.9714C6.28792 57.8308 6.45979 57.7214 6.66031 57.6433C6.86083 57.5652 7.08479 57.5261 7.33219 57.5261C7.70198 57.5261 8.01318 57.6081 8.26578 57.7722C8.52099 57.9336 8.7137 58.1459 8.84391 58.4089C8.97411 58.6693 9.03922 58.948 9.03922 59.2448H8.32047C8.32047 59.0313 8.28531 58.8425 8.215 58.6784C8.14729 58.5118 8.04052 58.3816 7.89469 58.2878C7.75146 58.1915 7.56396 58.1433 7.33219 58.1433C7.12385 58.1433 6.95198 58.1836 6.81656 58.2644C6.68375 58.3451 6.58479 58.4545 6.51969 58.5925C6.45719 58.7305 6.42594 58.8881 6.42594 59.0652C6.42594 59.1849 6.44677 59.2943 6.48844 59.3933C6.5301 59.4896 6.59391 59.5795 6.67984 59.6628C6.76839 59.7461 6.87776 59.823 7.00797 59.8933C7.14078 59.9636 7.29703 60.0313 7.47672 60.0964C7.75536 60.1876 7.99365 60.2891 8.19156 60.4011C8.38948 60.5131 8.55094 60.6394 8.67594 60.78C8.80094 60.918 8.89208 61.0756 8.94938 61.2527C9.00927 61.4271 9.03922 61.6251 9.03922 61.8464C9.03922 62.0782 9.00016 62.2878 8.92203 62.4753C8.84651 62.6628 8.73583 62.823 8.59 62.9558C8.44417 63.0886 8.26839 63.1915 8.06266 63.2644C7.85693 63.3347 7.62516 63.3698 7.36734 63.3698C7.14339 63.3698 6.92333 63.3334 6.70719 63.2605C6.49365 63.1876 6.29964 63.0782 6.12516 62.9323C5.95068 62.7865 5.81135 62.6068 5.70719 62.3933C5.60302 62.1771 5.55094 61.9271 5.55094 61.6433H6.26969C6.26969 61.8386 6.29833 62.0066 6.35563 62.1472C6.41292 62.2852 6.49234 62.3998 6.59391 62.4909C6.69547 62.5821 6.81135 62.6498 6.94156 62.6941C7.07438 62.7357 7.2163 62.7566 7.36734 62.7566C7.57568 62.7566 7.75016 62.7201 7.89078 62.6472C8.03401 62.5743 8.14078 62.4701 8.21109 62.3347C8.28401 62.1993 8.32047 62.0391 8.32047 61.8542ZM11.0583 57.2917V63.2917H10.3669V57.2917H11.0583ZM10.8903 61.0183L10.6091 61.0066C10.6065 60.7175 10.639 60.4506 10.7067 60.2058C10.777 59.9584 10.876 59.7435 11.0036 59.5612C11.1338 59.379 11.2887 59.2383 11.4684 59.1394C11.6481 59.0378 11.8473 58.987 12.0661 58.987C12.238 58.987 12.3942 59.0157 12.5348 59.073C12.6755 59.1277 12.7953 59.2162 12.8942 59.3386C12.9932 59.461 13.0687 59.6198 13.1208 59.8152C13.1755 60.0079 13.2028 60.2435 13.2028 60.5222V63.2917H12.5114V60.5144C12.5114 60.293 12.4867 60.1159 12.4372 59.9831C12.3903 59.8477 12.3174 59.7501 12.2184 59.6902C12.1221 59.6277 11.9997 59.5964 11.8512 59.5964C11.7158 59.5964 11.5895 59.6342 11.4723 59.7097C11.3552 59.7852 11.2523 59.8894 11.1637 60.0222C11.0778 60.155 11.0101 60.3073 10.9606 60.4792C10.9137 60.6485 10.8903 60.8282 10.8903 61.0183ZM14.5695 61.3816V60.9792C14.5695 60.6511 14.6112 60.3633 14.6945 60.1159C14.7779 59.8659 14.8938 59.6576 15.0422 59.4909C15.1906 59.3243 15.3638 59.1993 15.5617 59.1159C15.7596 59.03 15.9719 58.987 16.1984 58.987C16.4302 58.987 16.6451 59.03 16.843 59.1159C17.0409 59.1993 17.2141 59.3243 17.3625 59.4909C17.5135 59.6576 17.6307 59.8659 17.7141 60.1159C17.7974 60.3633 17.8391 60.6511 17.8391 60.9792V61.3816C17.8391 61.7097 17.7974 61.9987 17.7141 62.2487C17.6307 62.4961 17.5148 62.7032 17.3664 62.8698C17.218 63.0365 17.0448 63.1615 16.8469 63.2448C16.649 63.3282 16.4354 63.3698 16.2063 63.3698C15.9771 63.3698 15.7635 63.3282 15.5656 63.2448C15.3677 63.1615 15.1932 63.0365 15.0422 62.8698C14.8938 62.7032 14.7779 62.4961 14.6945 62.2487C14.6112 61.9987 14.5695 61.7097 14.5695 61.3816ZM15.2609 60.9792V61.3816C15.2609 61.6133 15.2844 61.8165 15.3313 61.9909C15.3781 62.1654 15.4445 62.3112 15.5305 62.4284C15.6164 62.5456 15.7167 62.6342 15.8313 62.6941C15.9458 62.7514 16.0708 62.78 16.2063 62.78C16.3625 62.78 16.4992 62.7514 16.6164 62.6941C16.7362 62.6342 16.8352 62.5456 16.9133 62.4284C16.9914 62.3112 17.05 62.1654 17.0891 61.9909C17.1281 61.8165 17.1477 61.6133 17.1477 61.3816V60.9792C17.1477 60.7474 17.1242 60.5456 17.0773 60.3737C17.0305 60.1993 16.9641 60.0534 16.8781 59.9362C16.7922 59.8165 16.6906 59.7279 16.5734 59.6706C16.4589 59.6107 16.3339 59.5808 16.1984 59.5808C16.0656 59.5808 15.9419 59.6107 15.8273 59.6706C15.7128 59.7279 15.6125 59.8165 15.5266 59.9362C15.4432 60.0534 15.3781 60.1993 15.3313 60.3737C15.2844 60.5456 15.2609 60.7474 15.2609 60.9792ZM19.9011 59.8777V64.9167H19.2097V59.0652H19.8386L19.9011 59.8777ZM22.2644 60.987V61.3816C22.2644 61.7149 22.2331 62.0066 22.1706 62.2566C22.1107 62.504 22.0209 62.711 21.9011 62.8777C21.7839 63.0417 21.6394 63.1654 21.4675 63.2487C21.2956 63.3295 21.099 63.3698 20.8777 63.3698C20.6563 63.3698 20.4636 63.3282 20.2995 63.2448C20.1381 63.1589 20.0014 63.0352 19.8894 62.8737C19.78 62.7123 19.6928 62.5183 19.6277 62.2917C19.5652 62.0626 19.5222 61.806 19.4987 61.5222V60.9206C19.5222 60.6211 19.5652 60.3529 19.6277 60.1159C19.6902 59.8764 19.7761 59.6732 19.8855 59.5066C19.9974 59.3373 20.1342 59.2084 20.2956 59.1198C20.4597 59.0313 20.6511 58.987 20.8698 58.987C21.0964 58.987 21.2956 59.0261 21.4675 59.1042C21.642 59.1823 21.7878 59.3034 21.905 59.4675C22.0248 59.629 22.1146 59.836 22.1745 60.0886C22.2344 60.3386 22.2644 60.6381 22.2644 60.987ZM21.573 61.3816V60.987C21.573 60.7527 21.5547 60.5482 21.5183 60.3737C21.4844 60.1993 21.4297 60.0547 21.3542 59.9402C21.2787 59.8256 21.1836 59.7396 21.0691 59.6823C20.9545 59.6251 20.8165 59.5964 20.655 59.5964C20.517 59.5964 20.3946 59.6251 20.2878 59.6823C20.1836 59.7396 20.0938 59.8178 20.0183 59.9167C19.9428 60.0131 19.8803 60.1237 19.8308 60.2487C19.7813 60.3711 19.7448 60.4987 19.7214 60.6316V61.8152C19.7657 61.9818 19.8243 62.1394 19.8972 62.2878C19.9701 62.4336 20.0678 62.5521 20.1902 62.6433C20.3152 62.7344 20.4727 62.78 20.6628 62.78C20.8217 62.78 20.9584 62.7514 21.073 62.6941C21.1876 62.6368 21.2813 62.5508 21.3542 62.4362C21.4297 62.3191 21.4844 62.1732 21.5183 61.9987C21.5547 61.8217 21.573 61.6159 21.573 61.3816ZM25.1467 63.3698C24.8941 63.3698 24.6663 63.3321 24.4631 63.2566C24.26 63.181 24.0868 63.0665 23.9436 62.9128C23.8004 62.7566 23.691 62.5599 23.6155 62.323C23.5399 62.086 23.5022 61.806 23.5022 61.4831V61.0066C23.5022 60.6342 23.5452 60.3191 23.6311 60.0612C23.7196 59.8034 23.8381 59.5964 23.9866 59.4402C24.135 59.2813 24.303 59.1667 24.4905 59.0964C24.678 59.0235 24.8707 58.987 25.0686 58.987C25.3342 58.987 25.5608 59.03 25.7483 59.1159C25.9358 59.2019 26.0881 59.3295 26.2053 59.4987C26.3225 59.668 26.4084 59.8764 26.4631 60.1237C26.5204 60.3711 26.5491 60.6563 26.5491 60.9792V61.3816H23.9084V60.7917H25.8577V60.6941C25.8472 60.4753 25.8173 60.2826 25.7678 60.1159C25.7209 59.9493 25.6428 59.8191 25.5334 59.7253C25.4241 59.629 25.2691 59.5808 25.0686 59.5808C24.941 59.5808 24.8225 59.6029 24.7131 59.6472C24.6064 59.6889 24.5139 59.7631 24.4358 59.8698C24.3603 59.974 24.3004 60.1185 24.2561 60.3034C24.2144 60.4883 24.1936 60.7227 24.1936 61.0066V61.4831C24.1936 61.7097 24.2144 61.905 24.2561 62.0691C24.3004 62.2305 24.3642 62.3646 24.4475 62.4714C24.5334 62.5756 24.6376 62.6537 24.76 62.7058C24.885 62.7553 25.0269 62.78 25.1858 62.78C25.4176 62.78 25.609 62.7357 25.76 62.6472C25.911 62.556 26.0426 62.4402 26.1545 62.2995L26.5178 62.7331C26.4423 62.8399 26.3433 62.9428 26.2209 63.0417C26.1011 63.1381 25.9527 63.2175 25.7756 63.28C25.6011 63.3399 25.3915 63.3698 25.1467 63.3698ZM29.3767 63.3698C29.1241 63.3698 28.8962 63.3321 28.6931 63.2566C28.49 63.181 28.3168 63.0665 28.1736 62.9128C28.0304 62.7566 27.921 62.5599 27.8455 62.323C27.7699 62.086 27.7322 61.806 27.7322 61.4831V61.0066C27.7322 60.6342 27.7752 60.3191 27.8611 60.0612C27.9496 59.8034 28.0681 59.5964 28.2166 59.4402C28.365 59.2813 28.533 59.1667 28.7205 59.0964C28.908 59.0235 29.1007 58.987 29.2986 58.987C29.5642 58.987 29.7908 59.03 29.9783 59.1159C30.1658 59.2019 30.3181 59.3295 30.4353 59.4987C30.5525 59.668 30.6384 59.8764 30.6931 60.1237C30.7504 60.3711 30.7791 60.6563 30.7791 60.9792V61.3816H28.1384V60.7917H30.0877V60.6941C30.0772 60.4753 30.0473 60.2826 29.9978 60.1159C29.9509 59.9493 29.8728 59.8191 29.7634 59.7253C29.6541 59.629 29.4991 59.5808 29.2986 59.5808C29.171 59.5808 29.0525 59.6029 28.9431 59.6472C28.8364 59.6889 28.7439 59.7631 28.6658 59.8698C28.5903 59.974 28.5304 60.1185 28.4861 60.3034C28.4444 60.4883 28.4236 60.7227 28.4236 61.0066V61.4831C28.4236 61.7097 28.4444 61.905 28.4861 62.0691C28.5304 62.2305 28.5942 62.3646 28.6775 62.4714C28.7634 62.5756 28.8676 62.6537 28.99 62.7058C29.115 62.7553 29.2569 62.78 29.4158 62.78C29.6476 62.78 29.839 62.7357 29.99 62.6472C30.141 62.556 30.2726 62.4402 30.3845 62.2995L30.7478 62.7331C30.6723 62.8399 30.5733 62.9428 30.4509 63.0417C30.3311 63.1381 30.1827 63.2175 30.0056 63.28C29.8311 63.3399 29.6215 63.3698 29.3767 63.3698ZM32.9075 57.6042V63.2917H32.1887V57.6042H32.9075ZM34.8255 60.1628V60.78H32.7708V60.1628H34.8255ZM35.1497 57.6042V58.2214H32.7708V57.6042H35.1497ZM36.1961 61.3816V60.9792C36.1961 60.6511 36.2378 60.3633 36.3211 60.1159C36.4044 59.8659 36.5203 59.6576 36.6688 59.4909C36.8172 59.3243 36.9904 59.1993 37.1883 59.1159C37.3862 59.03 37.5984 58.987 37.825 58.987C38.0568 58.987 38.2716 59.03 38.4695 59.1159C38.6674 59.1993 38.8406 59.3243 38.9891 59.4909C39.1401 59.6576 39.2573 59.8659 39.3406 60.1159C39.424 60.3633 39.4656 60.6511 39.4656 60.9792V61.3816C39.4656 61.7097 39.424 61.9987 39.3406 62.2487C39.2573 62.4961 39.1414 62.7032 38.993 62.8698C38.8445 63.0365 38.6714 63.1615 38.4734 63.2448C38.2755 63.3282 38.062 63.3698 37.8328 63.3698C37.6036 63.3698 37.3901 63.3282 37.1922 63.2448C36.9943 63.1615 36.8198 63.0365 36.6688 62.8698C36.5203 62.7032 36.4044 62.4961 36.3211 62.2487C36.2378 61.9987 36.1961 61.7097 36.1961 61.3816ZM36.8875 60.9792V61.3816C36.8875 61.6133 36.9109 61.8165 36.9578 61.9909C37.0047 62.1654 37.0711 62.3112 37.157 62.4284C37.243 62.5456 37.3432 62.6342 37.4578 62.6941C37.5724 62.7514 37.6974 62.78 37.8328 62.78C37.9891 62.78 38.1258 62.7514 38.243 62.6941C38.3628 62.6342 38.4617 62.5456 38.5398 62.4284C38.618 62.3112 38.6766 62.1654 38.7156 61.9909C38.7547 61.8165 38.7742 61.6133 38.7742 61.3816V60.9792C38.7742 60.7474 38.7508 60.5456 38.7039 60.3737C38.657 60.1993 38.5906 60.0534 38.5047 59.9362C38.4188 59.8165 38.3172 59.7279 38.2 59.6706C38.0854 59.6107 37.9604 59.5808 37.825 59.5808C37.6922 59.5808 37.5685 59.6107 37.4539 59.6706C37.3393 59.7279 37.2391 59.8165 37.1531 59.9362C37.0698 60.0534 37.0047 60.1993 36.9578 60.3737C36.9109 60.5456 36.8875 60.7474 36.8875 60.9792ZM40.6917 61.3816V60.9792C40.6917 60.6511 40.7334 60.3633 40.8167 60.1159C40.9001 59.8659 41.0159 59.6576 41.1644 59.4909C41.3128 59.3243 41.486 59.1993 41.6839 59.1159C41.8818 59.03 42.0941 58.987 42.3206 58.987C42.5524 58.987 42.7672 59.03 42.9652 59.1159C43.1631 59.1993 43.3363 59.3243 43.4847 59.4909C43.6357 59.6576 43.7529 59.8659 43.8363 60.1159C43.9196 60.3633 43.9613 60.6511 43.9613 60.9792V61.3816C43.9613 61.7097 43.9196 61.9987 43.8363 62.2487C43.7529 62.4961 43.637 62.7032 43.4886 62.8698C43.3402 63.0365 43.167 63.1615 42.9691 63.2448C42.7711 63.3282 42.5576 63.3698 42.3284 63.3698C42.0993 63.3698 41.8857 63.3282 41.6878 63.2448C41.4899 63.1615 41.3154 63.0365 41.1644 62.8698C41.0159 62.7032 40.9001 62.4961 40.8167 62.2487C40.7334 61.9987 40.6917 61.7097 40.6917 61.3816ZM41.3831 60.9792V61.3816C41.3831 61.6133 41.4066 61.8165 41.4534 61.9909C41.5003 62.1654 41.5667 62.3112 41.6527 62.4284C41.7386 62.5456 41.8389 62.6342 41.9534 62.6941C42.068 62.7514 42.193 62.78 42.3284 62.78C42.4847 62.78 42.6214 62.7514 42.7386 62.6941C42.8584 62.6342 42.9573 62.5456 43.0355 62.4284C43.1136 62.3112 43.1722 62.1654 43.2113 61.9909C43.2503 61.8165 43.2698 61.6133 43.2698 61.3816V60.9792C43.2698 60.7474 43.2464 60.5456 43.1995 60.3737C43.1527 60.1993 43.0863 60.0534 43.0003 59.9362C42.9144 59.8165 42.8128 59.7279 42.6956 59.6706C42.581 59.6107 42.456 59.5808 42.3206 59.5808C42.1878 59.5808 42.0641 59.6107 41.9495 59.6706C41.8349 59.7279 41.7347 59.8165 41.6488 59.9362C41.5654 60.0534 41.5003 60.1993 41.4534 60.3737C41.4066 60.5456 41.3831 60.7474 41.3831 60.9792ZM47.5467 62.4714V57.2917H48.2342V63.2917H47.6053L47.5467 62.4714ZM45.1834 61.3816V60.987C45.1834 60.6381 45.2173 60.3386 45.285 60.0886C45.3527 59.836 45.4491 59.629 45.5741 59.4675C45.6991 59.3034 45.8488 59.1823 46.0233 59.1042C46.1978 59.0261 46.3905 58.987 46.6014 58.987C46.8202 58.987 47.0077 59.0313 47.1639 59.1198C47.3228 59.2084 47.4556 59.3373 47.5623 59.5066C47.6691 59.6732 47.7524 59.8764 47.8123 60.1159C47.8748 60.3529 47.9165 60.6211 47.9373 60.9206V61.448C47.9139 61.7448 47.8709 62.0118 47.8084 62.2487C47.7485 62.4857 47.6652 62.6876 47.5584 62.8542C47.4517 63.0209 47.3189 63.1485 47.16 63.237C47.0011 63.3256 46.8123 63.3698 46.5936 63.3698C46.3853 63.3698 46.1952 63.3295 46.0233 63.2487C45.8514 63.1654 45.7017 63.0417 45.5741 62.8777C45.4491 62.711 45.3527 62.504 45.285 62.2566C45.2173 62.0066 45.1834 61.7149 45.1834 61.3816ZM45.8748 60.987V61.3816C45.8748 61.6159 45.8918 61.8204 45.9256 61.9948C45.9595 62.1667 46.0129 62.3099 46.0858 62.4245C46.1587 62.5365 46.2511 62.6198 46.3631 62.6745C46.4777 62.7292 46.6144 62.7566 46.7733 62.7566C46.966 62.7566 47.1235 62.7097 47.2459 62.6159C47.3683 62.5222 47.466 62.3985 47.5389 62.2448C47.6144 62.0886 47.6743 61.9206 47.7186 61.7409V60.6316C47.6926 60.4987 47.6548 60.3711 47.6053 60.2487C47.5558 60.1237 47.4933 60.0131 47.4178 59.9167C47.3449 59.8178 47.2551 59.7396 47.1483 59.6823C47.0441 59.6251 46.9217 59.5964 46.7811 59.5964C46.6222 59.5964 46.4842 59.6251 46.367 59.6823C46.2524 59.7396 46.1587 59.8256 46.0858 59.9402C46.0155 60.0547 45.9621 60.1993 45.9256 60.3737C45.8918 60.5482 45.8748 60.7527 45.8748 60.987Z" fill="black"/>
</svg>
