<svg width="45" height="34" viewBox="0 0 45 34" fill="none" xmlns="http://www.w3.org/2000/svg">
<path d="M7.78857 10.5C7.78857 9.39543 8.684 8.5 9.78857 8.5H43.0001C44.1047 8.5 45.0001 9.39543 45.0001 10.5V32C45.0001 33.1046 44.1047 34 43.0001 34H9.78857C8.684 34 7.78857 33.1046 7.78857 32V10.5Z" fill="white"/>
<path d="M20.2692 10.2C20.2692 15.5487 15.8522 19.9 10.3846 19.9C4.917 19.9 0.5 15.5487 0.5 10.2C0.5 4.85126 4.917 0.5 10.3846 0.5C15.8522 0.5 20.2692 4.85126 20.2692 10.2Z" fill="white" stroke="#ED4D2D"/>
<path d="M20.0983 4.4129L38.1387 3.53454C39.0946 3.488 39.5725 3.46473 39.8817 3.74877C40.1908 4.03281 40.2081 4.51103 40.2426 5.46746L40.3101 7.341L20.9217 8.3443C21.0124 7.06713 20.7653 5.7873 20.2053 4.63329L20.0983 4.4129Z" fill="white"/>
<rect x="9" y="6" width="1" height="6" fill="#ED4D2D"/>
<rect x="9" y="11" width="4" height="1" fill="#ED4D2D"/>
</svg>
