<svg width="56" height="58" viewBox="0 0 56 58" fill="none" xmlns="http://www.w3.org/2000/svg">
<path d="M13.2597 54.4631C13.2597 54.3303 13.2441 54.2131 13.2128 54.1116C13.1816 54.0074 13.1269 53.9137 13.0487 53.8303C12.9706 53.747 12.8612 53.6676 12.7206 53.592C12.58 53.5165 12.4016 53.4397 12.1855 53.3616C11.9511 53.2782 11.7389 53.1858 11.5487 53.0842C11.3586 52.9801 11.1959 52.8616 11.0605 52.7288C10.9277 52.5959 10.8248 52.4436 10.7519 52.2717C10.679 52.0999 10.6425 51.9032 10.6425 51.6819C10.6425 51.4605 10.6803 51.2561 10.7558 51.0686C10.8339 50.8811 10.9433 50.7183 11.0839 50.5803C11.2271 50.4397 11.399 50.3303 11.5995 50.2522C11.8001 50.1741 12.024 50.135 12.2714 50.135C12.6412 50.135 12.9524 50.217 13.205 50.3811C13.4602 50.5426 13.6529 50.7548 13.7831 51.0178C13.9133 51.2782 13.9784 51.5569 13.9784 51.8538H13.2597C13.2597 51.6402 13.2245 51.4514 13.1542 51.2874C13.0865 51.1207 12.9797 50.9905 12.8339 50.8967C12.6907 50.8004 12.5032 50.7522 12.2714 50.7522C12.0631 50.7522 11.8912 50.7926 11.7558 50.8733C11.623 50.954 11.524 51.0634 11.4589 51.2014C11.3964 51.3394 11.3652 51.497 11.3652 51.6741C11.3652 51.7939 11.386 51.9032 11.4277 52.0022C11.4693 52.0986 11.5331 52.1884 11.6191 52.2717C11.7076 52.3551 11.817 52.4319 11.9472 52.5022C12.08 52.5725 12.2362 52.6402 12.4159 52.7053C12.6946 52.7965 12.9329 52.898 13.1308 53.01C13.3287 53.122 13.4902 53.2483 13.6152 53.3889C13.7402 53.5269 13.8313 53.6845 13.8886 53.8616C13.9485 54.0361 13.9784 54.234 13.9784 54.4553C13.9784 54.6871 13.9394 54.8967 13.8612 55.0842C13.7857 55.2717 13.6751 55.4319 13.5292 55.5647C13.3834 55.6975 13.2076 55.8004 13.0019 55.8733C12.7961 55.9436 12.5644 55.9788 12.3066 55.9788C12.0826 55.9788 11.8626 55.9423 11.6464 55.8694C11.4329 55.7965 11.2389 55.6871 11.0644 55.5413C10.8899 55.3954 10.7506 55.2157 10.6464 55.0022C10.5422 54.7861 10.4902 54.5361 10.4902 54.2522H11.2089C11.2089 54.4475 11.2376 54.6155 11.2948 54.7561C11.3521 54.8941 11.4316 55.0087 11.5331 55.0999C11.6347 55.191 11.7506 55.2587 11.8808 55.303C12.0136 55.3446 12.1555 55.3655 12.3066 55.3655C12.5149 55.3655 12.6894 55.329 12.83 55.2561C12.9732 55.1832 13.08 55.079 13.1503 54.9436C13.2232 54.8082 13.2597 54.648 13.2597 54.4631ZM17.2123 53.6702H15.9702V53.0569H17.2123C17.4467 53.0569 17.6355 53.01 17.7787 52.9163C17.9246 52.8225 18.0301 52.6923 18.0952 52.5256C18.1629 52.359 18.1967 52.1689 18.1967 51.9553C18.1967 51.76 18.1629 51.5764 18.0952 51.4045C18.0301 51.2327 17.9246 51.0946 17.7787 50.9905C17.6355 50.8837 17.4467 50.8303 17.2123 50.8303H16.1186V55.9006H15.3998V50.2131H17.2123C17.5795 50.2131 17.8894 50.2874 18.142 50.4358C18.3946 50.5842 18.586 50.79 18.7162 51.053C18.8491 51.3134 18.9155 51.6116 18.9155 51.9475C18.9155 52.3121 18.8491 52.6233 18.7162 52.8811C18.586 53.1389 18.3946 53.3355 18.142 53.4709C17.8894 53.6038 17.5795 53.6702 17.2123 53.6702ZM22.247 55.178V52.885C22.247 52.7183 22.221 52.5842 22.1689 52.4827C22.1194 52.3811 22.0439 52.3069 21.9423 52.26C21.8434 52.2131 21.7184 52.1897 21.5673 52.1897C21.4215 52.1897 21.2952 52.2196 21.1884 52.2795C21.0843 52.3394 21.0035 52.4189 20.9463 52.5178C20.8916 52.6168 20.8642 52.7262 20.8642 52.8459H20.1728C20.1728 52.6949 20.2054 52.5452 20.2705 52.3967C20.3382 52.2483 20.4345 52.1142 20.5595 51.9944C20.6845 51.872 20.8343 51.7756 21.0088 51.7053C21.1858 51.6324 21.3838 51.5959 21.6025 51.5959C21.8629 51.5959 22.0934 51.6389 22.2939 51.7249C22.4944 51.8082 22.652 51.9449 22.7666 52.135C22.8811 52.3251 22.9384 52.5777 22.9384 52.8928V54.9788C22.9384 55.1194 22.9489 55.2691 22.9697 55.428C22.9931 55.5868 23.0257 55.7236 23.0673 55.8381V55.9006H22.3525C22.3186 55.8173 22.2926 55.7066 22.2744 55.5686C22.2561 55.428 22.247 55.2978 22.247 55.178ZM22.3564 53.3381L22.3642 53.8459H21.8838C21.7197 53.8459 21.5699 53.8642 21.4345 53.9006C21.3017 53.9371 21.1871 53.9905 21.0908 54.0608C20.9944 54.1285 20.9202 54.2131 20.8681 54.3147C20.8186 54.4163 20.7939 54.5321 20.7939 54.6624C20.7939 54.8316 20.8173 54.967 20.8642 55.0686C20.9111 55.1676 20.9814 55.2392 21.0752 55.2834C21.1689 55.3277 21.2874 55.3499 21.4306 55.3499C21.6051 55.3499 21.7588 55.3095 21.8916 55.2288C22.0244 55.148 22.1272 55.0504 22.2002 54.9358C22.2757 54.8212 22.3108 54.7144 22.3056 54.6155L22.458 54.9397C22.4476 55.0413 22.4137 55.1519 22.3564 55.2717C22.3017 55.3889 22.2249 55.5022 22.1259 55.6116C22.027 55.7183 21.9098 55.8069 21.7744 55.8772C21.6416 55.9449 21.4918 55.9788 21.3252 55.9788C21.0804 55.9788 20.8655 55.9319 20.6806 55.8381C20.4983 55.7444 20.3564 55.6064 20.2548 55.4241C20.1533 55.2418 20.1025 55.0165 20.1025 54.7483C20.1025 54.5452 20.1377 54.3577 20.208 54.1858C20.2783 54.0139 20.3824 53.8655 20.5205 53.7405C20.6585 53.6129 20.8317 53.5139 21.04 53.4436C21.2509 53.3733 21.4944 53.3381 21.7705 53.3381H22.3564ZM25.4106 55.4631L26.352 51.6741H27.0864L25.6919 56.553C25.658 56.6571 25.6124 56.7691 25.5552 56.8889C25.5005 57.0113 25.4302 57.1272 25.3442 57.2366C25.2583 57.3459 25.1554 57.4345 25.0356 57.5022C24.9158 57.5725 24.7752 57.6077 24.6138 57.6077C24.5643 57.6077 24.5005 57.5999 24.4223 57.5842C24.3468 57.5686 24.2921 57.5556 24.2583 57.5452V56.9592C24.2739 56.9618 24.2986 56.9644 24.3325 56.967C24.3664 56.9722 24.3911 56.9749 24.4067 56.9749C24.5421 56.9749 24.6567 56.9527 24.7505 56.9084C24.8468 56.8668 24.9289 56.7952 24.9966 56.6936C25.0643 56.5946 25.1216 56.4579 25.1684 56.2834L25.4106 55.4631ZM24.8013 51.6741L25.6411 54.9553L25.8208 55.717L25.3286 55.9827L24.0473 51.6741H24.8013ZM31.2891 55.2874V55.9006H28.9297V55.2874H31.2891ZM29.0586 50.2131V55.9006H28.3398V50.2131H29.0586ZM34.6011 55.178V52.885C34.6011 52.7183 34.5751 52.5842 34.523 52.4827C34.4735 52.3811 34.398 52.3069 34.2964 52.26C34.1974 52.2131 34.0724 52.1897 33.9214 52.1897C33.7756 52.1897 33.6493 52.2196 33.5425 52.2795C33.4383 52.3394 33.3576 52.4189 33.3003 52.5178C33.2456 52.6168 33.2183 52.7262 33.2183 52.8459H32.5269C32.5269 52.6949 32.5594 52.5452 32.6245 52.3967C32.6922 52.2483 32.7886 52.1142 32.9136 51.9944C33.0386 51.872 33.1883 51.7756 33.3628 51.7053C33.5399 51.6324 33.7378 51.5959 33.9566 51.5959C34.217 51.5959 34.4474 51.6389 34.648 51.7249C34.8485 51.8082 35.006 51.9449 35.1206 52.135C35.2352 52.3251 35.2925 52.5777 35.2925 52.8928V54.9788C35.2925 55.1194 35.3029 55.2691 35.3237 55.428C35.3472 55.5868 35.3797 55.7236 35.4214 55.8381V55.9006H34.7066C34.6727 55.8173 34.6467 55.7066 34.6284 55.5686C34.6102 55.428 34.6011 55.2978 34.6011 55.178ZM34.7105 53.3381L34.7183 53.8459H34.2378C34.0737 53.8459 33.924 53.8642 33.7886 53.9006C33.6558 53.9371 33.5412 53.9905 33.4448 54.0608C33.3485 54.1285 33.2743 54.2131 33.2222 54.3147C33.1727 54.4163 33.148 54.5321 33.148 54.6624C33.148 54.8316 33.1714 54.967 33.2183 55.0686C33.2652 55.1676 33.3355 55.2392 33.4292 55.2834C33.523 55.3277 33.6415 55.3499 33.7847 55.3499C33.9592 55.3499 34.1128 55.3095 34.2456 55.2288C34.3784 55.148 34.4813 55.0504 34.5542 54.9358C34.6297 54.8212 34.6649 54.7144 34.6597 54.6155L34.812 54.9397C34.8016 55.0413 34.7678 55.1519 34.7105 55.2717C34.6558 55.3889 34.579 55.5022 34.48 55.6116C34.381 55.7183 34.2639 55.8069 34.1284 55.8772C33.9956 55.9449 33.8459 55.9788 33.6792 55.9788C33.4344 55.9788 33.2196 55.9319 33.0347 55.8381C32.8524 55.7444 32.7105 55.6064 32.6089 55.4241C32.5073 55.2418 32.4566 55.0165 32.4566 54.7483C32.4566 54.5452 32.4917 54.3577 32.562 54.1858C32.6323 54.0139 32.7365 53.8655 32.8745 53.7405C33.0126 53.6129 33.1857 53.5139 33.3941 53.4436C33.605 53.3733 33.8485 53.3381 34.1245 53.3381H34.7105ZM38.3897 51.6741V52.2288H36.417V51.6741H38.3897ZM37.0616 50.6467H37.753V54.8538C37.753 54.997 37.7699 55.1051 37.8037 55.178C37.8402 55.2509 37.8858 55.2991 37.9405 55.3225C37.9952 55.3459 38.0537 55.3577 38.1162 55.3577C38.1631 55.3577 38.2152 55.3525 38.2725 55.342C38.3298 55.329 38.3689 55.3186 38.3897 55.3108L38.3858 55.9006C38.3389 55.9189 38.2764 55.9358 38.1983 55.9514C38.1202 55.9696 38.0212 55.9788 37.9014 55.9788C37.753 55.9788 37.6149 55.9436 37.4873 55.8733C37.3597 55.803 37.2569 55.6858 37.1787 55.5217C37.1006 55.3551 37.0616 55.1311 37.0616 54.8499V50.6467ZM41.2056 55.9788C40.953 55.9788 40.7252 55.941 40.522 55.8655C40.3189 55.79 40.1457 55.6754 40.0025 55.5217C39.8593 55.3655 39.7499 55.1689 39.6744 54.9319C39.5989 54.6949 39.5611 54.415 39.5611 54.092V53.6155C39.5611 53.2431 39.6041 52.928 39.69 52.6702C39.7785 52.4124 39.897 52.2053 40.0455 52.0491C40.1939 51.8902 40.3619 51.7756 40.5494 51.7053C40.7369 51.6324 40.9296 51.5959 41.1275 51.5959C41.3931 51.5959 41.6197 51.6389 41.8072 51.7249C41.9947 51.8108 42.147 51.9384 42.2642 52.1077C42.3814 52.2769 42.4673 52.4853 42.522 52.7327C42.5793 52.9801 42.608 53.2652 42.608 53.5881V53.9905H39.9673V53.4006H41.9166V53.303C41.9061 53.0842 41.8762 52.8915 41.8267 52.7249C41.7798 52.5582 41.7017 52.428 41.5923 52.3342C41.483 52.2379 41.328 52.1897 41.1275 52.1897C40.9999 52.1897 40.8814 52.2118 40.772 52.2561C40.6653 52.2978 40.5728 52.372 40.4947 52.4788C40.4192 52.5829 40.3593 52.7275 40.315 52.9124C40.2733 53.0972 40.2525 53.3316 40.2525 53.6155V54.092C40.2525 54.3186 40.2733 54.5139 40.315 54.678C40.3593 54.8394 40.4231 54.9736 40.5064 55.0803C40.5923 55.1845 40.6965 55.2626 40.8189 55.3147C40.9439 55.3642 41.0858 55.3889 41.2447 55.3889C41.4765 55.3889 41.6679 55.3446 41.8189 55.2561C41.97 55.165 42.1015 55.0491 42.2134 54.9084L42.5767 55.342C42.5012 55.4488 42.4022 55.5517 42.2798 55.6506C42.1601 55.747 42.0116 55.8264 41.8345 55.8889C41.6601 55.9488 41.4504 55.9788 41.2056 55.9788ZM44.6153 52.3381V55.9006H43.9239V51.6741H44.5919L44.6153 52.3381ZM45.6661 51.6506L45.67 52.3225C45.6127 52.3095 45.5606 52.3017 45.5137 52.2991C45.4695 52.2939 45.4174 52.2913 45.3575 52.2913C45.2273 52.2913 45.1127 52.3173 45.0137 52.3694C44.9174 52.4215 44.8341 52.4944 44.7637 52.5881C44.6934 52.6819 44.6374 52.7939 44.5958 52.9241C44.5541 53.0517 44.5255 53.1923 44.5098 53.3459L44.3302 53.4631C44.3302 53.2079 44.3497 52.9683 44.3887 52.7444C44.4304 52.5204 44.4942 52.3225 44.5802 52.1506C44.6661 51.9762 44.7755 51.8407 44.9083 51.7444C45.0437 51.6454 45.2052 51.5959 45.3927 51.5959C45.4343 51.5959 45.4851 51.6025 45.545 51.6155C45.6075 51.6259 45.6479 51.6376 45.6661 51.6506Z" fill="black"/>
<g filter="url(#filter0_d_66_52119)">
<rect x="4.5" y="0.5" width="47" height="45" rx="10.5" stroke="#C4C4C4" stroke-linejoin="round" shape-rendering="crispEdges"/>
</g>
<path d="M19.6729 18.75C19.6729 17.6454 20.5683 16.75 21.6729 16.75H39.9998C41.1043 16.75 41.9998 17.6454 41.9998 18.75V32C41.9998 33.1046 41.1043 34 39.9998 34H21.6729C20.5683 34 19.6729 33.1046 19.6729 32V18.75Z" fill="#ED4D2D"/>
<path d="M25.3 16.5517C25.3 19.3549 23.0932 21.6034 20.4 21.6034C17.7068 21.6034 15.5 19.3549 15.5 16.5517C15.5 13.7486 17.7068 11.5 20.4 11.5C23.0932 11.5 25.3 13.7486 25.3 16.5517Z" fill="#ED4D2D" stroke="white"/>
<path d="M25.8069 14.0404L35.8151 13.491C36.7726 13.4384 37.2513 13.4122 37.56 13.6951C37.8687 13.978 37.884 14.4572 37.9147 15.4156L37.934 16.0212L26.301 16.6999C26.3556 15.8329 26.2054 14.9661 25.8626 14.1696L25.8069 14.0404Z" fill="#ED4D2D"/>
<rect x="19.6284" y="14.1724" width="0.6" height="4.05882" fill="white"/>
<rect x="19.6284" y="18.1379" width="2.4" height="0.676471" fill="white"/>
<ellipse cx="38.9144" cy="25.2759" rx="1.54286" ry="1.58621" fill="white"/>
<defs>
<filter id="filter0_d_66_52119" x="0" y="0" width="56" height="54" filterUnits="userSpaceOnUse" color-interpolation-filters="sRGB">
<feFlood flood-opacity="0" result="BackgroundImageFix"/>
<feColorMatrix in="SourceAlpha" type="matrix" values="0 0 0 0 0 0 0 0 0 0 0 0 0 0 0 0 0 0 127 0" result="hardAlpha"/>
<feOffset dy="4"/>
<feGaussianBlur stdDeviation="2"/>
<feComposite in2="hardAlpha" operator="out"/>
<feColorMatrix type="matrix" values="0 0 0 0 0 0 0 0 0 0 0 0 0 0 0 0 0 0 0.25 0"/>
<feBlend mode="normal" in2="BackgroundImageFix" result="effect1_dropShadow_66_52119"/>
<feBlend mode="normal" in="SourceGraphic" in2="effect1_dropShadow_66_52119" result="shape"/>
</filter>
</defs>
</svg>
