<svg width="23" height="25" viewBox="0 0 23 25" fill="none" xmlns="http://www.w3.org/2000/svg">
<path d="M22.5 12.5357C22.5 19.0976 17.5432 24.3572 11.5 24.3572C5.4568 24.3572 0.5 19.0976 0.5 12.5357C0.5 5.97388 5.4568 0.714294 11.5 0.714294C17.5432 0.714294 22.5 5.97388 22.5 12.5357Z" fill="white" stroke="#ED4D2D"/>
<path d="M12.0186 15.7536H10.3838C10.3896 15.1911 10.4395 14.7312 10.5332 14.3737C10.6328 14.0105 10.7939 13.6794 11.0166 13.3806C11.2393 13.0818 11.5352 12.7419 11.9043 12.3611C12.1738 12.0857 12.4199 11.8279 12.6426 11.5876C12.8711 11.3415 13.0557 11.0779 13.1963 10.7966C13.3369 10.5095 13.4072 10.1667 13.4072 9.76828C13.4072 9.36398 13.334 9.01535 13.1875 8.72238C13.0469 8.42941 12.8359 8.20383 12.5547 8.04562C12.2793 7.88742 11.9365 7.80832 11.5264 7.80832C11.1865 7.80832 10.8643 7.86984 10.5596 7.99289C10.2549 8.11594 10.0088 8.30637 9.82129 8.56418C9.63379 8.81613 9.53711 9.14719 9.53125 9.55734H7.90527C7.91699 8.89523 8.08105 8.32687 8.39746 7.85226C8.71973 7.37766 9.15332 7.01437 9.69824 6.76242C10.2432 6.51047 10.8525 6.38449 11.5264 6.38449C12.2705 6.38449 12.9033 6.51926 13.4248 6.78879C13.9521 7.05832 14.3535 7.44504 14.6289 7.94894C14.9043 8.44699 15.042 9.03879 15.042 9.72433C15.042 10.2517 14.9336 10.738 14.7168 11.1833C14.5059 11.6228 14.2334 12.0359 13.8994 12.4226C13.5654 12.8093 13.2109 13.1784 12.8359 13.53C12.5137 13.8288 12.2969 14.1657 12.1855 14.5407C12.0742 14.9157 12.0186 15.32 12.0186 15.7536ZM10.3135 18.5398C10.3135 18.2761 10.3955 18.0534 10.5596 17.8718C10.7236 17.6902 10.9609 17.5993 11.2715 17.5993C11.5879 17.5993 11.8281 17.6902 11.9922 17.8718C12.1562 18.0534 12.2383 18.2761 12.2383 18.5398C12.2383 18.7917 12.1562 19.0085 11.9922 19.1902C11.8281 19.3718 11.5879 19.4626 11.2715 19.4626C10.9609 19.4626 10.7236 19.3718 10.5596 19.1902C10.3955 19.0085 10.3135 18.7917 10.3135 18.5398Z" fill="#ED4D2D"/>
</svg>
