<svg width="19" height="22" viewBox="0 0 19 22" fill="none" xmlns="http://www.w3.org/2000/svg">
<path d="M0.5 15.8722C0.5 15.6339 0.66817 15.4288 0.90183 15.382L5.62956 14.4353C5.87679 14.3858 6.10754 14.2748 6.30051 14.1125L9.51498 11.4091C9.71723 11.239 10.0169 11.2557 10.1991 11.4472L12.6371 14.0101C12.8499 14.2339 13.1266 14.3865 13.4294 14.4471L18.0982 15.382C18.3318 15.4288 18.5 15.6339 18.5 15.8722V21C18.5 21.2761 18.2761 21.5 18 21.5H1C0.723857 21.5 0.5 21.2761 0.5 21V15.8722Z" stroke="#505050"/>
<path d="M12.6774 14.1276C13.2844 13.0548 13.7156 11.6528 13.9166 10.0989C14.1175 8.54513 14.0791 6.90928 13.8063 5.39826C13.5335 3.88724 13.0384 2.56891 12.3838 1.60999C11.7291 0.651076 10.9442 0.0946322 10.1284 0.0110298C9.31262 -0.0725727 8.5025 0.320421 7.80051 1.14031C7.09852 1.96021 6.53619 3.17017 6.18463 4.61721C5.83307 6.06424 5.70807 7.68335 5.82545 9.26979C5.94282 10.8562 6.29729 12.3387 6.84403 13.5299L7.49488 12.3794C7.06409 11.4409 6.78479 10.2728 6.69231 9.02283C6.59983 7.77283 6.69832 6.49709 6.97532 5.35693C7.25232 4.21677 7.6954 3.26341 8.24852 2.61739C8.80163 1.97137 9.43995 1.66172 10.0828 1.7276C10.7256 1.79347 11.344 2.23191 11.8598 2.98746C12.3756 3.74302 12.7657 4.78177 12.9806 5.97234C13.1956 7.16292 13.2258 8.45185 13.0675 9.67614C12.9092 10.9004 12.5694 12.0051 12.0911 12.8505L12.6774 14.1276Z" fill="#505050"/>
<rect x="7.43481" y="10.4211" width="4.95652" height="4.63158" fill="white"/>
</svg>
